<?xml version="1.0" encoding="UTF-8" standalone="no"?>
<!-- Created with Inkscape (http://www.inkscape.org/) -->

<svg
   xmlns:dc="http://purl.org/dc/elements/1.1/"
   xmlns:cc="http://creativecommons.org/ns#"
   xmlns:rdf="http://www.w3.org/1999/02/22-rdf-syntax-ns#"
   xmlns:svg="http://www.w3.org/2000/svg"
   xmlns="http://www.w3.org/2000/svg"
   xmlns:sodipodi="http://sodipodi.sourceforge.net/DTD/sodipodi-0.dtd"
   xmlns:inkscape="http://www.inkscape.org/namespaces/inkscape"
   version="1.1"
   id="svg3804"
   xml:space="preserve"
   width="495.30933"
   height="133.94269"
   viewBox="0 0 495.30933 133.94269"
   sodipodi:docname="total_1.ai.svg"
   inkscape:version="0.92.0 15301"><metadata
     id="metadata3810"><rdf:RDF><cc:Work
         rdf:about=""><dc:format>image/svg+xml</dc:format><dc:type
           rdf:resource="http://purl.org/dc/dcmitype/StillImage" /><dc:title></dc:title></cc:Work></rdf:RDF></metadata><defs
     id="defs3808"><clipPath
       clipPathUnits="userSpaceOnUse"
       id="clipPath3820"><path
         d="M 0,542.957 H 479.482 V 0 H 0 Z"
         id="path3818"
         inkscape:connector-curvature="0" /></clipPath></defs><sodipodi:namedview
     pagecolor="#ffffff"
     bordercolor="#666666"
     borderopacity="1"
     objecttolerance="10"
     gridtolerance="10"
     guidetolerance="10"
     inkscape:pageopacity="0"
     inkscape:pageshadow="2"
     inkscape:window-width="1610"
     inkscape:window-height="586"
     id="namedview3806"
     showgrid="false"
     showguides="true"
     inkscape:guide-bbox="true"
     inkscape:zoom="1.2445737"
     inkscape:cx="319.65466"
     inkscape:cy="104.85518"
     inkscape:window-x="262"
     inkscape:window-y="63"
     inkscape:window-maximized="0"
     inkscape:current-layer="g3816"><sodipodi:guide
       position="166.32202,591.36717"
       orientation="0,1"
       id="guide3888"
       inkscape:locked="false" /></sodipodi:namedview><g
     id="g3812"
     inkscape:groupmode="layer"
     inkscape:label="td_logo_aA"
     transform="matrix(1.3333333,0,0,-1.3333333,0,133.94267)"><g
       id="g3814"><g
         id="g3816"
         clip-path="url(#clipPath3820)"><g
           id="g3826"
           transform="translate(38.410864,69.966339)"><path
             d="m 0,0 v -8.224 h 9.532 v -19.811 h 10.653 v 19.811 h 9.532 V 0 Z m 45.79,0.561 c -4.858,0 -9.477,-1.43 -12.664,-5.254 -3.098,-3.717 -3.507,-9.457 -2.288,-13.997 2.669,-9.938 16.157,-12.128 24.161,-7.554 5.705,3.261 7.856,10.778 5.93,16.899 -2.166,6.886 -8.225,9.906 -15.139,9.906 m 0,-6.729 c 6.068,0.019 6.37,-15.512 0.194,-15.512 -6.422,0 -5.975,15.531 -0.194,15.512 M 62.05,0 v -8.224 h 9.532 v -19.811 h 10.653 v 19.811 h 9.532 V 0 Z"
             style="fill:#000000;fill-opacity:1;fill-rule:evenodd;stroke:none"
             id="path3828"
             inkscape:connector-curvature="0" /></g><g
           id="g3842"
           transform="translate(19.907864,13.959739)"><path
             d="m 0,0 h -7.476 c 0.219,0 0.946,1.528 1.074,1.769 1.298,2.43 1.73,5.403 1.73,8.136 v 3.552 H 0 Z m 10.84,20.559 h -25.044 v -8.971 c 0,-2.423 -0.078,-4.817 -0.935,-7.102 L -15.886,2.99 -16.821,1.495 -17.942,0 h -2.243 v -13.644 h 10.653 v 6.168 H 2.99 v -6.168 H 13.831 V 0 H 10.84 Z"
             style="fill:#000000;fill-opacity:1;fill-rule:nonzero;stroke:none"
             id="path3844"
             inkscape:connector-curvature="0" /></g><g
           id="g3846"
           transform="translate(128.55937,31.704439)"><path
             d="m 0,0 c 0.48,1.011 1.03,1.934 1.619,2.805 v 0.009 h -29.717 v -8.223 h 9.532 v -19.812 h 10.653 v 19.812 h 6.21 C -1.378,-3.556 -0.821,-1.73 0,0"
             style="fill:#000000;fill-opacity:1;fill-rule:nonzero;stroke:none"
             id="path3848"
             inkscape:connector-curvature="0" /></g><g
           id="g3850"
           transform="translate(47.195164,18.445339)"><path
             d="M 0,0 H -0.187 V 16.073 H -10.84 V -11.962 H 1.682 l 7.102,15.7 h 0.187 v -15.7 H 19.624 V 16.073 H 7.102 Z"
             style="fill:#000000;fill-opacity:1;fill-rule:nonzero;stroke:none"
             id="path3852"
             inkscape:connector-curvature="0" /></g><g
           id="g3854"
           transform="translate(81.771364,23.491539)"><path
             d="m 0,0 h -0.187 v 11.027 h -10.84 v -28.035 h 10.84 V -5.046 H 0 L 6.728,-17.008 H 19.624 L 9.345,-2.056 18.69,11.027 H 6.541 Z"
             style="fill:#000000;fill-opacity:1;fill-rule:nonzero;stroke:none"
             id="path3856"
             inkscape:connector-curvature="0" /></g><g
           id="g3858"
           transform="translate(232.51177,34.518539)"><path
             d="m 0,0 v -8.224 h 9.532 v -19.811 h 10.653 v 19.811 h 9.532 V 0 Z"
             style="fill:#000000;fill-opacity:1;fill-rule:evenodd;stroke:none"
             id="path3860"
             inkscape:connector-curvature="0" /></g><g
           id="g3862"
           transform="translate(219.61577,24.799739)"><path
             d="m 0,0 h -7.102 v 9.719 h -10.84 v -28.035 h 10.84 V -8.037 H 0 V -18.316 H 10.84 V 9.719 H 0 Z"
             style="fill:#000000;fill-opacity:1;fill-rule:evenodd;stroke:none"
             id="path3864"
             inkscape:connector-curvature="0" /></g><path
           d="m 325.98247,41.931339 h 10.653 v 28.035 h -10.653 z m 14.578,28.035 v -28.035 h 12.709 l 6.915,15.7 h 0.187 v -15.7 h 10.84 v 28.035 h -12.522 l -7.102,-15.886 h -0.187 v 15.886 z m 19.624,9.158 c -0.382,-3.443 -8.215,-3.443 -8.597,0 l -4.86,-1.121 c 1.011,-8.264 17.306,-8.265 18.316,0 z"
           style="fill:#000000;fill-opacity:1;fill-rule:evenodd;stroke:none"
           id="path3866"
           inkscape:connector-curvature="0" /><g
           id="g3868"
           transform="translate(281.12627,60.434539)"><path
             d="M 0,0 H -7.289 V 9.532 H -17.942 V -18.503 H -7.289 V -8.037 H 0 V -18.503 H 10.653 V 9.532 H 0 Z"
             style="fill:#000000;fill-opacity:1;fill-rule:evenodd;stroke:none"
             id="path3870"
             inkscape:connector-curvature="0" /></g><g
           id="g3872"
           transform="translate(217.95447,41.931539)"><path
             d="m 0,0 h 10.653 v 28.035 h -25.418 v -8.784 c 0,-2.573 0.107,-5.309 -0.188,-7.922 -0.15,-1.333 -0.256,-2.889 -1.17,-3.438 -0.992,-0.595 -1.975,-0.512 -2.999,-0.512 l -1.437,0.097 c 0,-2.498 0.005,-4.995 -10e-4,-7.493 0.013,-0.137 3.147,-0.244 3.399,-0.26 3.606,-0.228 8.04,0.263 10.141,3.625 0.804,1.286 1.169,2.795 1.391,4.28 0.231,1.549 0.396,3.141 0.396,4.707 v 3.364 4.86 H 0 Z m 14.578,0 h 16.415 c 4.261,0 8.787,1.456 10.872,5.42 1.877,3.568 1.255,9.932 -2.897,12.616 -4.082,2.639 -8.854,1.962 -13.55,1.962 v 8.037 h -10.84 z m 10.466,6.541 v 6.916 c 2.27,0 7.252,0.578 7.073,-3.54 C 31.963,6.355 27.985,6.541 25.044,6.541"
             style="fill:#000000;fill-opacity:1;fill-rule:evenodd;stroke:none"
             id="path3874"
             inkscape:connector-curvature="0" /></g><g
           id="g3876"
           transform="translate(306.15557,48.436339)"><path
             d="m 0,0 v 6.915 c 2.27,0 7.251,0.579 7.073,-3.539 C 6.919,-0.187 2.94,0 0,0 m 13.924,11.494 c -4.083,2.639 -8.855,1.963 -13.55,1.963 v 8.036 h -10.84 V -6.541 H 5.949 c 4.261,0 8.787,1.455 10.872,5.42 1.877,3.568 1.255,9.931 -2.897,12.615"
             style="fill:#000000;fill-opacity:1;fill-rule:evenodd;stroke:none"
             id="path3878"
             inkscape:connector-curvature="0" /></g><g
           id="g3884"
           transform="translate(110.3923,126.8245)" /></g></g></g></svg>