<svg xmlns="http://www.w3.org/2000/svg" xmlns:xlink="http://www.w3.org/1999/xlink" width="1139" height="642" viewBox="0 0 1139 642">
    <defs>
        <path id="a" d="M927.822 67.1l5.395-5.223 6.013-6.02 2.742-2.743 5.306-2.302 3.802-2.213 3.538-3.54 3.626-3.63 4.422-1.771 3.184-4.603 6.012-1.771 3.184-3.364 3.892-1.771 2.475-1.416 2.83 2.833 4.068-1.24 3.626 2.744 2.388-2.39 4.245-2.302v-2.125l-4.245.885-4.952-.353-3.184-.885 1.061-3.187 3.361-2.302-2.83-2.302 2.3-3.008 1.768-2.479 2.476-2.478 4.245-1.594 4.422-4.426s3.007-.885 4.068-1.947c1.061-1.062 0 3.01 0 3.01l2.3 1.946 1.767 1.771-1.945 4.072s2.653 0 3.714-1.062c1.062-1.063 0 2.124 0 2.124v3.718l-4.067 2.656 3.183.531 1.946-1.947 4.156 1.593 3.272 1.416 2.3 3.542 3.89-3.01v2.303l1.239 2.833h-3.715l3.007 2.3-1.592 4.603-4.068.354-3.714 4.072-1.945 4.249-3.714 1.24-6.014-1.063-3.007 4.427 1.327 2.656v4.514l-2.918 2.922-2.3-1.771-2.3 1.77h-3.36l-1.946-1.593-.707 1.947-2.653 1.771 3.095 2.921 2.388 2.39 3.891-1.062 2.83 3.365 4.333 1.151 2.919 2.921 1.414 5.134.708 4.072-2.83 4.603-6.368 1.593-1.237 2.832 3.007-1.24-.884 3.366 1.768 1.77 2.3-4.25 2.122-1.593 3.802-.088 2.211-2.213 3.715-1.593 6.013-.531v2.478l4.068-1.682 4.952-1.858 4.245 1.24 2.83-2.125 1.326 3.098 2.565 2.568v3.718l-3.538 1.416-2.298 4.955h-3.714l3.094 4.338 1.681 5.931 1.237 5.666v6.373l1.062 4.958 1.769 4.25.885 5.664 1.768 5.49 3.36 3.009v5.134l1.77 7.082 3.006 3.364 1.945 1.947-3.006 2.656-3.184-1.594-4.422 1.416-2.299 5.312-3.714 5.311 1.945 1.949-1.414 4.957v2.656l3.006 4.603v2.833l-3.36-1.594-2.476-2.479-.178 5.312v3.364l3.272 1.505-3.272 3.275-2.122 4.603-1.945 1.947 2.653 4.427 2.122 2.124 2.476 2.478 3.36 3.365.708 4.957.53 3.896 4.865 2.566 2.918 2.922h4.952l-1.327-3.01 1.681-3.187 1.239-2.655 4.598 4.602.884 4.072 4.598 3.187 4.555 1.018 1.812-1.815 6.368 3.453-1.415 3.364-3.537 1.062 1.061 4.25 3.715 6.196 3.271.796 2.565 2.568 6.013-.709 3.538 2.833 1.238 3.187-5.13 3.363-1.768 3.896 1.238 7.082 3.537 5.489 3.096 1.15 6.632 2.745v2.125l-3.891.531v3.187l-1.415 3.187 1.77 6.373 3.005 1.24 4.599 4.603 3.36 3.187.709 5.665 1.768 7.436.885 4.78v3.54l-1.947-2.655h-5.128l-3.272-1.682-2.565-2.567h-3.537l-3.184-3.187-6.19-2.833-5.838-2.478-6.72-3.54-1.945-2.657-3.184-2.124-3.538-.709-7.605-2.302-4.953-2.655-4.775-3.187-2.3-4.25-5.129-5.133-3.537-3.718v-3.718l-2.476-2.479-.531-4.071-3.006-4.25-3.273-.708 1.503-3.01 1.239-2.656-1.68-2.922 2.918-2.92-1.769-5.312-.884-5.665-2.122-6.551-3.361-4.427-1.415-5.843-1.591-5.488-1.77-4.427-2.122-6.551-2.122-1.77-.178-3.541 1.239-4.25V198.467l-2.123-2.124-2.3-4.426-4.51-.797-2.033-2.037-2.476-3.186-3.715-2.302v-4.072l3.361-3.186-3.891 1.593-3.89 2.124v3.718l-1.062 2.833 2.121 1.947 3.096 3.099 2.918 2.921h3.538l-.354 2.302-3.272 2.213 2.21 2.213v5.665l1.77 4.249.353 6.727-1.237 4.075-1.416-3.54-3.183-1.594v4.427l-2.652-2.656-1.77-1.77-1.415-3.01-4.952-4.603 1.415 3.895-1.415 4.25h-4.775v2.833l-1.592 5.842-1.946 2.302.177 7.79 3.184 2.124-.531 4.958 3.184 4.958v5.311l.973 6.993 2.918 2.922v3.186l2.476 2.479 4.333-2.213 4.157-1.505-.178 3.364-2.829 5.665-5.306.885 1.237 6.196-.53 2.656-3.36 1.415v3.718l-1.238 3.364s-4.157.974-3.361.178c.53-.532 0-1.83-1.592-3.896l.708-2.302 2.918-.974-4.51-.088-3.36.531-4.953 3.895-2.476 3.01-5.13 3.01-.883 2.656.883 3.364 1.946 1.948-2.299 2.478-3.714-1.416 1.15 3.806-2.742 2.744-2.477 2.302-4.244 1.947 1.415 2.302-1.946 3.01h-4.068l-3.98 3.983-2.564 2.567-2.83 4.78-3.007 3.01-3.006 6.02-.53 5.843 2.83 5.665-2.654 2.656-.884 5.665 1.591 4.071 2.477 2.479-2.122 3.54v11.154l-1.062 4.427v6.02l1.77 1.947v9.029l-1.592 6.02v4.958l-2.653 4.426v4.426l-1.416 3.895 1.592 3.586 4.775-2.08 5.218-2.303 2.564-2.567 1.77 1.77 2.121 3.365 1.681 3.098 2.123 2.124 1.857-1.859v-2.832l-2.477-3.718 1.946-2.124 2.123 3.363 2.122 3.895v2.302l3.537-1.416 1.945-4.425 3.184.354.443-2.922-1.68-1.681-1.592-3.01-1.946-3.541 3.183-1.77 1.947-1.948 3.89-.885h4.6l3.802.443 1.68 1.681s4.068-.708 4.952-.708c.884 0 3.36-1.064 3.36-1.064l2.212 2.214-1.681 1.683-2.299 3.187h6.19l.708 2.3 2.653 2.656 3.273-.442 1.68 1.682 1.768 3.364.53 6.728 2.3 7.082 3.625 5.222 4.51 4.515 1.77 1.772.883 3.008 3.538 3.542 2.476 4.249.885 2.48 3.272 5.045 2.74 2.743v7.436l-1.06 6.373 1.946 6.374-.177 6.55 1.945 5.135 1.415 5.666 1.06 5.133 1.062 6.905v6.729l-1.061 3.541v15.404l-1.061 6.373 1.06 6.55-.353 8.499v4.072l-3.537 5.843-2.3 4.956-2.652 4.96-6.721 1.768-3.714 2.124-2.565-3.452-2.654 1.683v3.274l-3.802-3.805-.707 6.195.707 3.01-.973 3.453-1.503 3.276v2.832l-3.36-.176-.177-5.49 2.122-4.25v-3.539l-1.857-4.162-3.802-3.805-1.947-1.948-1.592-4.073-3.36-3.363-3.183-1.063-.09-3.452 2.212-2.214 1.946-1.946v-3.542l2.475-2.479 2.83-1.415 2.92.973 2.564-2.566 1.592-3.187-2.83-4.428 1.414-3.718-1.768-3.894-.354-4.073-2.476-3.363.708-2.832-1.947-3.365-.884-3.895-3.537-3.718 2.653-2.655v-3.897l-2.21-2.212-2.565-2.568-.708-2.301-7.251 2.3-1.061 3.542-2.83 4.604-3.184 4.071 1.415 4.428-3.714 3.008-3.714 2.125-3.184 1.062-.885 3.187h-3.36l-3.36-1.946-2.476-4.96-2.83-2.476-2.3-2.303-3.802-.973-2.035 2.035-4.067-1.062-3.361-.884-5.13.707h-4.775l-1.945 1.949-5.306 1.946-5.306-1.063-2.21-4.336-2.565-2.569s-3.007-1.77-3.007-2.479c0-.71-3.36-3.363-3.36-3.363l-4.246-.708-1.769-4.249-4.068-3.187-2.83-2.832-3.89-1.062-1.416-3.718-3.538-1.593-2.122-2.125-7.074-.71h-3.714l-4.245 2.304-5.306-.886-4.069 1.417h-4.42l-6.016 4.425-2.83 2.832-5.57 3.276-2.742 2.745-1.945 5.843-1.415 3.54 1.946 2.479 2.74-2.214 2.211 2.214 2.477 2.48 1.415 5.663-1.415 3.01-1.06 7.613v4.78l-1.947 4.959 2.653 5.133 1.592 6.552-3.715 1.062-2.387 5.577-3.45 3.453-5.836 2.124-6.543-.53-4.776-.887-3.537 2.125-4.953 2.832-3.714-1.946-3.36-1.24-4.422 1.947-3.714 3.718-2.653 2.656-1.504 5.222-3.095 3.1-4.068 2.832-5.66 2.656-4.333 4.338-2.21 2.212h-5.66l-5.13 1.593h-7.251l-5.307.71-4.775-1.594-1.416-2.655-2.475-2.48h-6.721l-6.19-.886-2.477-1.593-8.135 1.151H711.6l-4.156 4.16-4.598 1.063-4.422 1.24-6.367-.53-4.332-1.86-2.742-2.745-2.564-5.4-3.273-3.274-4.6-1.77h-4.42l-5.041 1.326-3.45-3.45h-6.897l-4.069-3.011-2.034 2.035-2.741 2.745-2.21 4.515-2.388 2.39-.708 4.604 2.211 2.656v3.981l3.095 3.1v4.249l-4.156 2.745-3.98 3.983h-8.49l-4.775-1.24-4.952.886-3.537-1.063-5.13-1.772-2.83-2.832-3.36-3.363-4.068-1.239-4.775 1.947-3.008-3.01-3.802-1.681-3.096 3.097h-3.89l-1.239 3.718h-4.598l-5.837 3.718-3.538 3.542h-3.537l-.707 3.718-4.156.973-2.919 2.921-5.306-.176-4.422 2.477-2.3 2.303-5.128-.886-1.592-2.656-1.945-3.541-.973-3.629-2.741 2.745-4.599 1.77-4.245-1.417-4.775-1.239v-4.25l-3.714-2.3-1.415-3.187-3.006-1.948-.708-4.25-2.476-2.3-3.316-1.46-2.167-2.169h-4.51l-2.21 2.212-4.423.71-1.77-1.773-3.89.708-2.123-2.125-1.945-1.946v-2.655l-1.945-2.301-4.777 4.956-3.891.708-2.3-4.602-1.238-4.073-.884-4.604-3.007-5.311v-4.25l-2.83-2.655v-5.843l-2.122-7.08-3.007-3.011-1.945-1.946-2.034-4.339-2.21-2.213-3.007-1.24v-3.186l4.598-2.832-.884-2.48-5.837 2.656-3.714.177-5.66 3.01-4.952 1.417-4.245 2.301-1.946-2.832-3.715 1.77-1.945-4.78 4.245-1.949v-2.477h-3.537l-3.184-1.948-1.945 1.948-3.537-1.062 1.15-4.162-2.565-2.567-3.537 2.125-3.892-1.062-.973-3.098 2.212-2.214v-3.363l.884-2.48-1.415-4.425-2.653-1.24-4.776-3.187h-4.422l-3.537-2.125-3.891-.355-2.123 3.01H374.4l-3.891 1.063-3.184-1.77-3.891.708h-4.776l-4.598-2.39-3.891 2.035-3.537.71-3.361-1.772-7.074-1.239-6.014.176-4.422-.883-3.184.883-2.83-2.477-4.068-2.124h-3.714l-1.239 3.894 1.239 2.656-2.476 2.479 3.89 3.187 2.388 2.39-2.21 2.212-5.482-3.009-4.599.177-3.006 1.238 1.238 4.428-1.238 3.187-3.007.883-3.537-.883-1.414 3.718 1.15 2.566 2.475 2.48 1.68 1.68.708 3.01 2.475 2.48-2.475 3.363-2.3 2.301h-3.891l-3.98.266-2.034-2.036-1.415-2.877-3.714 1.904-6.545-3.452-.663-1.992-2.608-2.612v-4.515l-2.212-2.214h-4.068l-3.36 1.241-1.239-2.656-3.36-2.655-3.007-1.594-4.068 1.948-3.714.532-3.007-.886-2.122-4.073-3.006-2.656-2.123 3.542-2.3-2.832 2.123-2.125-1.415-3.01-1.769-4.604-.707-4.78-2.654-3.187-4.244-1.594-1.238-3.008-2.3-2.303-4.244.71-2.476-3.366-1.239-3.54-4.332-.798-2.21 2.214-4.069 1.417-3.537-1.949h-3.714l-1.769 2.656h-7.782l-.886 1.948-2.3 2.301-.353 3.363-4.333-.794-2.565-2.569v-3.541l1.15-3.453-1.857-1.859-4.245 2.834-2.3 1.68h-3.45l-2.74 2.746-2.3 2.3v3.188l-3.006 1.24-5.484 2.125-2.83 1.946 1.15 3.452 2.564 2.569-1.06 4.602-2.3 2.303 2.3 1.415 3.36 3.187 2.123 2.124-.884 4.604.973 6.019v4.87l-1.857 1.859-1.77-1.949-2.3 2.834 1.505 3.098 2.21 2.214-1.769 1.77-5.482.354h-3.537s-2.123.266-3.803.266c-1.12 0-2.446-.68-3.98-2.037l-4.42-1.77v2.48l-5.482 4.601h-3.361l-3.714 1.062-3.98 1.241v2.921l1.857 1.86 1.061 3.362-.884 3.364-.796 3.1-2.034 2.035-1.769 2.832-3.891 6.373v4.96l1.06 6.018-.707 4.604.353 5.664-4.245 1.948-2.83-1.238-4.067 1.415-3.892-.884-.53-3.365-1.946-5.843-.353-4.25-2.83-1.945v-2.303l-1.415-3.718-2.476-3.187 1.592-2.656 1.061-3.008-2.653-2.834-.884-3.187-3.625-2.212-2.212-2.214-3.892-.53-2.476-2.48-.708-5.664-2.475-2.303.707-3.54-3.006-2.48-1.592-4.07-2.653-1.24-3.891-2.656-1.239-4.25-2.653-4.07-.884-3.542-3.36-2.124-1.769-2.48-3.714-3.894.53-8.144-.707-6.02-1.415-3.009-1.769-2.656.354-5.311-2.123-1.948-1.414-2.832 1.06-3.187-.883-3.542 1.945-1.948 4.953 3.187 3.891-1.77 3.007-1.239 4.067-.178 4.776.886.53-4.426-1.414-2.655.708-2.303 4.067 1.772 2.123 1.946 4.067-.531 4.068.53 3.006 1.241.708-3.186-2.122-1.594-4.952-2.656.53-3.541 3.891-1.77 3.361 1.415 3.006-1.239 2.83 3.01 4.246 4.603 3.891-3.895 2.653-1.593-.708-3.896 2.476-2.478 2.299-2.48 6.544-.883 1.239-3.01 1.414-1.77-3.006-1.417v-3.718l-2.83-3.187-1.062-4.073-2.653-1.593-2.83-3.187 1.061-3.718-1.061-5.489-3.36-2.477-3.891-3.01-1.239-4.072-2.653-2.125-.884-2.478 2.3-2.656 1.769-3.895v-3.718l-1.945-3.541-1.945-3.01 2.83-4.071 3.714-1.416 1.238-4.78.354-2.834-1.416-3.54-1.946-1.948-4.598-2.479-1.592-2.302-2.388 2.036-1.857-1.86-1.592-2.655 1.592-2.833 3.36-3.364 2.3-2.656.884-3.187 4.599 1.947 1.06 2.656 3.538 1.24 3.36-1.062.885-3.54 1.061-3.896-2.653-2.655 1.592-4.25 1.061-4.248 1.945-4.603 1.415-3.896 3.537-1.062 1.238-2.656 3.361-2.833v-6.02l-3.006-2.832-3.361-.885 1.061-2.655.884-2.834-2.476-2.478-1.592-3.54.531-2.479 3.36-3.364 1.946-3.54-.884-3.187 7.075-3.365v-3.718l1.77-2.124 4.42-.178 1.946-2.302.177-2.655 3.714-1.416 3.006-4.072 4.068.177 3.537-2.124 4.776 1.062.707-2.656 4.599-.177 2.475 2.656 3.893 1.238 1.415 3.187 1.414 3.54 2.123-2.124-.354-5.134-3.183-2.833v-6.02l3.714-1.592-3.892-1.594-2.3-2.655 39.619-.178 7.428-2.655v-4.603l1.239-11.685h4.953l4.244-3.365v-4.603l3.184-1.24v-6.02l9.02-5.134 3.007 1.416 6.544-12.217.443-3.275 5.394-5.4h9.02l2.83-4.957v-9.56l5.66-2.833 7.428-3.718 5.13 1.947 5.483 2.478 3.037-2.118-.739 3.711 7.251-.176v2.833l.884 3.187-3.98-3.276-1.856 1.859.884 3.364v3.365l3.006 1.593 2.3 2.302v3.718l2.565 1.24v4.16l2.918 2.922 1.415 4.957v5.134l-.884 4.427 1.06 2.478.089 5.4 3.096 3.099-.178 3.895-.707 6.374-3.096 5.4-4.687 4.691h-4.953l-5.483 1.063-4.776-1.771-5.218-2.921-3.267-3.277v-4.78l-3.361-3.364-1.592-3.718-1.238-3.54-2.299-3.895-1.238-6.551-1.68-5.046 2.034-2.036-2.476-2.479-1.15 3.1-1.679 1.68.708 3.896.088 4.515-1.945 1.947 2.565 2.567-.708 3.896-2.476 5.489-4.333 1.327-3.449 3.453-1.326 6.285-3.272 3.275 1.061 3.718 1.592 4.603-2.565 4.515 3.626 3.63 3.888 3.894 4.423-3.187.883-4.425-2.3-2.302.354-3.896v-3.009l3.007-3.187 4.067 7.967.973 5.224 3.096 3.098 1.945 4.072 5.04 1.505.266-4.514 3.007-2.479.177-6.196 5.483.885 5.129-1.947 4.245 2.302 4.775-1.506h3.272l2.035 2.035 3.007 4.602-2.476 2.479v3.895l2.21-2.744 3.096-3.098 4.245-.885 3.537-5.134v-4.427l1.415-3.01 4.598-2.301v-2.833l4.422-2.656v-4.427l-.708-4.249 3.98 2.213 3.98 3.984 3.006 4.602v6.197l-1.062 3.187-4.244-1.063-3.715-.885-5.66 1.948v4.602l1.415 4.25v3.54l4.068 1.062 3.892 1.771 4.422-2.124v-3.187l4.598-1.062 4.422 2.124-.708-2.833 6.898 1.24 3.714-.709 6.72.885h3.892l1.946 3.54 1.769-3.186 5.66-1.771 4.246 4.603h-3.36l-1.062 3.187 1.415 4.603 8.136-2.302 5.04.974 5.484 5.489 1.857-1.86h3.714l4.688-1.505 1.857 1.86-.53 2.478-2.831 1.947v3.01l3.36 2.832.266-3.275 5.04-.62v-2.833l3.362-.531.708-4.25-.531-5.133 3.184-1.594 6.012 2.478 5.041 3.1 4.157 4.16 3.36 3.364 2.211 4.515 4.157 4.161 2.83 4.426 3.007 4.072v3.54l2.475 3.9 3.537-2.124v-3.718l4.067-3.718-4.775-5.488.708-4.958-3.361-2.301-1.857-3.807 1.68-1.681 3.537-1.771v-2.833l.884-4.25 1.591-2.124v-2.656l-1.06-4.249 1.944-2.478 3.537-1.24 3.803-1.859 4.333-4.337 2.3-5.134 1.768-4.25 1.946-4.248 3.36-1.771 2.123 3.01h4.245l2.122 2.124h3.714l1.592 6.02-1.769 1.77-.796 6.463-5.04 5.045-1.415 4.603 3.006 2.656-1.061 6.02-.884 4.78-3.537 5.312-1.238 7.613-1.946 6.727-1.414 3.365 1.326 4.692 3.096 3.098-.53 2.834-3.892 3.009-.708 6.551-3.892 1.062-4.598 4.603-2.653 3.896-2.476 1.416-4.422-.885-2.653 1.77-2.918-1.858-1.857-1.86-2.653 2.48 2.653 4.072 2.653 1.24 3.537 2.478 5.129 2.832c3.183 0 4.51-2.39 3.802-3.099-.708-.708 1.857-1.859 1.857-1.859l3.361-1.062 4.422-1.24 3.537-1.947v-3.718l4.333-4.337 2.21-2.213 1.062-4.25-.884-3.717-.354-3.364 2.388-2.39 2.388-2.39h3.714l4.068-.532 1.15 3.453 1.679 1.681 2.122 5.489-2.826 2.831.178 4.25v2.655l3.537 3.54 4.067.885v-2.478l-3.98-1.15-1.503-3.63-.353-3.187 3.891-3.187-1.061-3.364 1.238-2.833-1.769-3.54-2.3-2.125-5.747-2.922-2.476-2.478-2.034 2.036-2.653 1.24-1.415-1.947-3.714-3.364 2.122-2.125-.53-5.665 2.476-3.896 1.591-4.602 3.538-3.541-1.239-3.895-1.061-3.365.442-3.628-2.565-2.568 2.83-2.833 4.423-4.427h3.714l2.122-3.364 1.415-3.718-1.238-3.01 1.238-2.655 1.946 3.718v5.134l-.708 4.603-3.183 3.187V290.356l3.714 2.833 2.123 1.771 2.74-1.681 2.742 2.743 3.006 2.833v-2.124l-1.15-2.744-2.033-2.036-3.184-1.594-2.653-4.071-1.238-3.897 3.715-2.478 1.769 1.77 2.83 2.834 2.122-1.947-.707-2.302-.266-2.037 2.035-2.036 3.537.708 5.306 1.947 4.598 2.479-1.238 3.54 4.244 4.25h4.776l.708-2.834-1.946-2.655.178-2.479-3.361-1.24-2.476-4.071-.354-5.665 1.591-3.54-2.298-5.843 3.537-3.187h8.312l4.245 1.593 6.898-1.062 4.598-1.947h3.36l1.77-1.771-1.77-2.656-3.891-2.48 2.034-2.035c.884-.886 2.034-.62 3.449.796l-.442-3.806.266-3.983 2.476-1.948-2.653-2.833 4.952.178 1.945-4.072 4.864-1.86 1.857-1.858 6.633-.974 1.68-1.682 4.775-1.416-2.122-2.302 1.769-1.77 4.598-1.063 3.891-.531.884-1.947 3.184-.531-1.68 3.187v2.567l2.21-2.213 5.485.177.53-2.833 3.538-.709 3.537.709-1.592-2.125-2.123-1.593-1.06-1.948h3.89l4.068-1.24.885-3.009-1.415-5.311.885-2.833 2.653-6.551 3.183-2.302 2.83-3.01 3.538 2.125 3.449 3.276-2.743 2.744-2.298 3.01 5.615.31 4.554-1.107 2.565 2.567-2.3 2.302s-.176 2.302.885 2.302 3.891 1.24 3.891 1.24l.884-3.01 2.3-3.718h3.537l3.626-2.567 2.034 2.036 2.742-1.328 2.034 2.037 1.768 3.54 2.122 1.771 5.484 2.833-.354 3.718-3.538-.708 4.953 3.363 2.21 3.806-2.033 2.035v3.54l-1.77 2.48-1.679 3.452-2.034 2.036-3.537 4.25-1.062 6.728-2.653 2.655-1.06 5.49-4.246 1.061-1.326 3.984-2.918 2.921-.708 4.603-.884 3.187 3.183-1.416-.708-3.54 3.184-1.948s2.83-.885 4.422-.885c1.592 0 2.123-3.187 2.123-3.187l3.006-2.478 2.83-1.062 1.68-3.275-3.449-1.505v-4.252l4.776-.177 6.544 2.124.707-2.124 2.212-3.099 1.857 1.86v3.54l2.122 3.01v-2.3l1.68-1.682 3.272-3.275 4.422-2.302 6.72-1.24 5.307-1.593 1.327 2.036 1.68 4.161h5.482l.708-3.363 2.123 3.364 3.714-1.416 3.714-3.187s3.891-.708 4.775-.708c.884 0 0-3.187 0-3.187l-.53-3.54-2.653-4.072.708-4.072.53-2.125 2.123 2.125 2.21-1.682 1.857 1.86 2.83 1.946.707-2.124 2.83 1.236c1.415-1.062 1.239-4.337 2.566-4.337 1.326 0 1.68-1.682 1.68-1.682l3.89 3.01 5.483.176-1.414 4.338 4.067 2.036v3.364l3.361-2.124 1.77 1.77v3.896l-3.715 2.123 2.476 2.479s1.945-.885 1.945-1.771c0-.59.53.885 1.592 4.426l3.626-.089 3.449 3.453 2.653 1.77 3.714.709 5.66.531.354-3.363-1.77-5.843-1.06-2.655v-2.479l-2.3-2.302v-3.186l4.422.53 2.476 2.479 3.891-1.062h4.423l-.886-4.603 2.477-4.603 4.599-1.062 3.36-.178 3.89 1.063v-2.656l-4.155-1.86 3.45-3.629 3.359.177 2.653-2.655-3.89-3.365-3.008-1.593v-3.895l-3.006 3.54-2.123-5.134 3.892-3.54-.531-2.479-3.714-2.302 2.298-2.302h3.361l4.953-2.478 1.415-4.072 6.544-2.478 5.129-2.302c.708 2.833-2.653 4.073-2.653 4.073l-1.239 4.78 3.008-1.417 2.653-2.656 3.36 1.063-.884 6.904 3.006-2.833v-3.364l-1.061-5.665.708-2.478 1.592-4.427 3.714-1.77 5.306-2.303 3.184 2.302s-1.504 2.037-2.654 3.187c-1.149 1.15 1.239 1.948 1.239 1.948h3.89l2.477-2.833s2.83 3.01 3.36 3.54c.53.532-.53-4.07-.53-4.07l4.775-2.657 3.36 1.771 3.715-.176 3.36-3.364 3.538-4.427v-5.134l4.422-6.551 3.714-3.718 3.36-4.072 5.837-.885 4.864-.265 2.388 2.39 4.952 4.958 4.422-1.947 3.183-2.568h3.45l-1.68-1.683v-2.479l3.36-3.363v-5.843l1.591-3.01 4.953-2.301v-3.54l4.422-3.188 1.061-4.249-1.77-1.77.709-2.125-2.476-3.54 1.945-3.542 1.857-1.86 3.361 3.365-2.565 2.567 2.653 2.656h4.068l2.83-1.062 3.892-1.771 3.537-.885.884-2.833-1.062-2.833-7.959-3.01-4.42.709-1.062-2.478h-3.538v-1.947l.885-3.365 3.184-1.593.353-3.718 2.83-1.594 1.415-3.009 1.061-3.187 3.007-4.427 1.414-5.134z"/>
    </defs>
    <g fill="none" fill-rule="evenodd" transform="translate(0 1)">
        <path fill="#F3F3F3" fill-rule="nonzero" stroke="#95928C" d="M780.327 136.817l2.451-2.368 1.502 1.757h.79l1.975-1.91 1.818-2.063 3.477-1.528 2.53 1.834-1.423 3.82v2.14l-1.66 1.604-2.608 1.147-2.845 1.07h-2.844l-2.134 2.064-3.399-1.147-1.739-2.446-.79-1.07-.316-1.222 2.37 1.07 1.186-1.147zM769.874 153.436l1.965-.79h1.637l1.636-1.577-.818-3.314h-2.618l.654-2.84v-2.051l-2.128.63h-5.238l-1.718 1.658-2.701 1.814-1.965-1.894-4.746 1.42.328 2.841 1.228 1.184 1.8 1.735 1.228 1.184-1.8 1.42-2.456-2.05-1.31 1.26-1.8-1.735-4.092.79-1.8-.947-.819 2.051 1.31 1.262-2.456 1.263v2.998l1.965 1.893-.492 2.21h1.8l2.293 2.21-.656 2.524 2.947 1.42 3.928.158 1.637 1.577h2.946l3.437-.946v-2.525l-2.128-1.893 1.146-1.105 1.719 1.657 3.028-5.286 2.864-2.761 1.229 1.183 2.618-2.525.818-2.367-2.946-.947-1.964 1.894-2.455-1.736-2.946-1.736-2.947-2.051.982-2.051 1.556-1.5 1.227 4.023 1.882 1.816zM773.538 171.89l-1.466 1.201 1.14 3.002 1.873 1.727 1.546-2.778v-2.25l-1.14-1.052zM780.937 181.793l-1.115 2.637.956.989 1.432-3.131 3.66-.825 3.184-1.318 4.296-2.637-2.228-4.284h-3.024l-4.297-1.484-1.99 1.896-1.829 1.895-1.83 1.895 1.035 2.554zM742.436 167.449l-1.368-1.61-2.432-.178 1.597 1.878.987 4.201h1.975v-2.324zM664.227 229.494l-1.725.338-2.897 3.124v2.11h2.427l.784 2.027 2.037-1.013 2.35-2.533v-4.053zM769.032 118.937l-.869-1.91-.65 1.91.705 1.13zM759.031 187.518l-2.795-.58-.882.724 1.618.724 2.06 1.592.881-1.158zM630.728 190.611l-1.051-.633-.469.76 1.053.76zM621.827 176.3l-1.738.912 2.432 1.064 1.737 1.064 1.91-.456-.52-1.976-1.912.455zM615.794 167.01l-1.96.808-1.959-3.392-1.47-1.453-1.796 2.099-1.143 3.068v-2.26l.163-4.038-1.142-2.26-1.633.161-2.285 2.745.163 2.422-.98 1.616.652 4.36-1.959 1.938.163 4.359-.98 3.714-.816 3.715 1.47.807 3.103-2.423 1.796-1.13 4.082-2.098 3.265-.324 4.083-3.068 1.958-3.714-1.306-3.23zM591.871 151.554l-1.434 1.796-1.276 2.448-1.116-.49.797-3.1v-3.265l-3.507 1.143s-2.072.49-2.55.653c-.48.162-2.87.98-2.87.98l-1.117 2.448-.638 2.121-1.434 1.796.478 2.121-2.71 2.121 1.276 1.143 1.912-.653 1.595 2.285.159 2.12 1.434 1.796 3.667.326.479 2.122 2.55-1.632 1.276 2.122 3.507 1.305 3.348-1.632 1.595-2.286-1.275-2.611-2.074-2.938 1.595-1.143.638-2.774-.798-3.101.32-3.101-3.827-2.12zM589.503 200.617l-1.9 2.28-2.47.57 2.28 1.71 2.28-2.28zM565.376 199.205l-2.09-.108-.95.868 1.329.652zM545.401 243.172l-1.303.951s.543 2.377.543 2.06c0-.318.977-.634.977-.634l-.217-2.377zM533.46 232.243l-.95-2.75-2.09 1.302 1.14 1.738zM532.277 249.252l-.338 1.671h2.87l1.521 1.368.169-2.28-1.69-.304zM522.17 155.022l-.87 1.014 1.014.675 1.592 1.351.434-1.689zM511.939 266.384l-1.277 1.243.73 1.658 1.276 1.244 1.824-1.52.73-1.795-1.642-1.244zM501.802 276.608l1.455-1.14h2.264l2.101-1.71-1.94-1.709-1.94.428-1.779 1.567-1.94 1.425zM498.227 253.811l-1.244 1.43.829 1.61 1.658-1.43 2.073.714-.553-1.609zM493.944 262.778l-2.146-1.368-.894 1.976 1.43 1.064zM477.128 255.437l1.617.177v-1.768l-2.586-.707 1.293-1.59-1.456-2.297-1.778.707-.646-.178-1.779 1.414.647 1.591-1.294 1.944.323 1.237 2.91.884zM404.147 275.089l-2.533 1.247-1.9.623.476 4.053.316 2.183 1.741.467.634 3.273 3.325.312 1.108-2.65-1.584-2.649.159-2.962zM352.6 267.604l-2.182-2.86-.157-2.382-2.805-.952-3.43.952-2.026 2.7-1.559 2.065 1.09 3.016 2.496.954 2.337.952 2.183-1.587 2.65.476zM425.363 199.436l1.928 1.924h2.411v-2.405l3.535 1.283 1.768-1.924 1.768-2.084h2.25l3.857-1.762 2.732.961h4.018l2.652-2.645 3.133.24 1.446 2.085h3.375l1.608 1.603 2.893-.803h4.017l2.652-2.644 3.134-1.683 4.177-1.604h3.857l2.25 3.528v3.847l-3.374 3.046-3.054 2.885-4.017.32-4.822 2.245-4.339-1.603-2.089 2.084-4.982-.16h-6.428l-2.411 2.565h-4.981l-3.697 2.083 1.126 2.565-2.573.961-3.052-.32h-2.732l-.322 1.764-2.892-.802v2.886l-2.894 2.083-2.41 1.764v-2.725l-1.929 1.763.483 3.207h-1.929l-1.366-1.363V226.528l-1.406-1.403-1.807 1.803-1.528 1.524h-2.09l-1.607 2.084-2.089 3.526h-3.374l-2.733 2.245v3.046l-2.732 1.122-.965 3.206-2.249 2.244v4.008l-1.125 2.885 1.446 4.167-1.286 4.169 1.768 2.725.804 2.886-.964.962-2.732 1.282v-2.084l-2.571-1.443h-1.768l-1.929-2.886-1.124.641-3.374-3.206-2.573-2.725.965-2.886 2.571-.8.964-1.603-1.768-1.443.162-3.848-1.126-.32-1.125-2.886-2.41-.16-1.928-2.725.643-3.527 2.57-3.526 3.055.32.963 1.122 1.125.481.482-2.084 3.696-1.122 2.894-3.046-1.929-2.083 2.571-1.604 2.893 1.122.804-2.404v-2.405h3.695l1.768 1.763 1.848-1.843.402-1.683 4.018-.802-1.366-1.362-3.455-1.203v-1.281l4.018-1.124 4.178-1.121 2.089-2.084h2.731v-1.923l3.858-.161-2.088-2.084 3.374-.16 1.286 1.282-.162-3.206 1.608-1.603-1.768-2.084zM535.847 133.745l-1.447.328-.94 1.068 1.447 1.643 1.954-.738 1.158-1.315zM566.743 130.83l-1.367 1.116 1.063.869 1.14.93 2.356-1.799v-1.24zM573.127 138.65l1.414 1.467-1.864 1.933-1.222 2.467 1.672 2.4.643 2.4 2.957 2.666 2.701-2.667h1.8l2.701-1.6 3.215-1.066-.9-3.2v-4l1.929-1.732-1.607-1.667-3.28-3.4-1.157-2.666-2.83-.8-.385 2.667-2.315 1.066-3.472 2.4zM574.218 152.936l-3.454-.715-2.349-.238.415 2.622v1.669l3.04.715 1.243 1.073 1.866-1.61 1.035-2.324zM538.019 219.94l-2.162-1.085-.878.705 1.148.815zM495.325 107.908l-1.381.38 1.105 1.393v1.266h1.934v-2.406zM494.331 120.31l-.905 1.337-3.363.608-2.199 1.094 1.682.73-.776 1.702 1.422.365h2.846l2.264-2.129 1.681-1.58-.582-2.37zM484.154 117.952l-.85.726 1.623 1.388 2.937-.925v-2.114h-1.7zM485.639 122.652l.706-2.022h-1.927l-2.89-.062-1.862-2.022-1.413 1.349-1.027 1.96v2.452l2.183.368.514 1.47 2.697-.612 1.734-1.655zM473.734 130.705l-1.068 1.04v2h2.218l.822-2.56zM469.089 126.463l1.168 1.202 2.724-.668.779-1.87 1.946.668-1.038-2.405-1.751-1.804-2.53 1.938-.909-.935h-2.854v2.004l-1.557 1.603.908.935zM487.864 103.517l-2.15-1.689-.89 1.622 1.558 1.418zM482.545 104.868h-2.28v2.233l2.422 2.11v1.736l2.138-.868-1.283-2.357zM467.615 113.987l.492-1.52h-1.252l-.268.315zM472.666 118.395l-1.631-2.888-1.409 1.443 1.409 1.596zM472.34 109.428l-1.194.202v1.317h1.52zM474.516 114.318l-.33-.331v1.52h1.52zM475.706 117.702l.543.844.977-1.52zM478.745 110.947h-1.52v1.419l1.52.101zM476.494 106.388h-.788l.788 1.52.732-.76zM458.297 117.478l-.83.924 1.438 1.602 1.602.062v-2.957l-1.105-1.602zM463.547 115.724l-1.52-.217.507 1.52h1.013zM449.161 108.368l-2.17 1.26v1.68l-2.68-2.1-2.041.84.638 3.36 1.914-.7v2.239l2.042.56 1.85-2.03 2.617-1.19 2.17.7h3.19l2.297-2.52-2.17-2.38 1.468-1.61-2.489-1.609-1.276.98-1.276 1.4v1.54l-1.467 1.609z"/>
        <path fill="#F3F3F3" fill-rule="nonzero" stroke="#95928C" d="M448.227 105.115l1.277 1.273 2.411-.99.993.99v-2.12l-1.63-1.627h-1.49l-1.277-.495h-3.12l-1.845-1.837-1.276 2.544 1.631 1.626.638 1.909zM451.389 117.027l-1.81-1.52h-1.23l.434 1.407zM451.009 118.546l-1.14 1.368.886 1.064 2.153.608-1.393-1.672zM463.547 102.18l-3.04-.352v1.52h1.52zM954.3 411.873l-2.888.661-1.52 1.817v4.79l2.583-1.156 1.37 1.487 1.519-1.65.607-3.307zM993.053 396.682l-1.216.305-.91-2.589v-2.283l3.95 1.065 1.974.913 1.064 2.437 2.127 2.13 3.798.762.912 2.435 4.253 2.74h2.279l1.822 2.587 1.52 4.11 2.354 2.359 4.482 4.643 2.886.761 3.95 1.522 3.798 3.35 5.166 2.89 3.342 2.893 4.407 2.283 3.797 2.283 2.431 1.979 4.254 1.675-.607 1.979-1.519 1.521-2.886.913h-2.279l.608 3.196-.608 2.283v1.827l2.582 3.958s2.433 2.738 1.976 3.195c-.458.457.152 4.72.152 4.72l1.976 1.979 3.038 3.045 2.583 1.674h3.95l2.278 2.282h2.582l1.368 2.892 3.343.153 2.05-2.055 3.57 2.055 2.129 2.74s.76 1.827 0 1.827c-.761 0-4.863-1.98-4.863-1.98l-1.746 1.75h-3.874l-1.215 3.122.76 3.043 2.43 2.435 1.823 3.959-2.43 1.979-1.976-2.435-2.582-2.59-4.558-4.26v-2.893l-3.038-3.043-2.886-2.893-1.975-2.587-2.432-4.72-3.039-2.891-3.19-1.826-3.038-.913-2.584-5.48-5.621-7.762-4.558-4.568-3.797-3.804-3.344-4.566-2.127-3.5-5.772-2.589-4.558-1.978-2.735-.305-3.646-5.023v-2.283l-3.95-3.958-2.127-3.957-4.254-1.37 1.064-3.045v-2.283l3.493 1.065.608-3.044-2.05-2.054v-1.142l-2.013-2.018-2.926-1.027zM1123.152 476.191l.608 3.395.303 3.234 1.217.485v-2.587l.912-2.102v-2.91zM1135.31 478.933l-1.52-.188v1.709l1.52 1.331zM1130.751 457.312l-.253-3.619-2.153-.785-.634 4.09.824 1.019-.696 3.067.253 4.717 1.52.786.507-2.516-.76-5.03zM1132.27 446.691l-.886-1.382-.633.69.507 2.35zM1135.863 437.71l-1.796-.483.69-4.187-.966-2.575.552-2.738 1.865-2.176.483 2.981-.414 3.06.553 3.542zM1052.583 209.068v-4.208l-3.123-1.203-1.971 1.053v3.306l-.328 3.006 1.97 1.203 1.315 1.504.164 2.705 2.63.901-.657-2.705-1.151-2.104zM1109.626 223.415h3.647l2.28-2.172-2.888-.868-2.888 1.158-2.735-1.014-2.128.724 1.064 2.172zM1115.811 340.016l1.051 1.982-.323 2.643-.162 3.377 1.697 1.542 1.86-.954v-3.525l1.698-1.54-1.375-3.012-2.262-2.056.16-2.643-1.616-1.468-.97 2.643-1.536 1.395zM1126.192 358.832l-3.04-1.673v2.28l1.788.76zM1135.31 402.902v5.931h1.52l-.434-2.52v-3.559zM1119.353 213.256l-2.28 1.44 1.227 1.12 1.666-1.52 1.666-1.52zM918.755 44.186l-1.535-1.675 2.275-3.351-.398-3.64v-4.333l-2.219-1.79-1.366-.52-1.194 1.27-2.617 1.387-2.133 2.166.199 3.726-.91.926.454 3.003 1.707 2.542 1.764 4.16 2.73.577 1.85-1.877zM39.515 272.33l2.759.62 2.364-.676.9-1.745 2.14.338 1.998 1.998.084 2.73 1.633.507.338 2.139 2.533.45.562-2.026-1.378-1.38 1.182-1.18.76.76 2.42 2.025v3.04l-.338 2.645 1.407 2.308 1.408.957.506 3.433-1.238 2.59-5.91 2.983-8.95-10.639z"/>
        <path fill="#F3F3F3" fill-rule="nonzero" stroke="#95928C" stroke-linecap="round" d="M18.375 457.946l-.956-.828-1.204-.949-.887-.64-.82-.544-3.255-.081-1.893.215-1.6-.914-1.574-.483-.907-.565-1.387 1.236.187 1.72 1.36.699 1.574.484.906 2.499.187 1.934-.48 1.559.24 2.15-.667 2.015-2.24 1.102-1.174 1.209-1.707.188-1.28 2.069.694 2.526.64 1.88 2.534 1.667 2.773-.296 1.627-.833 2.454-1.128 1.787.483 2.294 1.478.68 1.258.63.793 1.17 1.055 2.692.922 2.778.043 3.132-.04 1.28 2.615.728 1.895 3.679 2.355 3.58.672 1.27-2.041 2.997.458-2.859-2.863-.321-1.153-.523-.876-.553-.584-3.188-.504-3.505-1.904-2.496-3.828 1.556-2.284.727-3.332-.414-3.028-.442-.416-.998-.739-.187-.553.76-3.293-1.78-1.763-.066-2.73-2.05-.337-.34 1.363-1.688-.154-2.202.36z"/>
        <path fill="#F3F3F3" fill-rule="nonzero" stroke="#95928C" d="M992.097 513.796l-4.249 2.338-1.062 3.598-2.832 4.678-3.186 4.137 1.417 4.498-3.717 3.057-3.717 2.159-3.186 1.08-.886 3.237h-3.362l-3.364-1.977-2.478-.9v-4.139l-2.832-2.517-2.301-2.34-.371-3.978.824-2.126-.791-2.816 1.726-.705 1.88.373 1.865-2.951 1.626-1.652-.302-3.767 2.875-.384 3.026.538 4.012-1.922 2.874 1.384 3.48 4.23 2.27-3.155s4.62-.849 4.844-1.075c.224-.227 1.815-3.383 1.815-3.383l3.632-.462 3.028-1.232-.303 2.922 1.135 1.155-.382 2.097h-3.008z"/>
        <g fill="#F3F3F3" fill-rule="nonzero" stroke="#95928C">
            <path d="M1125.873 481.883l.877-1.999v-2.765l-2.923.461.584 3.226.292 3.075 1.17.46zM1135.808 479.576l-1.9-.15v1.38l1.9 1.077zM1128.21 454.371l-.73 3.997.95.997-.804 2.998.292 4.61 1.754.77.585-2.46-.878-4.916 1.607-1.69-.292-3.538zM1133.325 448.223l-1.024-1.538-.73.769.584 2.614zM1135.954 437.77l-1.899-.461.73-3.996-1.022-2.458.584-2.613 1.973-2.076.51 2.844-.438 2.92.585 3.382zM1137.417 406.57v-3.689l-1.461.152v6.149h2.046z"/>
        </g>
        <mask id="b" fill="#fff">
            <use xlink:href="#a"/>
        </mask>
        <use fill="#FFF" fill-rule="nonzero" stroke="#95928C" xlink:href="#a"/>
        <g fill="#E7E7E7" mask="url(#b)" opacity=".5">
            <path d="M647 395h-3.5c-11 72-59.5 126.5-120.5 126.5-96 0-137.5-95-137.5-182 0-84.5 41.5-183.5 139-183.5 43 0 99 31 107.5 130h3.5L625 153h-3.5l-3.5 54.5c-19-34-55-55-93.5-55C422 152.5 378 252 378 339.5c0 90 44.5 187 145 187 68 0 117.5-63.5 124-131.5zM700 254V113h61.5v-3h-126v3H697v141zM996 366.6c44.1 0 77.4 32.1 77.4 75.3 0 42.9-33.3 75-77.4 75-44.1 0-77.4-32.1-77.4-75 0-43.2 33.3-75.3 77.4-75.3zm0 34.8c-22.5 0-39.6 16.5-39.6 40.5 0 23.7 17.1 40.2 39.6 40.2s39.6-16.5 39.6-40.2c0-24-17.1-40.5-39.6-40.5zM843 55h173.4l-45 282h6L1023 49H838.2C804 233.2 762.6 334 705.6 334c-6.6 0-13.8-.6-21-3.6l-1.2 6c7.8 3 14.4 3.6 22.2 3.6 61.2 0 103.2-103.8 137.4-285zM576.583 674l44.082-43.608L614.029 674h46.926l18.012-113.76h-39.579l-44.319 43.845 6.873-43.845h-46.926L537.004 674zM863.3 543c0 21.35-11.2 43.05-40.95 43.05-20.65 0-36.05-2.1-51.8-2.1-21.7 0-33.25 9.8-33.25 25.55 0 7.35 2.45 15.4 7.7 23.45l1.75-.35c-3.5-18.2 4.2-23.8 23.45-23.8 9.45 0 26.95 2.45 39.9 2.45 48.65 0 57.4-23.8 57.4-68.25h-4.2zm-16.8-102.55c0-10.15-.7-21.35 1.05-28.7 2.1-9.45 4.9-10.85 12.25-14 2.8-1.05 5.25-1.4 7.7-1.75v-1.4h-72.1v1.4c2.1.35 4.9.7 7.7 1.75 7.35 3.15 9.8 4.55 11.9 14 1.75 7.35 1.75 18.55 1.75 28.7v61.95c0 10.15 0 17.15-1.75 22.75-2.8 9.45-9.8 12.6-25.2 12.6h-6.65c-13.65 0-21-2.45-24.15-12.6-1.75-5.6-1.75-12.6-1.75-22.75v-61.95c0-10.15 0-21.35 1.75-28.7 2.1-9.45 4.55-10.85 11.9-14 2.8-1.05 5.6-1.4 7.7-1.75v-1.4h-72.1v1.4c2.45.35 4.9.7 7.7 1.75 7.35 3.15 10.15 4.55 12.25 14 1.75 7.35 1.05 18.55 1.05 28.7v56.7c0 30.45-.35 37.1-13.3 42.7-2.8 1.05-5.25 1.4-7.7 1.75v1.4h161v-5.25c-2.45-.35-4.9-.7-7.7-1.75-12.25-5.25-13.3-9.45-13.3-38.85v-56.7z"/>
            <path d="M866.772 323.128c-.36-.742-.847-1.794-.927-2.63-.41-4.261-.256-8.672-.095-13.098.137-3.753.241-7.699 2.737-10.759 4.332-5.334 10.762-8.537 16.725-11.695.933-.493 2.318-.995 3.482-1.664v7.443c0 7.248.397 14.574-2.86 21.367-1.458 3.038-3.227 5.321-5.636 7.681-1.258 1.233-2.279 2.126-4.095 3.176-1.496.866-2.799 1.396-4.483 1.736-1.44.29-2.884.486-3.959-.51-.282-.261-.725-.707-.89-1.047m68.229 6.64c-2.359.798-5.13.227-6.977-1.434-2.443-2.195-2.261-5.08-2.261-8.057V265.842c0-5.767-1.826-9.305-3.739-12.646-2.266-3.959-5.45-7.386-9.153-10.05-7.537-5.416-16.666-7.593-25.772-8.522-9.212-.94-18.61-.985-27.685 1.042a59.56 59.56 0 0 0-3.26.822c-12.017 3.388-22.374 12.987-21.264 26.344.795 9.567 10.658 15.664 19.743 14.81 9.756-.919 18.947-9.732 15.08-19.896-.797-2.1-1.539-3.789-3.867-6.07-1.5-1.468-2.815-2.453-4.251-3.674-1.424-1.21 3.741-3.764 4.858-4.098 10.15-3.04 22.242.595 22.242 11.233v12.407c0 2.618-.88 4.737-2.8 6.598-5.799 5.617-14.242 6.474-21.737 8.18-12.604 2.87-26.59 6.845-32.602 19.458-4.075 8.544-3.35 19.491 2.709 26.932 4.71 5.785 11.909 8.581 19.18 9.374 7.312.796 14.96.463 21.71-2.687a32.196 32.196 0 0 0 8.376-5.671c2.604-2.45 4.432-5.3 6.36-8.269-.014.024.789 1.32.852 1.45.405.822.775 1.651 1.236 2.448 3.565 6.178 9.773 10.171 16.562 12.066 6.474 1.808 13.168 1.87 19.557-.406 3.224-1.148 6.261-3.66 6.903-7.248"/>
        </g>
    </g>
</svg>
