<svg xmlns="http://www.w3.org/2000/svg" width="692" height="390" viewBox="0 0 692 390">
    <g fill="#F3F3F3" fill-rule="nonzero" stroke="#95928C">
        <path d="M473.988 83.93l1.485-1.435.91 1.065h.48l1.197-1.158 1.102-1.25 2.107-.926 1.533 1.111-.862 2.316v1.297l-1.006.972-1.58.695-1.725.649h-1.724l-1.294 1.25-2.06-.694-1.054-1.483-.479-.648-.192-.741 1.438.648.718-.695zM467.652 94.003l1.19-.478h.993l.991-.956-.495-2.009h-1.587l.397-1.721v-1.244l-1.29.383h-3.175l-1.042 1.004-1.637 1.1-1.19-1.148-2.878.86.199 1.723.744.718 1.091 1.051.745.717-1.092.862-1.488-1.243-.794.764-1.091-1.052-2.48.479-1.092-.574-.496 1.243.794.765-1.488.766v1.816l1.19 1.148-.298 1.34h1.092l1.39 1.34-.398 1.53 1.786.86 2.38.096.993.956h1.786l2.083-.574v-1.53l-1.29-1.148.695-.67 1.042 1.005 1.835-3.204 1.736-1.674.745.717 1.587-1.53.496-1.435-1.786-.574-1.19 1.148-1.488-1.052-1.786-1.053-1.786-1.243.595-1.243.943-.909.744 2.439 1.14 1.1zM469.873 105.19l-.889.727.69 1.82 1.136 1.047.938-1.684v-1.364l-.691-.637zM474.358 111.192l-.676 1.598.58.6.867-1.898 2.218-.5 1.93-.799 2.604-1.598-1.35-2.597h-1.833l-2.604-.9-1.206 1.15-1.11 1.148-1.11 1.15.628 1.547zM451.02 102.497l-.829-.975-1.474-.108.968 1.138.598 2.547h1.198v-1.41zM403.615 140.105l-1.046.206-1.756 1.893v1.28h1.471l.476 1.228 1.234-.614 1.425-1.536v-2.457zM467.142 73.093l-.527-1.158-.395 1.158.428.684zM461.08 114.662l-1.695-.35-.535.438.981.438 1.248.966.535-.702zM383.31 116.537l-.638-.383-.283.46.638.46zM377.914 107.862l-1.053.553 1.474.645 1.053.645 1.158-.276-.316-1.198-1.158.276zM374.258 102.231l-1.188.49-1.188-2.056-.891-.88-1.089 1.272-.692 1.86v-1.37l.099-2.448-.693-1.37-.99.098-1.385 1.663.099 1.469-.594.979.396 2.643-1.188 1.174.099 2.643-.594 2.251-.495 2.252.891.489 1.88-1.469 1.09-.684 2.474-1.272 1.98-.197 2.474-1.86 1.187-2.25-.792-1.958zM359.757 92.863l-.87 1.089-.773 1.484-.676-.297.483-1.88V91.28l-2.126.693s-1.256.297-1.546.396l-1.74.594-.676 1.484-.387 1.285-.87 1.089.29 1.286-1.642 1.286.773.692 1.16-.396.966 1.385.096 1.286.87 1.088 2.223.198.29 1.286 1.546-.99.773 1.287 2.125.791 2.03-.99.967-1.385-.773-1.583-1.257-1.78.967-.693.386-1.682-.483-1.88.193-1.88-2.32-1.284zM358.322 122.602l-1.152 1.382-1.497.345 1.382 1.037 1.382-1.382zM343.697 121.746l-1.267-.065-.576.526.806.395zM331.59 148.397l-.79.576s.329 1.44.329 1.248c0-.192.592-.384.592-.384l-.131-1.44zM324.351 141.772l-.575-1.667-1.267.79.69 1.053zM323.634 152.081l-.204 1.014h1.74l.921.829.103-1.383-1.024-.184zM317.508 94.965l-.527.615.614.409.965.819.264-1.024zM311.307 162.466l-.774.754.442 1.005.774.754 1.105-.922.442-1.088-.994-.754zM305.162 168.664l.882-.691h1.372l1.274-1.037-1.176-1.036-1.176.26-1.078.95-1.176.863zM302.995 154.845l-.753.867.502.976 1.005-.868 1.256.434-.335-.975zM300.4 160.28l-1.301-.829-.542 1.198.867.645zM290.207 155.83l.98.108v-1.071l-1.568-.429.784-.964-.883-1.393-1.077.429-.392-.108-1.078.857.392.965-.784 1.178.195.75 1.765.536zM245.97 167.742l-1.535.756-1.152.378.288 2.457.192 1.323 1.055.283.384 1.984 2.016.19.671-1.607-.96-1.606.097-1.795zM214.725 163.205l-1.323-1.733-.095-1.444-1.7-.577-2.078.577-1.23 1.637-.944 1.251.661 1.829 1.513.578 1.416.577 1.324-.962 1.606.289zM258.83 121.886l1.169 1.166h1.46v-1.457l2.144.777 1.071-1.166 1.072-1.263h1.364l2.337-1.068 1.657.582h2.435l1.607-1.603 1.9.146.876 1.263h2.046l.974.972 1.754-.486h2.435l1.607-1.603 1.9-1.02 2.532-.972h2.338l1.364 2.138v2.331l-2.046 1.847-1.85 1.748-2.436.195-2.922 1.36-2.63-.971-1.267 1.263-3.02-.097h-3.896l-1.461 1.554h-3.02l-2.24 1.263.682 1.555-1.56.583-1.85-.194h-1.655l-.196 1.069-1.753-.487v1.75L260 134.324l-1.462 1.069v-1.652l-1.169 1.069.293 1.943h-1.17l-.827-.826V138.308l-.852-.85-1.096 1.092-.926.924h-1.267l-.974 1.263-1.266 2.137h-2.045l-1.657 1.36v1.847l-1.656.68-.584 1.944-1.364 1.36v2.43l-.682 1.748.877 2.526-.78 2.527 1.072 1.651.487 1.75-.584.583-1.656.777v-1.263l-1.559-.875h-1.071l-1.17-1.749-.68.389-2.046-1.944-1.56-1.651.586-1.75 1.558-.485.584-.971-1.071-.875.098-2.332-.683-.194-.682-1.75-1.46-.097-1.17-1.651.39-2.138 1.558-2.138 1.852.194.584.68.682.292.292-1.263 2.24-.68 1.754-1.846-1.169-1.263 1.559-.972 1.753.68.487-1.458v-1.457h2.24l1.072 1.069 1.12-1.117.244-1.02 2.435-.487-.828-.825-2.094-.73v-.776l2.435-.681 2.533-.68 1.266-1.263h1.656v-1.166l2.338-.098-1.266-1.263 2.045-.097.78.778-.098-1.944.974-.972-1.071-1.263zM325.799 82.068l-.878.2-.57.646.878.997 1.184-.448.702-.797zM344.526 80.3l-.83.678.646.526.691.564 1.428-1.09v-.752zM348.395 85.042l.858.889-1.13 1.171-.741 1.495 1.013 1.455.39 1.455 1.793 1.616 1.637-1.616h1.091l1.637-.97 1.949-.647-.546-1.939v-2.424l1.17-1.05-.975-1.011-1.988-2.06-.701-1.617-1.715-.485-.234 1.617-1.403.646-2.105 1.455zM349.057 93.7l-2.094-.433-1.424-.144.252 1.59v1.01l1.842.434.754.65 1.13-.975.629-1.409zM327.115 134.315l-1.31-.658-.533.427.696.494zM301.237 66.407l-.838.23.67.845v.768h1.173V66.79zM300.634 73.924l-.549.811-2.038.369-1.333.663 1.02.442-.47 1.032.861.22h1.725l1.372-1.29 1.02-.957-.353-1.437zM294.466 72.495l-.515.44.983.842 1.78-.56v-1.282h-1.03zM295.365 75.344l.428-1.225h-1.168l-1.751-.038-1.13-1.225-.856.817-.622 1.189v1.486l1.323.222.312.892 1.634-.372 1.052-1.003zM288.15 80.226l-.648.63v1.212h1.344l.498-1.551zM285.334 77.654l.708.73 1.651-.406.472-1.133 1.18.404-.63-1.457-1.061-1.094-1.534 1.175-.55-.567h-1.73v1.215l-.944.971.55.567zM296.714 63.746l-1.303-1.024-.54.983.945.86zM293.49 64.565h-1.382v1.353l1.468 1.279v1.053l1.296-.527-.777-1.429zM284.44 70.092l.298-.921h-.758l-.163.19zM287.502 72.764l-.989-1.75-.853.874.853.968zM287.305 67.328l-.724.123v.799h.921zM288.623 70.293l-.2-.2v.92h.921zM289.344 72.344l.33.512.592-.921zM291.187 68.25h-.921v.86l.92.06zM289.822 65.486h-.478l.478.921.444-.46zM278.792 72.208l-.502.56.87.971.972.038v-1.793l-.67-.97zM281.975 71.145l-.922-.132.307.922h.615zM273.255 66.686l-1.315.764v1.018l-1.625-1.273-1.238.51.387 2.036 1.16-.425v1.358l1.238.34 1.122-1.231 1.586-.721 1.315.424h1.934l1.392-1.527-1.315-1.443.89-.976-1.509-.975-.773.594-.774.848v.934l-.89.975z"/>
        <path d="M272.689 64.715l.773.771 1.462-.6.602.6v-1.285l-.988-.986h-.904l-.773-.3h-1.892l-1.118-1.114-.774 1.543.99.985.386 1.157zM274.605 71.935l-1.097-.922h-.746l.264.853zM274.374 72.856l-.69.829.537.645 1.305.368-.844-1.013zM281.975 62.935l-1.843-.213v.922h.921zM562.533 44.784l.857-3.112 3.27-3.166 3.645-3.649 1.662-1.663 3.217-1.395 2.304-1.341 2.144-2.146 2.198-2.2 2.68-1.074 1.93-2.79 3.645-1.073 1.93-2.04 2.359-1.073 1.5-.858 1.716 1.717 2.465-.751 2.198 1.663 1.448-1.449 2.573-1.395V15.7l-2.573.536-3.002-.214-1.93-.536.643-1.932 2.037-1.395-1.715-.43v-.966l1.18.108.214-1.931 1.072-1.502 1.5-1.503 2.574-.965h.75l1.93-2.684s1.822-.536 2.466-1.18c.643-.644 0 1.824 0 1.824l1.393 1.18 1.072 1.074-1.179 2.468s1.608 0 2.251-.644c.644-.644 0 1.288 0 1.288v2.253l-2.465 1.61 1.93.322 1.179-1.18 2.52.966V11.14l1.982 1.985 1.394 2.147 1.18-.322 1.178-1.502v1.395l.751 1.717h-2.251v.859l1.822.536-.965 2.79-2.465.214-2.252 2.468-1.179 2.576-2.251.751-1.608-.644h-2.037l-1.823 2.684.804 1.61v2.736l-1.769 1.77-1.394-1.073-1.393 1.073h-2.037l-1.18-.965-1.071-.644-.161 1.02.804.804-.965.43-.643.643 1.876.322v1.449l1.447 1.449 2.359-.644h1.608l.106 2.04.965-.967 1.663 1.664 1.768 1.77.858 3.113.429 2.468-1.716 2.79h-1.608l-2.251.966-.75 1.716 1.822-.751h1.18l-1.716 2.04 1.072 1.072 1.394-.536v-2.04l1.286-.965 2.305-.054 1.34-1.34.644-1.074 1.608.107 1.287-.214 2.358-.108v1.503h1.93l.536-1.02h1.876l1.125-1.126 1.394-.215 1.18.966 1.715-1.288.804 1.878 1.555 1.557v2.253l-2.145.859-1.393 3.003h-2.252l-.643.966 2.519 1.663-.804.805 1.823 2.79.75 3.435v3.863l.643 3.005 1.072 2.576.537 3.434 1.072 3.327 2.037 1.824v3.112l1.072 4.293 1.822 2.039 1.18 1.18-1.823 1.61-1.93-.966-2.68.858-1.393 3.22-2.252 3.22 1.18 1.18-.858 3.005v1.61l1.822 2.79v1.717l-2.037-.966-1.5-1.503-1.287.108 1.179 3.112v2.039l1.983.912-1.983 1.986h-1.286v2.79l-1.18 1.18 1.609 2.683 1.286 1.288 1.5 1.502 2.038 2.039.428 3.005.322 2.361 2.949 1.556 1.768 1.77h3.002l-.804-1.824v-.912l1.019-1.02.75-1.609 2.788 2.79.535 2.468 2.788 1.932 2.76.617 1.1-1.1h1.768l2.09 2.092-.857 2.04-2.144.644.643 2.575 2.252 3.756 1.983.483 1.555 1.556 3.644-.43 2.145 1.718.75 1.932-1.287.858-1.822 1.18-1.072 2.361.75 4.293 2.144 3.327 1.877.697.911.913 3.109.751v1.288l-2.359.322v1.932l-.857 1.931 1.072 3.864 1.822.751 2.787 2.79 2.038 1.932.429 3.434 1.071 4.507.537 2.897v2.147l-1.18-1.61h-3.109l-1.983-1.02-1.555-1.556h-2.143l-1.93-1.931-3.753-1.718-3.538-1.502-4.073-2.146-1.18-1.61-1.93-1.287-2.144-.43-4.61-1.395-3.001-1.61-2.895-1.932-1.394-2.575-3.109-3.112-2.144-2.254v-2.253l-1.5-1.503-.323-2.468-1.822-2.575-1.984-.43v-.912l.912-.913.75-1.61-1.018-1.77.965-.966.804-.805-1.072-3.22-.536-3.433-1.286-3.97-2.038-2.684-.857-3.541-.965-3.327-1.072-2.683-1.287-3.971-1.286-1.074-.108-2.146.751-2.575v-3.327l-1.286-1.288-1.394-2.683h-1.394l-1.34-.483-1.233-1.234-1.5-1.932-2.252-1.395v-2.468l2.037-1.93-.697-.699-1.662 1.663-2.358 1.288v2.254l-.643 1.717 1.286 1.18 1.876 1.878 1.769 1.771h2.144l-.214 1.395-.965-.107-1.018 1.449 1.34 1.34v3.435l1.072 2.575.214 4.078-.75 2.47-.858-2.146-1.93-.966v2.683l-1.607-1.61-1.073-1.073-.858-1.824-3.001-2.79.857 2.361-.857 2.576h-2.895v1.717l-.965 3.541-1.18 1.396.108 4.721 1.93 1.288-.322 3.005 1.93 3.005v3.22l.59 4.238 1.769 1.771v1.932l1.5 1.502 1.394-.214 1.233-1.127.911-.913h1.608l-.107 2.04-1.715.536v2.897l-3.216.537.75 3.756-.322 1.61-2.036.857v2.254l-.751 2.039s-2.52.59-2.037.107c.482-.482-.965-.965-.965-.965v-1.396l.429-1.395 1.769-.59-.804-.805-1.93.751-2.037.322v.966l-3.001 1.395-1.502 1.824-1.715.43-1.394 1.395-.535 1.61.535 2.039 1.18 1.18-1.394 1.503-2.251-.859.697 2.307-1.662 1.663-1.501 1.396h-1.287l-1.286 1.18.858 1.395.643.644-1.823 1.18h-2.465l-2.413 2.415-1.554 1.556-1.716 2.898-1.822 1.824-1.822 3.649-.322 3.541 1.715 3.434-1.608 1.61-.535 3.434.964 2.468 1.501 1.502-1.286 2.146v6.761l-.644 2.683v3.65l1.073 1.18V245.891l-.965 3.65v3.004l-1.608 2.683v2.683l-.858 2.361.964 2.173h1.636l1.259-1.26h1.768l1.395-1.396 1.554-1.556 1.072 1.073 1.287.644v1.395l1.019 1.878 1.286 1.288 1.126-1.127v-1.717l-1.502-.643v-1.61l1.18-1.288v1.073l1.287.966.643-.215.643.644v3.327l2.144-.858v-1.073l1.18-1.61.75-.644 1.179.859.268-1.771-1.018-1.02-.965-1.824-1.18-2.146 1.93-1.073 1.18-1.18 2.358-.537h2.788l2.304.268 1.019 1.02s2.466-.43 3.002-.43c.536 0 2.036-.644 2.036-.644l1.34 1.341-1.018 1.02-.75.751-.643 1.181h3.752l.429 1.395 1.608 1.61 1.984-.268 1.018 1.019 1.071 2.04.322 4.077 1.394 4.293 2.197 3.165 2.734 2.737 1.072 1.074.536 1.823 2.145 2.147 1.5 2.575.537 1.503 1.983 3.059 1.662 1.662v4.508l-.644 3.863 1.18 3.863-.107 3.97 1.179 3.113.857 3.435.643 3.11.644 4.186v4.079l-.644 2.146v9.336l-.643 3.864.643 3.97-.214 5.151v2.47l-2.144 3.54-1.394 3.005-1.608 3.006h-1.394l-2.68 1.072-2.25 1.288-1.556-.644v-1.45l-.804-.804-.804 1.825v1.984l-.911-.911-1.393-1.395v1.073l-.43 2.682.43 1.825-.59 2.092-.912.912V372.418l-2.036-.107-.858-.859.75-2.469 1.287-2.575v-2.146l-1.126-2.522-2.305-2.307-1.18-1.18-.964-2.47-2.037-2.038-1.93-.644-.053-2.093 1.34-1.341 1.18-1.18v-2.147l1.5-1.503 1.715-.857 1.77.59 1.554-1.556.965-1.932-1.716-2.684.858-2.253-1.072-2.36-.215-2.47-1.5-2.038.429-1.717-1.18-2.04-.536-2.36-2.144-2.254 1.608-1.61v-2.361l-1.34-1.34-1.554-1.558-.43-1.394h-1.822l-2.573 1.394-.643 2.147-1.715 2.79-1.93 2.468.858 2.684-2.251 1.823-2.252 1.288-1.93.644-.536 1.932h-2.037l-2.037-1.18-1.5-.537v-2.468l-1.716-1.502-1.394-1.396-2.305-.59-1.233 1.234-2.465-.644-2.037-.536-3.11.43h-2.894l-1.179 1.18-3.216 1.18-3.216-.644-1.34-2.629-1.555-1.557s-1.822-1.072-1.822-1.502c0-.43-2.037-2.039-2.037-2.039l-2.573-.429-1.073-2.575-2.466-1.932-1.715-1.717-2.358-.644-.858-2.253-2.144-.966-1.287-1.288-4.288-.43H530.8l-2.573 1.396-3.216-.537-2.467.859h-2.68l-3.645 2.682-1.715 1.717-3.377 1.986-1.662 1.664-1.179 3.541-.858 2.145 1.18 1.503 1.661-1.342 1.34 1.342 1.502 1.503.857 3.433-.857 1.825-.644 4.614v2.898l-1.18 3.006 1.609 3.11.965.967v3.005l-2.252.644-1.447 3.38-2.09 2.093-3.538 1.288-3.967-.322-2.894-.537-2.144 1.288-3.002 1.717-2.252-1.18-2.037-.752-2.68 1.18-2.25 2.254-1.609 1.61-.911 3.165-1.877 1.88-2.465 1.716-3.43 1.61-2.628 2.63-1.34 1.34h-3.43l-3.11.966h-4.395l-3.216.43-2.895-.966-.858-1.61-1.5-1.502h-4.074l-3.752-.538-1.501-.965-4.932.698h-3.056l-2.519 2.521-2.787.644-2.68.752-3.86-.322-2.625-1.127-1.662-1.663-1.555-3.274-1.983-1.985-2.788-1.072h-2.68l-3.055.803-2.09-2.091h-4.182l-2.466-1.825-1.233 1.234-1.662 1.664-1.34 2.736-1.447 1.449-.429 2.79 1.34 1.61v2.414l1.876 1.879v2.575l-2.519 1.664-2.412 2.415h-5.146l-2.894-.753-3.002.537-2.144-.643-3.11-1.074-1.715-1.717-2.037-2.039-2.465-.75-2.895 1.18-1.823-1.826-2.305-1.018-1.876 1.877h-2.358l-.75 2.254h-2.788l-3.538 2.254-2.144 2.146h-2.144l-.43 2.254-2.518.59-1.77 1.77-3.215-.106-2.68 1.501-1.395 1.396-3.109-.537-.964-1.61-1.18-2.146-.59-2.2-1.66 1.664-2.788 1.073-2.573-.86-2.895-.75v-2.576l-2.251-1.394-.857-1.932-1.823-1.18-.429-2.576-1.5-1.395-2.01-.885-1.314-1.315h-2.734l-1.34 1.34-2.68.431-1.073-1.074-2.358.429-1.287-1.288-1.179-1.18v-1.61l-1.179-1.394-1.716.536-1.18 2.468-2.358.43-1.394-2.79-.75-2.469-.536-2.79-1.823-3.22v-2.575l-1.715-1.61v-3.542l-1.287-4.292-1.822-1.825-1.179-1.18-1.233-2.629-1.34-1.342-1.822-.75v-1.932h1.5l1.287-1.717-.536-1.503h-1.93l-1.608 1.61-2.251.107-1.662.054-1.769 1.77-3.002.86-2.573 1.394-1.18-1.716-2.25 1.073h-1.823l.643-2.898 2.573-1.18v-1.502h-2.144l-1.93-1.181-1.178 1.18-2.144-.643.696-2.523-1.554-1.556-2.144 1.288-2.36-.644-.589-1.877 1.34-1.342v-2.039l.536-1.503-.857-2.682-1.608-.752h-1.93l-.965-1.932h-2.68l-2.144-1.288-2.359-.215-1.286 1.825h-2.68l-2.36.644-1.93-1.073-2.358.43h-2.895l-2.787-1.45h-1.126l-1.233 1.234-2.144.43-2.037-1.074h-1.822l-2.466-.75-3.645.106-2.68-.536-1.93.536-1.716-1.501-2.465-1.288h-2.251l-.751 2.36.75 1.61-1.5 1.503 1.179.75 1.179 1.182 1.447 1.448-1.34 1.341h-1.5l-1.823-1.824-2.787.107-1.822.751.75 2.684-.75 1.932-1.822.535-2.144-.535-.858 2.253.697 1.556 1.5 1.503 1.019 1.018.429 1.825 1.5 1.503-1.5 2.039-1.394 1.394h-2.359l-2.412.161-1.233-1.234-.858-1.744h-1.098l-1.153 1.155h-1.876l-2.09-2.093-.403-1.207-1.58-1.584v-2.736l-1.341-1.342h-2.466l-2.037.752-.75-1.61-2.038-1.61-1.822-.965-2.466 1.18-2.251.323-1.823-.537-1.286-2.47-1.822-1.609-1.287 2.147h-1.394v-1.717l1.287-1.288-.858-1.824-1.072-2.79-.429-2.898-1.608-1.932-2.573-.966-.75-1.823-1.394-1.396-2.573.43h-1.5v-2.04l-.751-2.146-2.627-.484-1.34 1.342-2.465.859-2.144-1.18h-2.251l-1.073 1.609H113.871l-.537 1.18-1.394 1.395-.214 2.039-2.626-.482-1.555-1.557v-2.146l.697-2.093-1.125-1.127h-1.823l-.751 1.718-1.394 1.019h-2.09l-1.662 1.664-1.394 1.394v1.932l-1.822.752-1.93-.108-1.394 1.396-1.715 1.18.696 2.092 1.555 1.557-.643 2.79-1.394 1.395 1.394.858 2.037 1.932 1.286 1.287-.535 2.791.59 3.648v2.952l-1.126 1.127-1.073-1.181-1.608-.214.215 1.932.911 1.877 1.34 1.342-1.072 1.073-1.823.215H88.248s-1.287.161-2.305.161c-1.018 0-.804-.805-.804-.805l-1.608-.43-.75-.75-1.93-.323v1.503l-1.5.644-1.823 2.145h-2.037l-2.251.644-1.314-.348-1.099 1.1v1.771l1.126 1.127.643 2.038-.536 2.039-.482 1.879-1.233 1.234v.75l-1.072.966-2.36 3.864v3.005l.644 3.649-.429 2.79.214 3.433-2.573 1.181-1.715-.75-2.466.857-2.359-.536-.321-2.04-1.18-3.54-.213-2.576-1.716-1.18v-1.396l-.857-2.254-1.501-1.931.965-1.61.643-1.823-1.608-1.718-.536-1.932-1.822-.214-.375-1.127-1.341-1.341-2.36-.322-1.5-1.503-.429-3.433-1.5-1.396.428-2.146-1.822-1.503-.965-2.467-1.608-.752-2.359-1.61-.75-2.576-1.608-2.467-.536-2.147-1.18-.215-.857-1.072-1.072-1.503-1.394.215-.857-2.576.321-4.936-.429-3.65-.857-1.823-1.073-1.61.215-3.22-1.287-1.18-.857-1.717.643-1.931-.536-2.147 1.18-1.181 1.286-.214 1.715 2.146 1.608.537.751-1.61 1.822-.75 2.466-.109h1.286l1.608.537.322-2.682-.857-1.61.429-1.396 1.286.215 1.18.859 1.286 1.18.965-.966 1.5.644 2.466.322 1.822.752.43-1.932-1.287-.966-1.823-.43-1.179-1.18-1.286-.43 1.608-1.716 2.358-1.073 2.037.858 1.823-.751 1.715 1.825 2.573 2.789 2.359-2.36 1.608-.966-.43-2.362 1.502-1.502 1.5.215-.107-1.718 3.967-.535.75-1.825.858-1.073-1.822-.859v-2.253l-1.716-1.932-.643-2.469-1.608-.966-1.716-1.931.643-2.254-.643-3.327-2.036-1.502-2.36-1.824-.75-2.468-1.608-1.288-.536-1.502 1.394-1.61 1.072-2.361v-2.254l-1.179-2.146-1.179-1.824 1.073-.858.643-1.61h1.286l.965-.858.75-2.898.215-1.717-.858-2.146-1.18-1.181-1.608-.215-1.179-1.287-.965-1.396-1.447 1.234-1.126-1.127-.965-1.61.965-1.717 2.037-2.039 1.394-1.61.536-1.931 1.608-.108 1.18 1.288.643 1.61 2.143.752 2.038-.644.535-2.146.644-2.361-1.608-1.61 1.072-.752-.108-1.824.644-2.575 1.179-2.79.857-2.361 2.144-.644.75-1.61 2.038-1.717v-3.65l-1.822-1.716-2.038-.536.644-1.61.536-1.717-1.501-1.502-.965-2.147.322-1.502 2.037-2.039 1.179-2.146-.536-1.932 1.716-.43 2.573-1.609v-2.254l1.072-1.287 2.68-.108 1.179-1.395.107-1.61 2.251-.858L80.1 174.1l2.465.107 2.144-1.288 2.895.644.429-1.61.965-.965 1.822.858 1.5 1.61 2.36.75.858 1.932.857 2.146 1.287-1.287-.215-3.112-1.93-1.718v-3.649l1.716-.428.536-.537-2.359-.966-1.394-1.61 24.015-.107 4.502-1.61v-2.79l.75-7.082h3.003l2.573-2.04v-2.79l1.93-.751v-3.649l1.715-.107 3.752-3.005 1.823.858 3.966-7.405.269-1.985 3.27-3.273h5.467l1.715-3.005v-5.795l3.43-1.717 4.503-2.254 3.11 1.18h1.822l1.5 1.503 1.842-1.284-.448 2.25 1.822-.215 2.573.107v1.718l.536 1.931-1.179-.751-1.233-1.234-1.126 1.126.536 2.04v2.039l1.823.966 1.394 1.395v2.254l1.554.751v2.522l1.77 1.77.857 3.006v3.112l-.536 2.683.643 1.502.053 3.273 1.877 1.878-.108 2.361-.429 3.864-1.876 3.273-2.841 2.844h-3.002l-3.324.644-2.895-1.074-3.162-1.77-1.98-1.986v-2.898l-2.038-2.039-.965-2.253-.75-2.147-1.394-2.36-.75-3.971-1.501-.644.482-2.414 1.233-1.235-1.5-1.502-.697 1.878-1.018 1.02.429 2.36.053 2.737-1.179 1.18 1.555 1.557-.43 2.36-1.5 3.328-2.626.805-2.09 2.092-.805 3.81-1.983 1.985.643 2.254.965 2.79-1.555 2.737 2.198 2.2 2.357 2.36 2.68-1.931.536-2.683-1.393-1.395.214-2.361v-1.824l1.822-1.932h1.822l.644 4.83.59 3.165 1.876 1.878 1.179 2.468 3.055.913.912-.913-.75-1.824 1.821-1.502.108-3.756 3.323.537 3.11-1.18 2.572 1.395 2.895-.913h1.983l1.234 1.233 1.822 2.79-1.5 1.502v2.362l1.34-1.664 1.876-1.878 2.573-.536 2.143-3.112v-2.683l.858-1.824 2.787-1.396v-1.717l2.68-1.61v-2.683l-.429-2.575h1.823l.59 1.34 2.412 2.415 1.822 2.79v3.756l-.643 1.932-.965.966-1.608-1.61-2.252-.536-3.43 1.18v2.79l.858 2.576v2.146l2.465.644 2.359 1.073 2.68-1.288v-1.932l2.787-.643 2.68 1.287-.428-1.717 4.18.751 2.252-.429 4.074.536h2.359l1.179 2.146h1.072v-1.931l3.43-1.074h1.824l.75 2.79h-2.036l-.644 1.932-1.608.536 2.466 2.254h1.715l3.216-1.395 3.056.59 3.324 3.327 1.125-1.127h2.252l2.84-.912 1.126 1.127-.321 1.502-1.716 1.18v1.824l2.037 1.718.161-1.985.912-.913 2.144.536v-1.717l2.037-.322.429-2.575-.322-3.112 1.93-.966 1.661-.483 1.984 1.985.857-.858 2.198 2.736 2.52 2.523 2.037 2.039 1.34 2.736 2.52 2.522 1.715 2.683 1.822 2.469v2.146l1.5 2.363 2.144-1.287v-2.254l2.466-2.254-1.716-.536-1.179-2.79.43-3.005-2.038-1.395-1.126-2.307 1.018-1.02 2.144-1.073v-1.717l.536-2.576.965-1.288v-1.61l-1.394-.429.75-2.146 1.18-1.502 2.144-.752 2.305-1.126.804-.805 1.822-1.824 1.394-3.112 1.072-2.576 1.18-2.576 2.036-1.073 1.287 1.824h2.573l1.286 1.288h2.252l.965 3.649-1.073 1.073-.482 3.917-3.056 3.059-.857 2.79 1.822 1.61-.643 3.648-.536 2.898-2.144 3.22-.75 4.614-1.18 4.078-.857 2.039.804 2.844 1.877 1.878-.322 1.718-2.359 1.824-.429 3.97-2.359.644-2.787 2.79-1.608 2.362-1.5.858-2.681-.536-1.608 1.073-1.77-1.127-1.125-1.127-1.608-.536v2.04l1.608 2.467 1.608.752 2.144 1.502 1.823-.108 1.286 1.824h1.93s.804-1.448.375-1.878c-.43-.43 1.125-1.127 1.125-1.127h1.394l.644-.644 2.68-.75 2.144-1.181v-2.254l.965-.966 1.661-1.663 1.34-1.341.643-2.576-.535-2.253-.215-2.04 1.448-1.448 1.447-1.449h2.251l2.466-.322.697 2.093 1.018 1.019 1.286 3.327-1.713 1.716.108 2.576v1.61l2.144 2.145 2.465.537v-1.502l-2.412-.698-.911-.912v-1.288l-.215-1.932 1.716-.536.643-1.395-.643-2.04.75-1.717-1.072-2.146-1.394-1.288-.857-.858-2.626-.912-1.501-1.503-1.233 1.235-1.608.751-.858-1.18h-1.93l-.321-2.04 1.286-1.287-.321-3.434 1.5-2.361.965-2.79 2.144-2.146-.75-2.361-.644-2.04.269-2.199-1.555-1.556 1.715-1.718 2.68-2.683h2.252l1.287-2.039.857-2.254-.75-1.824.75-1.61h1.716l-.536 2.254v3.112l-.43 2.79-1.929 1.932v4.615l2.251 1.717 1.287 1.073 1.661-1.02 1.662 1.664 1.822 1.717v-1.287l-.696-1.664-1.234-1.234-1.93-.966v-.858l-1.607-1.61-.75-2.362 2.25-1.502 1.073 1.074 1.716 1.717 1.286-1.18-.429-1.396-.16-1.234 1.233-1.234 2.143.43 1.77-.27 1.447 1.45 2.787 1.502-.75 2.146.696.697 1.876 1.878h2.895l.429-1.717-1.18-1.61.108-1.502-2.037-.751-1.5-2.468-.859-.859.643-2.575.965-2.146-.857-.859-.536-2.683 2.144-1.932h5.039l2.572.966v-.644h4.182l2.787-1.18h2.036l1.073-1.073-1.073-1.61-1.286-.43-1.073-1.073 1.234-1.234c.804-.805.804.805.804.805l1.286-.322-.857-.966.59-1.341-.912-.913 1.072-1.502 1.501-1.18-1.5-.108-.108-1.61 3.002.108 1.179-2.468 2.948-1.127 1.126-1.127 4.02-.59 1.018-1.02 2.895-.858.643-.751-1.93-.644 1.073-1.073 2.787-.644 2.359-.322.535-1.18 1.93-.322-1.018 1.931v1.557l1.34-1.342 3.324.107.322-1.717 2.144-.43 2.144.43-.965-1.288-1.287-.966-.643-1.18h2.359l2.465-.751h.75l-.213-1.824-.858-.644v-2.576l.536-1.717 1.608-3.971 1.93-1.395 1.715-1.824 2.144 1.287 1.609-.214.482 2.2-1.662 1.663-1.393 1.824 3.403.188.67-.67h2.09l1.555 1.556-1.393 1.395s-.108 1.395.535 1.395c.644 0 2.36.752 2.36.752l.535-1.824-.965-.966 2.359-1.288h2.144l2.198-1.556 1.233 1.234 1.661-.805 1.234 1.235 1.071 2.146 1.287 1.073.75-.858 1.126 1.127 1.447 1.448-.214 2.254-2.144-.43.858.859 2.144 1.18 1.34 2.307-1.233 1.234v2.146l-1.072 1.502-1.019 2.093-1.233 1.234-2.144 2.576v1.073l-.643 3.005-1.608 1.61-.643 3.327-2.573.644-.804 2.414-1.77 1.771-.428 2.79-.536 1.932 1.93-.859-.43-2.146 1.93-1.18s1.716-.536 2.68-.536c.966 0 1.287-1.932 1.287-1.932l1.823-1.502 1.715-.644 1.018-1.985-.804-.805-1.286-.108.107-.86-.107-1.716 1.608-.108h1.286l1.823.43 2.144.858.429-1.288 1.34-1.878 1.126 1.127v2.146l1.286 1.824h1.501l-1.5-1.394 1.018-1.02 1.983-1.985 2.68-1.395 4.074-.751 3.216-.966.805 1.234-.75.752 1.768 1.77h3.323l.107-.858.322-1.18 1.287 2.039 2.25-.858 2.252-1.932s2.359-.43 2.895-.43 0-1.931 0-1.931l-.322-2.146-1.608-2.468.43-2.468.32-1.288 1.287 1.288 1.34-1.02 1.126 1.127 1.715 1.18.429-1.287.858-.217.857.966.858-.644s-.107-1.985.697-1.985c.804 0 1.018-1.02 1.018-1.02l2.36 1.825.75-.751 2.572.858-.857 2.629h1.232l1.233 1.234v2.04l2.037-1.288 1.073 1.073v2.361l-1.394.43-.858.857 1.5 1.502s1.18-.536 1.18-1.073c0-.537.965.966.965.966v1.717l2.198-.054 2.09 2.093 1.608 1.073 2.252.43.965-.966 2.465 1.288.215-2.039-1.072-3.541-.643-1.61v-1.502l-1.394-1.396v-1.931l2.68.322 1.5 1.502 2.36-.644h2.68l-.537-2.79 1.502-2.79 2.787-.644 2.037-.107 2.358.643v-1.61l-2.519-1.126.911-.913 1.18-1.287 2.036.107 1.608-1.61-.75-.429-1.608-1.61-1.823-.966v-2.36l-.75-.645-1.072 2.79-1.286-.858v-2.254l2.358-2.146-.321-1.502-2.252-1.395 1.394-1.395h2.037l3.002-1.503.857-2.468 3.967-1.502 3.109-1.395s.429.43.429 1.073c0 .644-2.037 1.395-2.037 1.395l-.75 2.898 1.822-.859 1.608-1.61 2.037.644-.536 4.185 1.822-1.717v-2.039l-.643-3.434.43-1.502.964-2.683 2.251-1.074 3.217-1.395 1.93 1.395s-.912 1.235-1.609 1.932c-.697.697.75 1.181.75 1.181h2.359l1.501-1.717s1.715 1.824 2.037 2.146c.321.322-.322-2.468-.322-2.468l2.895-1.61 2.037 1.073 2.251-.106 2.037-2.04 2.144-2.683v-3.112l2.68-3.97 2.252-2.254 2.037-2.468 3.537-.537 2.95-.16 1.446 1.448 3.002 3.005 2.68-1.18 1.93-1.556h2.09l-1.018-1.02v-1.503l2.037-2.039v-3.541l.965-1.824h1.608l1.394-1.395v-2.147l2.68-1.931.643-2.576-1.072-1.073.429-1.288-1.5-2.146 1.178-2.147 1.126-1.127 2.037 2.04-1.555 1.556 1.609 1.61h2.465l1.716-.644 2.358-1.074 2.144-.536.536-1.717-.643-1.718-1.18-.214-3.644-1.61-2.68.43-.643-1.502h-2.145v-1.18l.537-2.04 1.93-.966.213-2.253 1.716-.966h1.5l-.643-1.824.644-1.932 1.822-2.684z"/>
        <path d="M579.44 250.653l-1.751.4-.921 1.102v2.903l1.566-.7.83.901.92-1 .369-2.005zM602.93 241.445l-.737.185-.552-1.57v-1.383l2.394.645 1.197.554.645 1.477 1.289 1.291 2.302.462.553 1.476 2.578 1.66h1.38l1.106 1.569.92 2.491 1.428 1.43 2.716 2.814 1.75.462 2.394.922 2.302 2.03 3.131 1.753 2.026 1.753 2.671 1.384 2.302 1.384 1.474 1.199 2.578 1.015-.368 1.2-.92.922-1.75.553h-1.381l.368 1.938-.368 1.383v1.107l1.565 2.4s1.474 1.66 1.197 1.936c-.277.277.093 2.861.093 2.861l1.197 1.2 1.842 1.846 1.565 1.014h2.394l1.381 1.384h1.566l.828 1.753 2.027.092 1.242-1.245 2.165 1.245 1.29 1.661s.46 1.107 0 1.107c-.461 0-2.947-1.2-2.947-1.2l-1.06 1.061h-2.347l-.737 1.892.46 1.845 1.474 1.476 1.105 2.4-1.474 1.199-1.197-1.476-1.565-1.57-2.763-2.582v-1.754l-1.841-1.844-1.75-1.753-1.197-1.568-1.474-2.861-1.841-1.753-1.934-1.107-1.842-.553-1.566-3.322-3.407-4.705-2.763-2.768-2.301-2.306-2.027-2.768-1.29-2.122-3.498-1.569-2.763-1.199-1.658-.185-2.21-3.044v-1.384l-2.394-2.4-1.29-2.398-2.578-.83.645-1.845v-1.384l2.118.645.368-1.845-1.243-1.245v-.692l-1.22-1.224-1.773-.622zM681.788 289.639l.368 2.057.184 1.961.738.294v-1.568l.552-1.275v-1.764zM689.158 291.3l-.922-.113v1.035l.922.807zM686.394 278.195l-.153-2.193-1.306-.476-.384 2.478.5.618-.422 1.86.153 2.859.921.476.308-1.525-.461-3.048zM687.315 271.758l-.537-.838-.384.418.307 1.424zM689.492 266.314l-1.088-.293.418-2.538-.586-1.56.335-1.66 1.13-1.32.294 1.808-.252 1.854.336 2.147zM639.013 127.724v-2.55l-1.893-.73-1.195.639v2.004l-.199 1.822 1.195.73.797.91.1 1.64 1.593.547-.398-1.64-.698-1.276zM673.589 136.42h2.21l1.383-1.316-1.75-.526-1.752.702-1.657-.614-1.29.438.645 1.317zM677.338 207.097l.637 1.202-.196 1.602-.098 2.047 1.029.935 1.127-.579v-2.136l1.03-.934-.834-1.826-1.371-1.246.097-1.602-.98-.89-.588 1.602-.93.846zM683.63 218.503l-1.842-1.014v1.381l1.083.461zM689.158 245.215V248.81h.92l-.263-1.527v-2.157zM679.485 130.263l-1.382.873.744.678 1.01-.92 1.01-.922zM557.895 27.783l-.931-1.016 1.38-2.03-.242-2.207v-2.626l-1.345-1.086-.828-.315-.724.77-1.586.841-1.293 1.313.12 2.259-.551.56.275 1.82 1.035 1.542 1.069 2.521 1.655.35 1.12-1.138zM24.952 166.07l1.672.376 1.433-.41.546-1.057 1.296.205 1.212 1.21.05 1.655.99.308.205 1.296 1.535.273.341-1.228-.835-.836.716-.716.461.46 1.467 1.228v1.842l-.205 1.604.853 1.399.853.58.307 2.081-.75 1.57-3.583 1.808-5.425-6.448z"/>
        <path stroke-linecap="round" d="M12.138 278.58l-.58-.502-.73-.575-.537-.388-.498-.33-1.972-.05-1.148.131-.97-.554-.954-.293-.55-.342-.84.75.113 1.042.825.423.954.293.55 1.515.112 1.173-.29.944.145 1.303-.404 1.222-1.358.668-.712.733-1.034.114-.776 1.254.42 1.531.388 1.14 1.536 1.01 1.681-.18.986-.504 1.488-.684 1.083.293 1.39.896.412.762.382.48.71.64 1.632.559 1.683.026 1.899-.024.775 1.585.442 1.149 2.23 1.427 2.17.407.769-1.237 1.817.278-1.733-1.735-.194-.7-.317-.53-.335-.355-1.933-.305-2.125-1.154-1.512-2.32.943-1.385.44-2.02-.25-1.835-.268-.252-.605-.448-.114-.335.461-1.996-1.079-1.068-.04-1.655-1.243-.205-.206.827-1.023-.094-1.334.219z"/>
        <path d="M602.35 312.433l-2.575 1.417-.644 2.18-1.717 2.836-1.93 2.507.858 2.727-2.253 1.853-2.253 1.309-1.931.654-.537 1.963h-2.038l-2.04-1.2-1.5-.545v-2.508l-1.718-1.526-1.395-1.418-.224-2.412.5-1.288-.48-1.707 1.046-.428 1.14.227 1.13-1.789.986-1.002-.184-2.283 1.743-.232 1.834.326 2.432-1.166 1.742.84 2.11 2.563 1.375-1.912s2.8-.514 2.937-.651c.135-.138 1.1-2.051 1.1-2.051l2.201-.28 1.835-.747-.183 1.771.688.7-.232 1.272h-1.823zM683.437 293.089l.532-1.212v-1.676l-1.772.28.354 1.955.177 1.864.71.28zM689.46 291.69l-1.152-.091v.837l1.151.653zM684.854 276.413l-.443 2.422.576.604-.487 1.818.177 2.795 1.063.465.354-1.49-.532-2.98.974-1.025-.177-2.144zM687.954 272.686l-.62-.932-.443.466.354 1.585zM689.548 266.35l-1.151-.28.442-2.421-.62-1.49.354-1.584 1.196-1.259.31 1.724-.266 1.77.355 2.05zM690.434 247.438v-2.235l-.885.092v3.727h1.24z"/>
    </g>
</svg>
