<?xml version="1.0" encoding="UTF-8" standalone="no"?>
<!DOCTYPE svg  PUBLIC '-//W3C//DTD SVG 1.1//EN'  'http://www.w3.org/Graphics/SVG/1.1/DTD/svg11.dtd'>
<svg xmlns="http://www.w3.org/2000/svg">
<defs>
<font id="MullerMedium-Regular" horiz-adv-x="636">
<font-face underline-position="-75" font-weight="500" descent="-250" panose-1="0 0 0 0 0 0 0 0 0 0" units-per-em="1000" unicode-range="U+0020-25CA" bbox="-160 -256 1275 969" x-height="480" underline-thickness="50" font-family="MullerMedium" ascent="750" cap-height="700"/>
<missing-glyph horiz-adv-x="236"/>
<glyph glyph-name="f_f" horiz-adv-x="709" unicode="ff" d="M216 480h211v60q0 17 2 43q-44 28 -107 28q-49 0 -77.5 -22.5t-28.5 -66.5v-42zM724 611q-42 21 -93 21q-45 0 -71.5 -19t-26.5 -71v-62h165v-94h-165v-386h-107v386h-210v-386h-107v386h-87v94h87v42q0 88 55.5 134.5t142.5 46.5q79 0 154 -38q47 61 144 61 q63 0 119 -21v-94z"/>
<glyph glyph-name="f_f_i" horiz-adv-x="909" unicode="ffi" d="M216 522v-42h211v55q0 28 4 48q-49 28 -110 28q-48 0 -76.5 -22.5t-28.5 -66.5zM216 0h-107v386h-87v94h87v42q0 88 55.5 134.5t142.5 46.5q79 0 162 -40q55 63 163 63q77 0 155 -33v-98q-71 37 -141 37q-52 0 -82.5 -23.5t-30.5 -74.5v-54h307v-480h-107v386h-200v-386 h-107v386h-210v-386z"/>
<glyph glyph-name="f_f_l" horiz-adv-x="919" unicode="ffl" d="M427 480v55q0 28 4 48q-49 28 -110 28q-48 0 -76.5 -22.5t-28.5 -66.5v-42h211zM620 723q74 0 140 -29l90 18v-712h-107v608q-49 21 -105 21q-105 0 -105 -96v-53h141v-94h-141v-386h-107v386h-210v-386h-107v386h-87v94h87v42q0 88 55.5 134.5t142.5 46.5q79 0 162 -40 q53 60 151 60z"/>
<glyph glyph-name=".notdef" horiz-adv-x="236"/>
<glyph glyph-name=".null" horiz-adv-x="0"/>
<glyph glyph-name="nonmarkingreturn" horiz-adv-x="333"/>
<glyph glyph-name="space" horiz-adv-x="236" unicode=" "/>
<glyph glyph-name="exclam" horiz-adv-x="249" unicode="!" d="M191 53q0 -31 -19 -48t-48 -17q-28 0 -47 17t-19 48t19 48t47 17q29 0 48 -17t19 -48zM173 220h-97l-8 480h113z"/>
<glyph glyph-name="quotedbl" horiz-adv-x="358" unicode='&quot;' d="M133 502h-75v198h98zM290 502h-75v198h98z"/>
<glyph glyph-name="numbersign" horiz-adv-x="669" unicode="#" d="M278 434l-45 -187h157l45 187h-157zM176 0h-104l38 162h-74v85h94l44 187h-88v85h109l38 162h104l-38 -162h157l38 162h104l-38 -162h73v-85h-93l-45 -187h88v-85h-108l-38 -162h-104l38 162h-157z"/>
<glyph glyph-name="dollar" horiz-adv-x="594" unicode="$" d="M334 -130h-88v119q-116 13 -200 59v112q108 -69 247 -69q151 0 151 87q0 38 -29.5 63.5t-73 37.5t-95 29t-95 36t-73 59.5t-29.5 98.5q0 82 54.5 130t142.5 58v120h88v-119q109 -8 181 -51v-109q-88 58 -205 58h-5q-140 0 -140 -85q0 -35 29.5 -59t73 -35.5t95 -28.5 t95 -36.5t73 -60.5t29.5 -100q0 -95 -62 -142.5t-164 -53.5v-118z"/>
<glyph glyph-name="percent" horiz-adv-x="909" unicode="%" d="M626 151q0 -34 20.5 -56.5t59.5 -22.5q38 0 58 22.5t20 56.5t-20 56.5t-58 22.5q-39 0 -59.5 -22.5t-20.5 -56.5zM877 151q0 -77 -49.5 -120.5t-121.5 -43.5q-73 0 -123 43.5t-50 120.5t50 120.5t123 43.5q72 0 121.5 -43.5t49.5 -120.5zM124 549q0 -34 20.5 -56.5 t59.5 -22.5q38 0 58 22.5t20 56.5t-20 56.5t-58 22.5q-39 0 -59.5 -22.5t-20.5 -56.5zM376 549q0 -77 -49.5 -120.5t-121.5 -43.5q-73 0 -123 43.5t-50 120.5t50 120.5t123 43.5q72 0 121.5 -43.5t49.5 -120.5zM295 -60h-89l409 820h89z"/>
<glyph glyph-name="ampersand" horiz-adv-x="715" unicode="&amp;" d="M157 179q0 -46 36.5 -71.5t103.5 -25.5q85 0 150 46l-188 172q-102 -55 -102 -121zM427 543q0 36 -25 56.5t-70 20.5q-53 0 -86 -27.5t-33 -65.5q0 -48 68 -118q146 68 146 134zM583 124l131 -124h-127l-67 61q-99 -74 -234 -74q-111 0 -175.5 51t-64.5 132 q0 112 143 195q-81 85 -81 163t64.5 131.5t160.5 53.5q88 0 143.5 -45.5t55.5 -118.5q0 -30 -12 -57t-29 -47t-44 -40t-48.5 -32.5t-50.5 -27.5l161 -152q39 62 39 136v5h108q0 -116 -73 -210z"/>
<glyph glyph-name="quotesingle" horiz-adv-x="201" unicode="&apos;" d="M133 502h-75v198h98z"/>
<glyph glyph-name="parenleft" horiz-adv-x="301" unicode="(" d="M187 810h94q-59 -96 -93 -218t-34 -242t34 -242t93 -218h-94q-68 97 -107.5 219t-39.5 241t39.5 241t107.5 219z"/>
<glyph glyph-name="parenright" horiz-adv-x="301" unicode=")" d="M20 810h94q68 -97 107.5 -219t39.5 -241t-39.5 -241t-107.5 -219h-94q59 96 93 218t34 242t-34 242t-93 218z"/>
<glyph glyph-name="asterisk" horiz-adv-x="457" unicode="*" d="M229 470l-70 -121l-82 57l87 98l-127 29l34 94l120 -52l-12 125h100l-12 -125l119 52l34 -94l-127 -29l87 -98l-81 -57z"/>
<glyph glyph-name="plus" horiz-adv-x="536" unicode="+" d="M316 398h180v-96h-180v-180h-96v180h-180v96h180v180h96v-180z"/>
<glyph glyph-name="comma" horiz-adv-x="237" unicode="," d="M98 -148h-87l59 248h113z"/>
<glyph glyph-name="hyphen" horiz-adv-x="482" unicode="-" d="M59 294h364v-96h-364v96z"/>
<glyph glyph-name="period" horiz-adv-x="231" unicode="." d="M183 55q0 -32 -19 -49t-48 -17t-48.5 17t-19.5 49q0 31 19.5 47.5t48.5 16.5t48 -16.5t19 -47.5z"/>
<glyph glyph-name="slash" horiz-adv-x="435" unicode="/" d="M105 -59h-78l302 818h78z"/>
<glyph glyph-name="zero" horiz-adv-x="706" unicode="0" d="M543 340q0 249 -190 249t-190 -249t190 -249t190 249zM48 340q0 158 77 255.5t228 97.5t228 -97.5t77 -255.5t-77 -255.5t-228 -97.5t-228 97.5t-77 255.5z"/>
<glyph glyph-name="one" horiz-adv-x="444" unicode="1" d="M217 680h84v-577h121v-103h-370v103h136v460l-136 -51v105z"/>
<glyph glyph-name="two" horiz-adv-x="585" unicode="2" d="M66 624q101 69 226 69q107 0 173 -49.5t66 -141.5q0 -77 -50.5 -131.5t-137.5 -106.5q-7 -4 -25.5 -15t-26 -15.5t-23.5 -14.5t-23.5 -15t-20 -14.5t-18.5 -16t-14 -16t-11.5 -17.5t-6.5 -18t-3 -20l365 1v-103h-493v52q0 56 15.5 99.5t55 80t61.5 52t78 48.5q11 7 16 10 q84 49 108 71q40 38 40 87q0 44 -35.5 67t-99.5 23q-111 0 -216 -76v110z"/>
<glyph glyph-name="three" horiz-adv-x="592" unicode="3" d="M518 507q0 -53 -27.5 -93t-73.5 -55q55 -17 92 -60t37 -114q0 -97 -74 -147.5t-186 -50.5q-131 0 -236 45v110q93 -52 218 -52h9q160 2 160 107q0 102 -144 102h-108v103l95 -1q62 0 95.5 24.5t33.5 67.5q0 46 -37.5 71.5t-106.5 25.5q-106 0 -203 -56v109q95 50 218 50 q107 0 172.5 -50t65.5 -136z"/>
<glyph glyph-name="four" horiz-adv-x="649" unicode="4" d="M393 238v297l-242 -297h242zM386 680h117v-442h117v-99h-117v-139h-110v139h-369v97z"/>
<glyph glyph-name="five" horiz-adv-x="584" unicode="5" d="M92 680h419v-102h-314l-10 -164q50 12 103 12q109 0 181 -52.5t72 -164.5q0 -106 -78.5 -164t-196.5 -58q-123 0 -218 46v107q86 -50 205 -50q78 0 125.5 31t47.5 89q0 122 -185 122q-86 0 -173 -30z"/>
<glyph glyph-name="six" horiz-adv-x="631" unicode="6" d="M164 275q18 -190 172 -190q64 0 104.5 30.5t40.5 94.5q0 65 -42.5 93.5t-109.5 28.5q-93 0 -165 -57zM163 376q93 56 198 56q95 0 165 -57.5t70 -159.5q0 -108 -72 -168t-179 -60q-152 0 -224.5 90t-72.5 257q0 179 88 269t227 90q94 0 176 -40v-104q-77 43 -165 43 q-86 0 -143.5 -51t-67.5 -165z"/>
<glyph glyph-name="seven" horiz-adv-x="551" unicode="7" d="M26 680h505v-90l-282 -590h-123l276 578h-376v102z"/>
<glyph glyph-name="eight" horiz-adv-x="653" unicode="8" d="M471 490q0 46 -40 76t-111 30q-64 0 -101.5 -24t-37.5 -60q0 -34 23.5 -58t45.5 -33t70 -24q8 -3 12 -4q42 -11 73 -21q66 51 66 118zM337 294q-66 20 -98 32q-39 -24 -59.5 -57.5t-20.5 -67.5q1 -54 45.5 -85.5t129.5 -31.5q69 0 113.5 25t44.5 65q0 21 -8 37.5 t-20.5 27.5t-32.5 21t-39 16.5t-45 14.5q-7 2 -10 3zM70 511q0 74 65 128t190 54q118 0 188 -56.5t70 -135.5q0 -99 -90 -162q114 -57 114 -161q0 -80 -70 -135.5t-208 -55.5q-137 0 -210 58.5t-73 142.5q0 50 29 98t82 80q-87 56 -87 145z"/>
<glyph glyph-name="nine" horiz-adv-x="631" unicode="9" d="M295 595q-64 0 -104.5 -30.5t-40.5 -94.5q0 -65 43 -93.5t110 -28.5q92 0 164 57q-18 190 -172 190zM35 465q0 108 72 168t180 60q151 0 223.5 -90t72.5 -257q0 -178 -88 -268.5t-227 -90.5q-93 0 -176 40v104q77 -43 165 -43q86 0 143.5 51t67.5 165q-92 -55 -198 -55 q-95 0 -165 57t-70 159z"/>
<glyph glyph-name="colon" horiz-adv-x="255" unicode=":" d="M195 55q0 -32 -19 -49t-49 -17q-28 0 -47.5 17t-19.5 49q0 31 19.5 47.5t47.5 16.5q29 0 48.5 -16.5t19.5 -47.5zM195 382q0 -32 -19.5 -48.5t-48.5 -16.5q-28 0 -47.5 17t-19.5 48t19.5 48t47.5 17q29 0 48.5 -16.5t19.5 -48.5z"/>
<glyph glyph-name="semicolon" horiz-adv-x="283" unicode=";" d="M208 414q0 -32 -19.5 -48.5t-48.5 -16.5q-28 0 -47.5 17t-19.5 48q0 32 19.5 48.5t47.5 16.5q30 0 49 -16.5t19 -48.5zM123 -148h-87l59 248h113z"/>
<glyph glyph-name="less" horiz-adv-x="504" unicode="&lt;" d="M429 247v-100l-386 150v107l386 149v-100l-286 -103z"/>
<glyph glyph-name="equal" horiz-adv-x="566" unicode="=" d="M503 208h-440v95h440v-95zM503 397h-440v96h440v-96z"/>
<glyph glyph-name="greater" horiz-adv-x="504" unicode="&gt;" d="M461 297l-386 -150v100l287 103l-287 103v100l386 -149v-107z"/>
<glyph glyph-name="question" horiz-adv-x="495" unicode="?" d="M296 55q0 -32 -19 -49t-48 -17t-48.5 17t-19.5 49q0 31 19.5 47.5t48.5 16.5t48 -16.5t19 -47.5zM280 218h-104q0 36 17.5 71.5t42.5 64t50 56t42.5 56.5t17.5 56q0 87 -135 87q-89 0 -175 -51v104q91 51 193 51t167 -43t65 -129q0 -47 -28.5 -95t-62 -81t-62 -73 t-28.5 -74z"/>
<glyph glyph-name="at" horiz-adv-x="1050" unicode="@" d="M626 276q-10 35 -41 60t-75 25q-49 0 -81 -35t-32 -88t32 -87.5t81 -34.5q44 0 75 25t41 60v75zM41 240q0 92 33 176.5t94 151t155.5 106t209.5 39.5q91 0 170 -26.5t133.5 -70.5t93 -100.5t57 -117t18.5 -119.5q0 -134 -56 -203t-151 -69q-60 0 -102 27t-58 76 q-45 -80 -147 -80q-86 0 -139 60t-53 147q0 88 53 148.5t140 60.5q47 0 83 -20t56 -50v60h92v-256q0 -88 79 -88q51 0 75 51.5t24 135.5q0 60 -24 118.5t-68 108t-116 80t-160 30.5q-178 0 -283 -110t-105 -266q0 -178 120 -277t302 -99q116 0 218 36v-97q-101 -36 -221 -36 q-105 0 -198.5 31t-166.5 89t-115.5 149t-42.5 204z"/>
<glyph glyph-name="A" horiz-adv-x="728" unicode="A" d="M351 550l-123 -299h272l-123 299q-8 22 -13 39q-5 -17 -13 -39zM127 0h-121l296 700h125l295 -700h-120l-62 151h-351z"/>
<glyph glyph-name="B" horiz-adv-x="690" unicode="B" d="M505 505q0 96 -136 96h-170v-191l186 -1q53 0 86.5 24t33.5 72zM533 206q0 107 -145 107h-189v-213h173q35 0 59 3t49.5 13t39 32.5t13.5 57.5zM85 700h296q112 0 176 -45t64 -132q0 -60 -31 -99.5t-79 -54.5q57 -16 97.5 -58.5t40.5 -116.5q0 -56 -25 -96.5t-67 -60.5 t-84.5 -28.5t-89.5 -8.5h-298v700z"/>
<glyph glyph-name="C" horiz-adv-x="655" unicode="C" d="M42 344q0 90 32 162t85 116.5t118 67.5t136 23q107 0 199 -46v-111q-75 52 -180 52q-111 0 -192 -67t-82 -197q0 -82 42 -141t103 -85t131 -26q112 0 183 54v-113q-94 -46 -203 -46q-70 0 -135 22.5t-119 65.5t-86 113t-32 156z"/>
<glyph glyph-name="D" horiz-adv-x="741" unicode="D" d="M582 350q0 119 -64.5 182.5t-188.5 63.5h-130v-492h130q124 0 188.5 63.5t64.5 182.5zM85 700h245q180 0 274 -96t94 -254t-94 -254t-274 -96h-245v700z"/>
<glyph glyph-name="E" horiz-adv-x="620" unicode="E" d="M85 700h482v-104h-368v-191h338v-104h-338v-197h374v-104h-488v700z"/>
<glyph glyph-name="F" horiz-adv-x="604" unicode="F" d="M85 700h483v-105h-369v-205h340v-106h-340v-284h-114v700z"/>
<glyph glyph-name="G" horiz-adv-x="704" unicode="G" d="M42 350q0 89 32 160t86 114.5t120 66t138 22.5q115 0 212 -46v-111q-81 52 -196 52q-114 0 -194.5 -65t-80.5 -193q0 -72 24 -124.5t65 -80.5t86.5 -41t96.5 -13q62 0 105 20v265h111v-342q-105 -47 -223 -47q-76 0 -142 20.5t-121 62.5t-87 114t-32 166z"/>
<glyph glyph-name="H" horiz-adv-x="767" unicode="H" d="M568 700h114v-700h-114v298h-369v-298h-114v700h114v-297h369v297z"/>
<glyph glyph-name="I" horiz-adv-x="284" unicode="I" d="M85 700h114v-700h-114v700z"/>
<glyph glyph-name="J" horiz-adv-x="514" unicode="J" d="M124 700h311v-496q0 -110 -67 -163t-173 -53t-180 41v109q65 -42 156 -42q150 0 150 118v381h-197v105z"/>
<glyph glyph-name="K" horiz-adv-x="678" unicode="K" d="M199 0h-114v700h114v-292h138l195 292h129l-232 -341l250 -359h-129l-211 303h-140v-303z"/>
<glyph glyph-name="L" horiz-adv-x="581" unicode="L" d="M85 700h114v-594h368v-106h-482v700z"/>
<glyph glyph-name="M" horiz-adv-x="908" unicode="M" d="M720 700h103v-700h-114v490l-221 -332h-68l-221 333v-491h-114v700h103l266 -401z"/>
<glyph glyph-name="N" horiz-adv-x="767" unicode="N" d="M199 0h-114v700h107l377 -512q-1 24 -1 77v435h114v-700h-107l-377 512q1 -24 1 -76v-436z"/>
<glyph glyph-name="O" horiz-adv-x="816" unicode="O" d="M660 350q0 108 -65.5 182t-186.5 74q-120 0 -186 -74t-66 -182t66 -182t186 -74q121 0 186.5 74t65.5 182zM40 350q0 71 23.5 135t67.5 115.5t116 82t161 30.5t160.5 -30.5t116 -82t68 -115.5t23.5 -135t-23.5 -135t-68 -115.5t-116 -82t-160.5 -30.5t-161 30.5t-116 82 t-67.5 115.5t-23.5 135z"/>
<glyph glyph-name="P" horiz-adv-x="663" unicode="P" d="M518 470q0 71 -47.5 98.5t-129.5 27.5h-142v-252h142q82 0 129.5 27.5t47.5 98.5zM85 700h250q299 0 299 -230t-299 -230h-136v-240h-114v700z"/>
<glyph glyph-name="Q" horiz-adv-x="816" unicode="Q" d="M156 350q0 -108 66 -182t186 -74q61 0 114 25l-105 105l74 72l113 -113q56 66 56 167q0 108 -65.5 182.5t-186.5 74.5q-120 0 -186 -74.5t-66 -182.5zM776 11l-75 -72l-96 97q-84 -49 -197 -49q-89 0 -161 30.5t-116 82t-67.5 115.5t-23.5 135t23.5 135t67.5 115.5 t116 82t161 30.5t160.5 -30.5t116 -82t68 -115.5t23.5 -135q0 -149 -91 -249z"/>
<glyph glyph-name="R" horiz-adv-x="701" unicode="R" d="M199 596v-233h171q64 0 106 27t42 89t-42 89.5t-106 27.5h-171zM199 0h-114v700h280q52 0 97.5 -11t85.5 -35.5t63 -68.5t23 -104q0 -88 -47 -138.5t-123 -68.5l224 -274h-137l-210 262h-142v-262z"/>
<glyph glyph-name="S" horiz-adv-x="594" unicode="S" d="M48 522q0 92 70.5 141.5t175.5 49.5q127 0 219 -53v-109q-88 58 -205 58h-5q-139 0 -139 -85q0 -41 41 -68.5t100 -45.5t118 -41t100 -69.5t41 -115.5q0 -102 -73 -149.5t-188 -47.5h-4q-140 0 -248 61v112q107 -69 240 -69q157 0 157 87q0 38 -29.5 65t-74 41 t-96.5 33.5t-96.5 41t-74 63.5t-29.5 100z"/>
<glyph glyph-name="T" horiz-adv-x="605" unicode="T" d="M14 700h577v-105h-231v-595h-114v595h-232v105z"/>
<glyph glyph-name="U" horiz-adv-x="754" unicode="U" d="M562 700h114v-441q0 -73 -24.5 -127.5t-67 -85t-94 -45t-112.5 -14.5t-113 14.5t-95 45t-67.5 85t-24.5 127.5v441h114v-435q0 -172 186 -172q184 0 184 172v435z"/>
<glyph glyph-name="V" horiz-adv-x="700" unicode="V" d="M409 0h-118l-282 700h123l218 -568l218 568h123z"/>
<glyph glyph-name="W" horiz-adv-x="1031" unicode="W" d="M894 700h125l-219 -700h-125l-160 522l-160 -522h-125l-218 700h124l159 -566l170 566h101l170 -566z"/>
<glyph glyph-name="X" horiz-adv-x="660" unicode="X" d="M133 0h-135l261 361l-246 339h135l182 -253l182 253h135l-247 -339l262 -361h-135l-197 276z"/>
<glyph glyph-name="Y" horiz-adv-x="677" unicode="Y" d="M395 0h-114v257l-274 443h128l203 -339l204 339h128l-275 -443v-257z"/>
<glyph glyph-name="Z" horiz-adv-x="600" unicode="Z" d="M566 0h-532v91l373 504h-361v105h506v-91l-373 -503h387v-106z"/>
<glyph glyph-name="bracketleft" horiz-adv-x="307" unicode="[" d="M278 -110h-212v920h212v-101h-102v-718h102v-101z"/>
<glyph glyph-name="backslash" horiz-adv-x="435" unicode="\" d="M408 -59h-78l-302 818h78z"/>
<glyph glyph-name="bracketright" horiz-adv-x="307" unicode="]" d="M241 -110h-212v101h102v718h-102v101h212v-920z"/>
<glyph glyph-name="asciicircum" horiz-adv-x="558" unicode="^" d="M155 368h-117l194 332h94l194 -332h-117l-124 220z"/>
<glyph glyph-name="underscore" horiz-adv-x="468" unicode="_" d="M468 -160h-468v95h468v-95z"/>
<glyph glyph-name="grave" horiz-adv-x="217" unicode="`" d="M207 767h-109l-106 148h124z"/>
<glyph glyph-name="a" horiz-adv-x="550" unicode="a" d="M265 220q-53 0 -89 -19t-36 -60q0 -34 26 -52.5t64 -18.5q82 0 139 57v81q-58 12 -104 12zM476 111q0 -35 35 -35q12 0 32 6v-77q-30 -12 -68 -12q-72 0 -96 56q-77 -62 -181 -62q-70 0 -119 38.5t-49 108.5q0 84 63 122.5t151 38.5q58 0 125 -14v17q0 46 -33 74t-93 28 q-89 0 -173 -37v98q94 32 184 32q105 0 163.5 -52t58.5 -158v-172z"/>
<glyph glyph-name="b" horiz-adv-x="622" unicode="b" d="M476 240q0 70 -42 114.5t-107 44.5q-53 0 -93.5 -29t-59.5 -71v-117q19 -43 59.5 -72t93.5 -29q65 0 107 44.5t42 114.5zM67 700h107v-282q67 75 173 75t172 -73.5t66 -179.5t-66 -179.5t-172 -73.5q-113 0 -185 89v-76h-95v700z"/>
<glyph glyph-name="c" horiz-adv-x="492" unicode="c" d="M37 236q0 125 79 191t186 66q86 0 148 -37v-98q-56 40 -133 40q-71 0 -121 -39.5t-50 -118.5q0 -77 49.5 -117.5t119.5 -40.5q76 0 140 37v-99q-69 -33 -159 -33q-105 0 -182 64.5t-77 184.5z"/>
<glyph glyph-name="d" horiz-adv-x="622" unicode="d" d="M447 299q-19 42 -59.5 71t-93.5 29q-65 0 -107 -44.5t-42 -114.5t42 -114.5t107 -44.5q53 0 93.5 29t59.5 72v117zM448 700h107v-700h-96v76q-70 -89 -184 -89q-106 0 -172 73.5t-66 179.5t66 179.5t172 73.5q108 0 173 -75v282z"/>
<glyph glyph-name="e" horiz-adv-x="548" unicode="e" d="M410 280q1 4 1 12q0 41 -30.5 76.5t-95.5 35.5q-57 0 -97.5 -33t-43.5 -91h266zM37 240q0 62 22 112.5t58 80t78 45t85 15.5q114 0 173.5 -65.5t59.5 -161.5q0 -35 -7 -66h-361q8 -61 60 -91.5t124 -30.5q82 0 152 34v-92q-69 -33 -172 -33q-117 0 -194.5 66t-77.5 187z "/>
<glyph glyph-name="f" horiz-adv-x="391" unicode="f" d="M216 0h-107v386h-87v94h87v53q0 96 51.5 138t127.5 42q61 0 119 -21v-94q-42 21 -93 21q-45 0 -71.5 -19t-26.5 -71v-49h164v-94h-164v-386z"/>
<glyph glyph-name="g" horiz-adv-x="622" unicode="g" d="M447 299q-19 42 -59.5 71t-93.5 29q-65 0 -107 -44.5t-42 -114.5t42 -114.5t107 -44.5q53 0 93.5 27t59.5 67v124zM37 240q0 106 66 179.5t172 73.5q113 0 184 -88v75h96v-474q0 -121 -77.5 -180t-191.5 -59q-110 0 -198 45v98q84 -49 184 -49q176 0 176 142v61 q-65 -77 -173 -77q-106 0 -172 73.5t-66 179.5z"/>
<glyph glyph-name="h" horiz-adv-x="588" unicode="h" d="M67 700h107v-273q64 66 155 66q90 0 144 -54.5t54 -141.5v-297h-107v283q0 56 -31 85.5t-81 29.5q-79 0 -134 -80v-318h-107v700z"/>
<glyph glyph-name="i" horiz-adv-x="245" unicode="i" d="M188 636q0 -31 -18.5 -47.5t-46.5 -16.5t-47 16.5t-19 47.5q0 30 19 46.5t47 16.5t46.5 -16.5t18.5 -46.5zM176 0h-107v480h107v-480z"/>
<glyph glyph-name="j" horiz-adv-x="245" unicode="j" d="M188 636q0 -31 -19 -47.5t-47 -16.5t-47 16.5t-19 47.5q0 30 19 46.5t47 16.5t47 -16.5t19 -46.5zM176 -79q0 -82 -43.5 -118t-109.5 -36q-46 0 -79 14v94q23 -10 51 -10q74 0 74 74v541h107v-559z"/>
<glyph glyph-name="k" horiz-adv-x="533" unicode="k" d="M532 0h-123l-158 199h-77v-199h-107v700h107v-410h79l138 190h122l-174 -238z"/>
<glyph glyph-name="l" horiz-adv-x="245" unicode="l" d="M69 730h107v-730h-107v730z"/>
<glyph glyph-name="m" horiz-adv-x="884" unicode="m" d="M174 0h-107v480h95v-60q65 73 160 73q104 0 150 -77q77 77 168 77q90 0 136 -56t46 -137v-300h-107v297q0 46 -25.5 73.5t-69.5 27.5q-65 0 -119 -65q2 -22 2 -33v-300h-107v297q0 46 -25.5 73.5t-69.5 27.5q-69 0 -127 -74v-324z"/>
<glyph glyph-name="n" horiz-adv-x="588" unicode="n" d="M162 414q66 79 167 79q90 0 144 -54.5t54 -141.5v-297h-107v283q0 56 -31 85.5t-81 29.5q-79 0 -134 -80v-318h-107v480h95v-66z"/>
<glyph glyph-name="o" horiz-adv-x="594" unicode="o" d="M448 240q0 70 -42 112.5t-109 42.5q-68 0 -110 -42.5t-42 -112.5t42 -112.5t110 -42.5q67 0 109 42.5t42 112.5zM37 240q0 119 76.5 186t183.5 67q108 0 184 -67t76 -186t-76 -186t-184 -67q-107 0 -183.5 67t-76.5 186z"/>
<glyph glyph-name="p" horiz-adv-x="622" unicode="p" d="M476 240q0 70 -42 114.5t-107 44.5q-53 0 -93.5 -29t-59.5 -71v-117q19 -43 59.5 -72t93.5 -29q65 0 107 44.5t42 114.5zM162 405q73 88 185 88q106 0 172 -73.5t66 -179.5t-66 -179.5t-172 -73.5q-108 0 -173 75v-282h-107v700h95v-75z"/>
<glyph glyph-name="q" horiz-adv-x="622" unicode="q" d="M447 299q-19 42 -59.5 71t-93.5 29q-65 0 -107 -44.5t-42 -114.5t42 -114.5t107 -44.5q53 0 93.5 29t59.5 72v117zM37 240q0 106 66 179.5t172 73.5q113 0 184 -88v75h96v-700h-107v282q-65 -75 -173 -75q-106 0 -172 73.5t-66 179.5z"/>
<glyph glyph-name="r" horiz-adv-x="378" unicode="r" d="M162 401q26 41 73.5 65.5t105.5 24.5q15 0 23 -1v-105q-22 2 -31 2q-55 0 -97.5 -25.5t-61.5 -70.5v-291h-107v480h95v-79z"/>
<glyph glyph-name="s" horiz-adv-x="470" unicode="s" d="M42 350q0 73 55.5 108t135.5 35q93 0 173 -41v-94q-30 20 -77 33.5t-89 13.5q-37 0 -63 -12.5t-26 -39.5q0 -25 30 -41.5t72.5 -28t84.5 -27t72 -47.5t30 -81q0 -74 -58 -107.5t-149 -33.5q-113 0 -188 46v95q77 -51 183 -51q104 0 104 49q0 24 -30 40.5t-72.5 28t-85 27 t-72.5 48t-30 80.5z"/>
<glyph glyph-name="t" horiz-adv-x="416" unicode="t" d="M102 625l106 26v-171h174v-94h-174v-220q0 -46 21.5 -65t69.5 -19q50 0 97 19v-92q-58 -21 -129 -21q-74 0 -119.5 39t-45.5 119v240h-86v94h86v145z"/>
<glyph glyph-name="u" horiz-adv-x="589" unicode="u" d="M415 480h107v-480h-95v66q-66 -79 -167 -79q-93 0 -145.5 54t-52.5 142v297h107v-283q0 -115 112 -115q79 0 134 80v318z"/>
<glyph glyph-name="v" horiz-adv-x="547" unicode="v" d="M419 480h117l-206 -480h-113l-205 480h116l146 -364z"/>
<glyph glyph-name="w" horiz-adv-x="808" unicode="w" d="M679 480h113l-159 -480h-115l-114 344l-114 -344h-114l-160 480h113l108 -363l117 363h100l118 -363z"/>
<glyph glyph-name="x" horiz-adv-x="510" unicode="x" d="M370 480h122l-175 -235l185 -245h-122l-125 170l-125 -170h-122l185 245l-175 235h122l115 -162z"/>
<glyph glyph-name="y" horiz-adv-x="551" unicode="y" d="M283 118l143 362h112l-225 -545q-69 -167 -193 -167q-29 0 -63 8v91q22 -7 49 -7q77 0 119 112l10 24l-228 484h114z"/>
<glyph glyph-name="z" horiz-adv-x="473" unicode="z" d="M47 480h376v-80l-256 -309h273v-91h-406v80l256 309h-243v91z"/>
<glyph glyph-name="braceleft" horiz-adv-x="332" unicode="{" d="M292 -16v-94q-32 -6 -57 -6q-63 0 -96.5 35.5t-33.5 97.5v211q0 39 -20 57t-49 18h-8v94h8q29 0 49 18t20 57v211q0 62 33.5 97.5t96.5 35.5q25 0 57 -6v-94q-14 2 -19 2q-32 0 -45 -20.5t-13 -61.5v-176q0 -50 -20.5 -78.5t-49.5 -31.5q29 -3 49.5 -31.5t20.5 -78.5 v-176q0 -41 13 -61.5t45 -20.5q5 0 19 2z"/>
<glyph glyph-name="bar" horiz-adv-x="242" unicode="|" d="M176 -100h-110v910h110v-910z"/>
<glyph glyph-name="braceright" horiz-adv-x="332" unicode="}" d="M226 17q0 -62 -33.5 -97.5t-96.5 -35.5q-26 0 -56 6v94q14 -2 19 -2q32 0 45 20.5t13 61.5v176q0 50 20 78.5t49 31.5q-29 3 -49 31.5t-20 78.5v176q0 41 -13 61.5t-45 20.5q-5 0 -19 -2v94q30 6 56 6q63 0 96.5 -35.5t33.5 -97.5v-211q0 -39 20.5 -57t49.5 -18h8v-94h-8 q-30 0 -50 -17.5t-20 -57.5v-211z"/>
<glyph glyph-name="asciitilde" horiz-adv-x="598" unicode="~" d="M534 393q1 -6 1 -18q0 -56 -32 -87t-85 -31q-37 0 -113.5 27t-105.5 27h-2q-35 0 -35 -37v-5h-95q0 3 -0.5 8t-0.5 7q0 57 32.5 89t83.5 32q41 0 116 -26.5t106 -26.5q35 0 35 34v7h95z"/>
<glyph glyph-name="exclamdown" horiz-adv-x="237" unicode="¡" d="M185 428q0 -31 -19 -47.5t-48 -16.5q-28 0 -47 16.5t-19 47.5t19 48t47 17q29 0 48 -17t19 -48zM175 -219h-113l8 480h97z"/>
<glyph glyph-name="cent" horiz-adv-x="510" unicode="¢" d="M271 392q-53 -12 -86.5 -50t-33.5 -102q0 -63 33.5 -101.5t86.5 -50.5v304zM353 84q58 7 107 35v-99q-52 -24 -107 -30v-110h-82v108q-97 10 -163 73.5t-66 174.5q0 114 66.5 179t162.5 76v109h82v-110q59 -8 102 -34v-98q-42 30 -102 38v-312z"/>
<glyph glyph-name="sterling" horiz-adv-x="604" unicode="£" d="M565 0h-527v100h32q31 0 50 23.5t19 59.5v105h-83v94h83v74q0 118 68 177.5t168 59.5q86 0 155 -37v-100q-62 43 -136 43q-63 0 -104.5 -36t-41.5 -109v-72h209v-94h-209v-105q0 -62 -31 -83h348v-100z"/>
<glyph glyph-name="currency" horiz-adv-x="574" unicode="¤" d="M181 350q0 -47 28.5 -75t77.5 -28q48 0 76.5 28t28.5 75t-28.5 75.5t-76.5 28.5q-49 0 -77.5 -28.5t-28.5 -75.5zM181 182l-63 -63l-62 62l59 59q-32 48 -32 110q0 64 32 110l-59 60l62 62l63 -64q47 26 106 26t106 -26l64 64l61 -62l-60 -60q32 -48 32 -110t-32 -110 l60 -59l-62 -62l-63 63q-47 -26 -106 -26t-106 26z"/>
<glyph glyph-name="yen" horiz-adv-x="691" unicode="¥" d="M538 680h123l-212 -344h119v-82h-165v-54h165v-82h-165v-118h-114v118h-165v82h165v54h-165v82h119l-213 344h124l192 -322z"/>
<glyph glyph-name="brokenbar" horiz-adv-x="256" unicode="¦" d="M183 -100h-110v364h110v-364zM183 446h-110v364h110v-364z"/>
<glyph glyph-name="section" horiz-adv-x="511" unicode="§" d="M246 273q6 -2 26.5 -8t32.5 -10q26 13 41 34t15 41q0 29 -22.5 44.5t-67.5 30.5q-21 8 -59 19q-28 -12 -43.5 -33.5t-15.5 -42.5q0 -28 23.5 -44t69.5 -31zM451 107q0 -74 -58 -107.5t-149 -33.5q-105 0 -178 46v91q76 -50 172 -50q51 0 78 10.5t27 40.5q0 18 -16.5 31.5 t-38 22t-58.5 19.5q-11 3 -17 5q-36 10 -59.5 20t-49.5 27t-39 42t-13 59q0 76 76 130q-66 40 -66 110q0 73 56 108t140 35q86 0 166 -41v-91q-31 19 -76 32t-83 13q-40 0 -67 -13t-27 -40t28.5 -42.5t90.5 -33.5q11 -3 17 -5q36 -10 59 -20t48.5 -26.5t38 -41.5t12.5 -58 q0 -75 -76 -129q62 -39 62 -110z"/>
<glyph glyph-name="dieresis" horiz-adv-x="322" unicode="¨" d="M122 835q0 -26 -18.5 -45t-45.5 -19q-26 0 -45 19t-19 45t19 45t45 19q27 0 45.5 -19t18.5 -45zM330 835q0 -26 -19 -45t-45 -19t-45 19t-19 45t19 45t45 19t45 -19t19 -45z"/>
<glyph glyph-name="copyright" horiz-adv-x="848" unicode="©" d="M85 350q0 -78 29.5 -141.5t78.5 -102.5t108.5 -60t123.5 -21t123.5 21t108.5 60t78.5 102.5t29.5 141.5t-29.5 141.5t-78.5 102.5t-108.5 60t-123.5 21t-123.5 -21t-108.5 -60t-78.5 -102.5t-29.5 -141.5zM578 181q-66 -34 -140 -34q-79 0 -141.5 50.5t-62.5 144.5 q0 104 64 157.5t152 53.5q75 0 128 -34v-74q-53 32 -112 32q-60 0 -101 -31t-41 -99q0 -66 39.5 -95t97.5 -29t117 31v-73zM804 350q0 -87 -33 -158t-88 -114.5t-121.5 -67t-136.5 -23.5q-71 0 -137.5 23.5t-121.5 67t-88 114.5t-33 158t33 158t88 114.5t121.5 67 t137.5 23.5q70 0 136.5 -23.5t121.5 -67t88 -114.5t33 -158z"/>
<glyph glyph-name="guillemotleft" horiz-adv-x="524" unicode="«" d="M274 53h-111l-126 177v20l126 177h111l-133 -187zM480 53h-111l-126 177v20l126 177h111l-132 -187z"/>
<glyph glyph-name="logicalnot" horiz-adv-x="577" unicode="¬" d="M509 256h-98v129h-358v95h456v-224z"/>
<glyph glyph-name="registered" horiz-adv-x="846" unicode="®" d="M352 476v-114h93q16 0 27 1.5t25.5 6.5t22 17.5t7.5 31.5q0 57 -82 57h-93zM352 156h-77v393h178q61 0 107 -30.5t46 -98.5q0 -90 -85 -116l109 -148h-88l-99 139h-11h-80v-139zM85 350q0 -103 50.5 -178.5t126 -110.5t162.5 -35q64 0 123.5 20.5t108 60t77.5 102.5 t29 141q0 104 -50.5 179.5t-125.5 110.5t-162 35t-162.5 -35t-126 -110.5t-50.5 -179.5zM801 350q0 -86 -33 -157t-87.5 -115t-121 -67.5t-136.5 -23.5t-136.5 23.5t-121 67.5t-87.5 115t-33 157t33 157t87.5 115t121 67.5t136.5 23.5t136.5 -23.5t121 -67.5t87.5 -115 t33 -157z"/>
<glyph glyph-name="macron" horiz-adv-x="360" unicode="¯" d="M24 866h312v-90h-312v90z"/>
<glyph glyph-name="degree" horiz-adv-x="405" unicode="°" d="M116 555q0 -39 23.5 -61.5t62.5 -22.5t62 22.5t23 61.5q0 37 -23.5 59.5t-61.5 22.5q-39 0 -62.5 -22.5t-23.5 -59.5zM368 555q0 -74 -48 -117t-117 -43t-117.5 43t-48.5 117q0 72 48.5 115t117.5 43t117 -43t48 -115z"/>
<glyph glyph-name="plusminus" horiz-adv-x="576" unicode="±" d="M516 0h-456v95h456v-95zM336 626v-181h180v-95h-180v-180h-96v180h-180v95h180v181h96z"/>
<glyph glyph-name="acute" horiz-adv-x="211" unicode="´" d="M126 767h-109l91 148h124z"/>
<glyph glyph-name="paragraph" horiz-adv-x="682" unicode="¶" d="M369 -220h-112v494q-106 0 -166 56.5t-60 156.5t60 156.5t166 56.5h347v-920h-112v815h-123v-815z"/>
<glyph glyph-name="periodcentered" horiz-adv-x="251" unicode="·" d="M193 239q0 -31 -19 -48t-48 -17t-48.5 17t-19.5 48t19.5 48t48.5 17t48 -17t19 -48z"/>
<glyph glyph-name="cedilla" horiz-adv-x="218" unicode="¸" d="M67 0h83l-14 -54q98 0 100 -82q0 -48 -39 -72.5t-99 -24.5q-57 0 -101 19v76q37 -21 86 -21q67 0 67 33q0 28 -65 28q-20 0 -41 -3z"/>
<glyph glyph-name="guillemotright" horiz-adv-x="524" unicode="»" d="M155 53h-111l132 187l-132 187h111l126 -177v-20zM361 53h-111l132 187l-132 187h111l126 -177v-20z"/>
<glyph glyph-name="onequarter" horiz-adv-x="920" unicode="¼" d="M159 680h60v-334h72v-74h-240v74h87v250l-84 -30v76zM231 -14h-39l458 727h40zM743 151v152l-124 -152h124zM737 408h85v-257h65v-72h-65v-79h-79v79h-216v71z"/>
<glyph glyph-name="onehalf" horiz-adv-x="881" unicode="½" d="M154 680h60v-334h72v-74h-240v74h87v250l-84 -30v76zM556 374q57 42 139 42q66 0 106.5 -30.5t40.5 -87.5q0 -78 -112 -144q-6 -4 -16.5 -10t-16 -9.5t-14.5 -8.5t-13.5 -9t-11.5 -8.5t-10.5 -8.5t-7 -8.5t-5.5 -9t-2 -9.5l210 1v-74h-301v37q0 33 10 59.5t31.5 47.5 t37 31.5t45.5 28.5q7 4 10 6t13 7.5t13 7.5t11.5 7t11.5 7.5t9.5 7.5t8.5 8.5t6 8.5t5.5 10t3 11t1.5 12q0 45 -71 45q-69 0 -132 -47v79zM226 -14h-39l458 727h40z"/>
<glyph glyph-name="threequarters" horiz-adv-x="975" unicode="¾" d="M333 580q0 -30 -15 -53.5t-38 -33.5q69 -29 69 -103q0 -60 -46 -90.5t-114 -30.5q-79 0 -142 28v78q57 -32 135 -32q89 0 89 55q0 52 -76 52h-67v74h57q70 0 70 47q0 48 -80 48q-63 0 -121 -35v78q57 31 132 31q66 0 106.5 -29.5t40.5 -83.5zM798 151v152l-124 -152h124z M792 408h85v-257h65v-72h-65v-79h-79v79h-216v71zM293 -14h-39l458 727h40z"/>
<glyph glyph-name="questiondown" horiz-adv-x="487" unicode="¿" d="M331 428q0 -31 -19.5 -48t-48.5 -17t-48 17t-19 48t19 48t48 17t48.5 -17t19.5 -48zM455 -180q-90 -51 -193 -51q-102 0 -167 43.5t-65 128.5q0 47 28.5 95t62 81t62 73t28.5 74h104q0 -36 -17.5 -71.5t-42.5 -64t-50 -55.5t-42.5 -56.5t-17.5 -56.5q0 -87 135 -87 q86 0 175 51v-104z"/>
<glyph glyph-name="Agrave" horiz-adv-x="728" unicode="À" d="M439 767h-109l-106 148h124zM351 550l-123 -299h272l-123 299q-8 22 -13 39q-5 -17 -13 -39zM127 0h-121l296 700h125l295 -700h-120l-62 151h-351z"/>
<glyph glyph-name="Aacute" horiz-adv-x="728" unicode="Á" d="M395 767h-109l91 148h124zM351 550l-123 -299h272l-123 299q-8 22 -13 39q-5 -17 -13 -39zM127 0h-121l296 700h125l295 -700h-120l-62 151h-351z"/>
<glyph glyph-name="Acircumflex" horiz-adv-x="728" unicode="Â" d="M318 915h95l129 -150h-111l-65 76l-66 -76h-111zM351 550l-123 -299h272l-123 299q-8 22 -13 39q-5 -17 -13 -39zM127 0h-121l296 700h125l295 -700h-120l-62 151h-351z"/>
<glyph glyph-name="Atilde" horiz-adv-x="728" unicode="Ã" d="M534 877q3 -15 3 -29q0 -43 -26 -68t-64 -25q-36 0 -85 21t-60 21q-13 0 -20.5 -8.5t-7.5 -20.5q0 -1 0.5 -3.5t0.5 -3.5h-83q-3 15 -3 29q0 43 25.5 68t63.5 25q35 0 84.5 -21t61.5 -21q28 0 28 27q0 2 -0.5 5t-0.5 4h83zM351 550l-123 -299h272l-123 299q-8 22 -13 39 q-5 -17 -13 -39zM127 0h-121l296 700h125l295 -700h-120l-62 151h-351z"/>
<glyph glyph-name="Adieresis" horiz-adv-x="728" unicode="Ä" d="M322 835q0 -26 -18.5 -45t-45.5 -19q-26 0 -45 19t-19 45t19 45t45 19q27 0 45.5 -19t18.5 -45zM530 835q0 -26 -19 -45t-45 -19t-45 19t-19 45t19 45t45 19t45 -19t19 -45zM351 550l-123 -299h272l-123 299q-8 22 -13 39q-5 -17 -13 -39zM127 0h-121l296 700h125 l295 -700h-120l-62 151h-351z"/>
<glyph glyph-name="Aring" horiz-adv-x="728" unicode="Å" d="M313 855q0 -23 14 -36.5t35 -13.5t35 13.5t14 36.5q0 21 -14 35t-35 14t-35 -14t-14 -35zM482 855q0 -52 -35 -83.5t-84 -31.5q-50 0 -85.5 31.5t-35.5 83.5q0 51 35.5 82.5t85.5 31.5q49 0 84 -31.5t35 -82.5zM351 550l-123 -299h272l-123 299q-8 22 -13 39 q-5 -17 -13 -39zM127 0h-121l296 700h125l295 -700h-120l-62 151h-351z"/>
<glyph glyph-name="AE" horiz-adv-x="1004" unicode="Æ" d="M272 251h225v332zM611 301v-197h346v-104h-461v154h-286l-104 -154h-122l469 700h498v-104h-340v-191h310v-104h-310z"/>
<glyph glyph-name="Ccedilla" horiz-adv-x="655" unicode="Ç" d="M617 146v-113q-75 -37 -159 -44l-12 -43q48 0 74 -22t26 -62q0 -47 -39 -71t-99 -24q-56 0 -100 19v76q37 -21 85 -21q68 0 68 33q0 28 -66 28q-21 0 -40 -3l21 90q-65 6 -124 31t-106.5 68t-75.5 109.5t-28 146.5q0 90 32 162t85 116.5t118 67.5t136 23q107 0 199 -46 v-111q-75 52 -180 52q-111 0 -192 -67t-82 -197q0 -82 42 -141t103 -85t131 -26q112 0 183 54z"/>
<glyph glyph-name="Egrave" horiz-adv-x="620" unicode="È" d="M409 767h-109l-106 148h124zM85 700h482v-104h-368v-191h338v-104h-338v-197h374v-104h-488v700z"/>
<glyph glyph-name="Eacute" horiz-adv-x="620" unicode="É" d="M365 767h-109l91 148h124zM85 700h482v-104h-368v-191h338v-104h-338v-197h374v-104h-488v700z"/>
<glyph glyph-name="Ecircumflex" horiz-adv-x="620" unicode="Ê" d="M288 915h95l129 -150h-111l-65 76l-66 -76h-111zM85 700h482v-104h-368v-191h338v-104h-338v-197h374v-104h-488v700z"/>
<glyph glyph-name="Edieresis" horiz-adv-x="620" unicode="Ë" d="M292 835q0 -26 -18.5 -45t-45.5 -19q-26 0 -45 19t-19 45t19 45t45 19q27 0 45.5 -19t18.5 -45zM500 835q0 -26 -19 -45t-45 -19t-45 19t-19 45t19 45t45 19t45 -19t19 -45zM85 700h482v-104h-368v-191h338v-104h-338v-197h374v-104h-488v700z"/>
<glyph glyph-name="Igrave" horiz-adv-x="284" unicode="Ì" d="M219 767h-109l-106 148h124zM85 700h114v-700h-114v700z"/>
<glyph glyph-name="Iacute" horiz-adv-x="284" unicode="Í" d="M175 767h-109l91 148h124zM85 700h114v-700h-114v700z"/>
<glyph glyph-name="Icircumflex" horiz-adv-x="284" unicode="Î" d="M98 915h95l129 -150h-111l-65 76l-66 -76h-111zM85 700h114v-700h-114v700z"/>
<glyph glyph-name="Idieresis" horiz-adv-x="284" unicode="Ï" d="M102 835q0 -26 -18.5 -45t-45.5 -19q-26 0 -45 19t-19 45t19 45t45 19q27 0 45.5 -19t18.5 -45zM310 835q0 -26 -19 -45t-45 -19t-45 19t-19 45t19 45t45 19t45 -19t19 -45zM85 700h114v-700h-114v700z"/>
<glyph glyph-name="Eth" horiz-adv-x="747" unicode="Ð" d="M206 104h130q124 0 188.5 63.5t64.5 182.5t-64.5 182.5t-188.5 63.5h-130v-201h185v-92h-185v-199zM92 700h244q180 0 274.5 -96t94.5 -254t-94.5 -254t-274.5 -96h-244v303h-79v92h79v305z"/>
<glyph glyph-name="Ntilde" horiz-adv-x="767" unicode="Ñ" d="M555 877q3 -15 3 -29q0 -43 -26 -68t-64 -25q-36 0 -85 21t-60 21q-13 0 -20.5 -8.5t-7.5 -20.5q0 -1 0.5 -3.5t0.5 -3.5h-83q-3 15 -3 29q0 43 25.5 68t63.5 25q35 0 84.5 -21t61.5 -21q28 0 28 27q0 2 -0.5 5t-0.5 4h83zM199 0h-114v700h107l377 -512q-1 24 -1 77v435 h114v-700h-107l-377 512q1 -24 1 -76v-436z"/>
<glyph glyph-name="Ograve" horiz-adv-x="816" unicode="Ò" d="M484 767h-109l-106 148h124zM660 350q0 108 -65.5 182t-186.5 74q-120 0 -186 -74t-66 -182t66 -182t186 -74q121 0 186.5 74t65.5 182zM40 350q0 71 23.5 135t67.5 115.5t116 82t161 30.5t160.5 -30.5t116 -82t68 -115.5t23.5 -135t-23.5 -135t-68 -115.5t-116 -82 t-160.5 -30.5t-161 30.5t-116 82t-67.5 115.5t-23.5 135z"/>
<glyph glyph-name="Oacute" horiz-adv-x="816" unicode="Ó" d="M440 767h-109l91 148h124zM660 350q0 108 -65.5 182t-186.5 74q-120 0 -186 -74t-66 -182t66 -182t186 -74q121 0 186.5 74t65.5 182zM40 350q0 71 23.5 135t67.5 115.5t116 82t161 30.5t160.5 -30.5t116 -82t68 -115.5t23.5 -135t-23.5 -135t-68 -115.5t-116 -82 t-160.5 -30.5t-161 30.5t-116 82t-67.5 115.5t-23.5 135z"/>
<glyph glyph-name="Ocircumflex" horiz-adv-x="816" unicode="Ô" d="M363 915h95l129 -150h-111l-65 76l-66 -76h-111zM660 350q0 108 -65.5 182t-186.5 74q-120 0 -186 -74t-66 -182t66 -182t186 -74q121 0 186.5 74t65.5 182zM40 350q0 71 23.5 135t67.5 115.5t116 82t161 30.5t160.5 -30.5t116 -82t68 -115.5t23.5 -135t-23.5 -135 t-68 -115.5t-116 -82t-160.5 -30.5t-161 30.5t-116 82t-67.5 115.5t-23.5 135z"/>
<glyph glyph-name="Otilde" horiz-adv-x="816" unicode="Õ" d="M579 877q3 -15 3 -29q0 -43 -26 -68t-64 -25q-36 0 -85 21t-60 21q-13 0 -20.5 -8.5t-7.5 -20.5q0 -1 0.5 -3.5t0.5 -3.5h-83q-3 15 -3 29q0 43 25.5 68t63.5 25q35 0 84.5 -21t61.5 -21q28 0 28 27q0 2 -0.5 5t-0.5 4h83zM660 350q0 108 -65.5 182t-186.5 74 q-120 0 -186 -74t-66 -182t66 -182t186 -74q121 0 186.5 74t65.5 182zM40 350q0 71 23.5 135t67.5 115.5t116 82t161 30.5t160.5 -30.5t116 -82t68 -115.5t23.5 -135t-23.5 -135t-68 -115.5t-116 -82t-160.5 -30.5t-161 30.5t-116 82t-67.5 115.5t-23.5 135z"/>
<glyph glyph-name="Odieresis" horiz-adv-x="816" unicode="Ö" d="M367 835q0 -26 -18.5 -45t-45.5 -19q-26 0 -45 19t-19 45t19 45t45 19q27 0 45.5 -19t18.5 -45zM575 835q0 -26 -19 -45t-45 -19t-45 19t-19 45t19 45t45 19t45 -19t19 -45zM660 350q0 108 -65.5 182t-186.5 74q-120 0 -186 -74t-66 -182t66 -182t186 -74q121 0 186.5 74 t65.5 182zM40 350q0 71 23.5 135t67.5 115.5t116 82t161 30.5t160.5 -30.5t116 -82t68 -115.5t23.5 -135t-23.5 -135t-68 -115.5t-116 -82t-160.5 -30.5t-161 30.5t-116 82t-67.5 115.5t-23.5 135z"/>
<glyph glyph-name="multiply" horiz-adv-x="496" unicode="×" d="M248 288l-127 -127l-63 64l126 126l-126 127l63 63l127 -127l126 127l64 -63l-127 -127l127 -126l-64 -64z"/>
<glyph glyph-name="Oslash" horiz-adv-x="816" unicode="Ø" d="M284 121q54 -27 123 -27q121 0 187 74t66 182q0 118 -74 189zM408 606q-120 0 -186 -74t-66 -182q0 -116 71 -186l301 416q-54 26 -120 26zM738 748l-85 -117q60 -51 91.5 -125t31.5 -156q0 -71 -23.5 -135t-68 -115.5t-116 -82t-160.5 -30.5q-107 0 -189 44l-57 -79h-89 l86 120q-58 50 -88.5 123t-30.5 155q0 71 23.5 135t67.5 115.5t116 82t161 30.5q103 0 185 -42l56 77h89z"/>
<glyph glyph-name="Ugrave" horiz-adv-x="754" unicode="Ù" d="M451 767h-109l-106 148h124zM562 700h114v-441q0 -73 -24.5 -127.5t-67 -85t-94 -45t-112.5 -14.5t-113 14.5t-95 45t-67.5 85t-24.5 127.5v441h114v-435q0 -172 186 -172q184 0 184 172v435z"/>
<glyph glyph-name="Uacute" horiz-adv-x="754" unicode="Ú" d="M407 767h-109l91 148h124zM562 700h114v-441q0 -73 -24.5 -127.5t-67 -85t-94 -45t-112.5 -14.5t-113 14.5t-95 45t-67.5 85t-24.5 127.5v441h114v-435q0 -172 186 -172q184 0 184 172v435z"/>
<glyph glyph-name="Ucircumflex" horiz-adv-x="754" unicode="Û" d="M330 915h95l129 -150h-111l-65 76l-66 -76h-111zM562 700h114v-441q0 -73 -24.5 -127.5t-67 -85t-94 -45t-112.5 -14.5t-113 14.5t-95 45t-67.5 85t-24.5 127.5v441h114v-435q0 -172 186 -172q184 0 184 172v435z"/>
<glyph glyph-name="Udieresis" horiz-adv-x="754" unicode="Ü" d="M334 835q0 -26 -18.5 -45t-45.5 -19q-26 0 -45 19t-19 45t19 45t45 19q27 0 45.5 -19t18.5 -45zM542 835q0 -26 -19 -45t-45 -19t-45 19t-19 45t19 45t45 19t45 -19t19 -45zM562 700h114v-441q0 -73 -24.5 -127.5t-67 -85t-94 -45t-112.5 -14.5t-113 14.5t-95 45 t-67.5 85t-24.5 127.5v441h114v-435q0 -172 186 -172q184 0 184 172v435z"/>
<glyph glyph-name="Yacute" horiz-adv-x="677" unicode="Ý" d="M370 767h-109l91 148h124zM395 0h-114v257l-274 443h128l203 -339l204 339h128l-275 -443v-257z"/>
<glyph glyph-name="Thorn" horiz-adv-x="661" unicode="Þ" d="M199 224h142q177 0 177 126q0 71 -47.5 98.5t-129.5 27.5h-142v-252zM199 580h136q299 0 299 -230t-299 -230h-136v-120h-114v700h114v-120z"/>
<glyph glyph-name="germandbls" horiz-adv-x="594" unicode="ß" d="M564 145q0 -77 -59.5 -117.5t-140.5 -40.5q-63 0 -121 24v88q51 -24 101 -24q48 0 79.5 19.5t31.5 59.5q0 27 -23 56.5t-50 52t-50 51.5t-23 54q0 34 36 86.5t36 93.5q0 35 -26 56t-69 21q-51 0 -81.5 -29t-30.5 -80v-516h-107v494q0 104 58 161t161 58h2q96 0 146.5 -46 t50.5 -104q0 -37 -18.5 -71t-37.5 -60.5t-19 -46.5q0 -21 24 -47.5t53 -50t53 -62t24 -80.5z"/>
<glyph glyph-name="agrave" horiz-adv-x="550" unicode="à" d="M326 550h-109l-106 148h124zM265 220q-53 0 -89 -19t-36 -60q0 -34 26 -52.5t64 -18.5q82 0 139 57v81q-58 12 -104 12zM476 111q0 -35 35 -35q12 0 32 6v-77q-30 -12 -68 -12q-72 0 -96 56q-77 -62 -181 -62q-70 0 -119 38.5t-49 108.5q0 84 63 122.5t151 38.5 q58 0 125 -14v17q0 46 -33 74t-93 28q-89 0 -173 -37v98q94 32 184 32q105 0 163.5 -52t58.5 -158v-172z"/>
<glyph glyph-name="aacute" horiz-adv-x="550" unicode="á" d="M282 550h-109l91 148h124zM265 220q-53 0 -89 -19t-36 -60q0 -34 26 -52.5t64 -18.5q82 0 139 57v81q-58 12 -104 12zM476 111q0 -35 35 -35q12 0 32 6v-77q-30 -12 -68 -12q-72 0 -96 56q-77 -62 -181 -62q-70 0 -119 38.5t-49 108.5q0 84 63 122.5t151 38.5 q58 0 125 -14v17q0 46 -33 74t-93 28q-89 0 -173 -37v98q94 32 184 32q105 0 163.5 -52t58.5 -158v-172z"/>
<glyph glyph-name="acircumflex" horiz-adv-x="550" unicode="â" d="M205 698h95l129 -150h-111l-65 76l-66 -76h-111zM265 220q-53 0 -89 -19t-36 -60q0 -34 26 -52.5t64 -18.5q82 0 139 57v81q-58 12 -104 12zM476 111q0 -35 35 -35q12 0 32 6v-77q-30 -12 -68 -12q-72 0 -96 56q-77 -62 -181 -62q-70 0 -119 38.5t-49 108.5 q0 84 63 122.5t151 38.5q58 0 125 -14v17q0 46 -33 74t-93 28q-89 0 -173 -37v98q94 32 184 32q105 0 163.5 -52t58.5 -158v-172z"/>
<glyph glyph-name="atilde" horiz-adv-x="550" unicode="ã" d="M421 660q3 -15 3 -29q0 -43 -26 -68t-64 -25q-36 0 -85 21t-60 21q-13 0 -20.5 -8.5t-7.5 -20.5q0 -1 0.5 -3.5t0.5 -3.5h-83q-3 15 -3 29q0 43 25.5 68t63.5 25q35 0 84.5 -21t61.5 -21q28 0 28 27q0 1 -0.5 4t-0.5 5h83zM265 220q-53 0 -89 -19t-36 -60q0 -34 26 -52.5 t64 -18.5q82 0 139 57v81q-58 12 -104 12zM476 111q0 -35 35 -35q12 0 32 6v-77q-30 -12 -68 -12q-72 0 -96 56q-77 -62 -181 -62q-70 0 -119 38.5t-49 108.5q0 84 63 122.5t151 38.5q58 0 125 -14v17q0 46 -33 74t-93 28q-89 0 -173 -37v98q94 32 184 32q105 0 163.5 -52 t58.5 -158v-172z"/>
<glyph glyph-name="adieresis" horiz-adv-x="550" unicode="ä" d="M209 618q0 -26 -18.5 -45t-45.5 -19q-26 0 -45 19t-19 45t19 45t45 19q27 0 45.5 -19t18.5 -45zM417 618q0 -26 -19 -45t-45 -19t-45 19t-19 45t19 45t45 19t45 -19t19 -45zM265 220q-53 0 -89 -19t-36 -60q0 -34 26 -52.5t64 -18.5q82 0 139 57v81q-58 12 -104 12z M476 111q0 -35 35 -35q12 0 32 6v-77q-30 -12 -68 -12q-72 0 -96 56q-77 -62 -181 -62q-70 0 -119 38.5t-49 108.5q0 84 63 122.5t151 38.5q58 0 125 -14v17q0 46 -33 74t-93 28q-89 0 -173 -37v98q94 32 184 32q105 0 163.5 -52t58.5 -158v-172z"/>
<glyph glyph-name="aring" horiz-adv-x="550" unicode="å" d="M200 638q0 -23 14 -36.5t35 -13.5t35 13.5t14 36.5q0 21 -14 35t-35 14t-35 -14t-14 -35zM369 638q0 -52 -35 -83.5t-84 -31.5q-50 0 -85.5 31.5t-35.5 83.5q0 51 35.5 82.5t85.5 31.5q49 0 84 -31.5t35 -82.5zM265 220q-53 0 -89 -19t-36 -60q0 -34 26 -52.5t64 -18.5 q82 0 139 57v81q-58 12 -104 12zM476 111q0 -35 35 -35q12 0 32 6v-77q-30 -12 -68 -12q-72 0 -96 56q-77 -62 -181 -62q-70 0 -119 38.5t-49 108.5q0 84 63 122.5t151 38.5q58 0 125 -14v17q0 46 -33 74t-93 28q-89 0 -173 -37v98q94 32 184 32q105 0 163.5 -52t58.5 -158 v-172z"/>
<glyph glyph-name="ae" horiz-adv-x="892" unicode="æ" d="M629 404q-58 0 -98 -34t-43 -94h266q1 4 1 13q0 43 -30.5 79t-95.5 36zM140 141q0 -35 27 -52.5t70 -17.5q100 0 172 60q-15 33 -19 78q-72 12 -114 12q-59 0 -97.5 -19t-38.5 -61zM447 70q-97 -83 -239 -83q-76 0 -127 38t-51 109q0 59 34 96.5t82 51t109 13.5 q66 0 131 -14v16q0 102 -143 102q-87 0 -173 -36v98q94 32 185 32q146 0 193 -88q33 43 82 65.5t101 22.5q111 0 169 -65t58 -161q0 -33 -8 -70h-361q9 -59 61 -89t124 -30q79 0 149 34v-89q-70 -36 -173 -36q-132 0 -203 83z"/>
<glyph glyph-name="ccedilla" horiz-adv-x="492" unicode="ç" d="M455 119v-99q-55 -25 -119 -31l-11 -43q48 0 74 -22t26 -62q0 -47 -39 -71t-99 -24q-56 0 -100 19v76q36 -21 85 -21q68 0 68 33q0 28 -66 28q-20 0 -41 -3l21 91q-92 12 -154.5 75.5t-62.5 170.5q0 125 79 191t186 66q86 0 148 -37v-98q-56 40 -133 40q-71 0 -121 -39.5 t-50 -118.5q0 -77 49.5 -117.5t119.5 -40.5q76 0 140 37z"/>
<glyph glyph-name="egrave" horiz-adv-x="548" unicode="è" d="M356 547h-109l-106 148h124zM410 280q1 4 1 12q0 41 -30.5 76.5t-95.5 35.5q-57 0 -97.5 -33t-43.5 -91h266zM37 240q0 62 22 112.5t58 80t78 45t85 15.5q114 0 173.5 -65.5t59.5 -161.5q0 -35 -7 -66h-361q8 -61 60 -91.5t124 -30.5q82 0 152 34v-92q-69 -33 -172 -33 q-117 0 -194.5 66t-77.5 187z"/>
<glyph glyph-name="eacute" horiz-adv-x="548" unicode="é" d="M312 547h-109l91 148h124zM410 280q1 4 1 12q0 41 -30.5 76.5t-95.5 35.5q-57 0 -97.5 -33t-43.5 -91h266zM37 240q0 62 22 112.5t58 80t78 45t85 15.5q114 0 173.5 -65.5t59.5 -161.5q0 -35 -7 -66h-361q8 -61 60 -91.5t124 -30.5q82 0 152 34v-92q-69 -33 -172 -33 q-117 0 -194.5 66t-77.5 187z"/>
<glyph glyph-name="ecircumflex" horiz-adv-x="548" unicode="ê" d="M235 695h95l129 -150h-111l-65 76l-66 -76h-111zM410 280q1 4 1 12q0 41 -30.5 76.5t-95.5 35.5q-57 0 -97.5 -33t-43.5 -91h266zM37 240q0 62 22 112.5t58 80t78 45t85 15.5q114 0 173.5 -65.5t59.5 -161.5q0 -35 -7 -66h-361q8 -61 60 -91.5t124 -30.5q82 0 152 34v-92 q-69 -33 -172 -33q-117 0 -194.5 66t-77.5 187z"/>
<glyph glyph-name="edieresis" horiz-adv-x="548" unicode="ë" d="M239 615q0 -26 -18.5 -45t-45.5 -19q-26 0 -45 19t-19 45t19 45t45 19q27 0 45.5 -19t18.5 -45zM447 615q0 -26 -19 -45t-45 -19t-45 19t-19 45t19 45t45 19t45 -19t19 -45zM410 280q1 4 1 12q0 41 -30.5 76.5t-95.5 35.5q-57 0 -97.5 -33t-43.5 -91h266zM37 240 q0 62 22 112.5t58 80t78 45t85 15.5q114 0 173.5 -65.5t59.5 -161.5q0 -35 -7 -66h-361q8 -61 60 -91.5t124 -30.5q82 0 152 34v-92q-69 -33 -172 -33q-117 0 -194.5 66t-77.5 187z"/>
<glyph glyph-name="igrave" horiz-adv-x="245" unicode="ì" d="M196 547h-102l-83 148h117zM176 0h-107v480h107v-480z"/>
<glyph glyph-name="iacute" horiz-adv-x="245" unicode="í" d="M154 547h-109l91 148h124zM69 480h107v-480h-107v480z"/>
<glyph glyph-name="icircumflex" horiz-adv-x="245" unicode="î" d="M69 480h107v-480h-107v480zM77 688h95l105 -143h-104l-49 69l-48 -69h-104z"/>
<glyph glyph-name="idieresis" horiz-adv-x="245" unicode="ï" d="M69 480h107v-480h-107v480zM94 615q0 -24 -17 -41.5t-42 -17.5q-24 0 -41.5 17.5t-17.5 41.5t17.5 41.5t41.5 17.5q25 0 42 -17.5t17 -41.5zM268 615q0 -24 -17.5 -41.5t-41.5 -17.5t-41.5 17.5t-17.5 41.5t17.5 41.5t41.5 17.5t41.5 -17.5t17.5 -41.5z"/>
<glyph glyph-name="eth" horiz-adv-x="589" unicode="ð" d="M146 219q0 -59 38.5 -98t105.5 -39q65 0 99.5 35t41.5 91q-2 60 -41.5 101.5t-105.5 41.5q-64 0 -101 -38t-37 -94zM544 274q0 -143 -69.5 -215t-184.5 -72q-109 0 -180.5 63t-71.5 169q0 98 63.5 160t155.5 62q62 0 112 -24.5t73 -65.5q-2 16 -4 23q-24 138 -143 199 l-87 -87l-54 54l63 63q-54 12 -115 12v90q96 0 185 -32l81 81l54 -54l-62 -62q184 -111 184 -364z"/>
<glyph glyph-name="ntilde" horiz-adv-x="588" unicode="ñ" d="M465 657q3 -15 3 -29q0 -43 -26 -68t-64 -25q-36 0 -85 21t-60 21q-13 0 -20.5 -8.5t-7.5 -20.5q0 -1 0.5 -3.5t0.5 -3.5h-83q-3 15 -3 29q0 43 25.5 68t63.5 25q35 0 84.5 -21t61.5 -21q28 0 28 27q0 2 -0.5 5t-0.5 4h83zM162 414q66 79 167 79q90 0 144 -54.5 t54 -141.5v-297h-107v283q0 56 -31 85.5t-81 29.5q-79 0 -134 -80v-318h-107v480h95v-66z"/>
<glyph glyph-name="ograve" horiz-adv-x="594" unicode="ò" d="M373 544h-109l-106 148h124zM448 240q0 70 -42 112.5t-109 42.5q-68 0 -110 -42.5t-42 -112.5t42 -112.5t110 -42.5q67 0 109 42.5t42 112.5zM37 240q0 119 76.5 186t183.5 67q108 0 184 -67t76 -186t-76 -186t-184 -67q-107 0 -183.5 67t-76.5 186z"/>
<glyph glyph-name="oacute" horiz-adv-x="594" unicode="ó" d="M329 544h-109l91 148h124zM448 240q0 70 -42 112.5t-109 42.5q-68 0 -110 -42.5t-42 -112.5t42 -112.5t110 -42.5q67 0 109 42.5t42 112.5zM37 240q0 119 76.5 186t183.5 67q108 0 184 -67t76 -186t-76 -186t-184 -67q-107 0 -183.5 67t-76.5 186z"/>
<glyph glyph-name="ocircumflex" horiz-adv-x="594" unicode="ô" d="M252 692h95l129 -150h-111l-65 76l-66 -76h-111zM448 240q0 70 -42 112.5t-109 42.5q-68 0 -110 -42.5t-42 -112.5t42 -112.5t110 -42.5q67 0 109 42.5t42 112.5zM37 240q0 119 76.5 186t183.5 67q108 0 184 -67t76 -186t-76 -186t-184 -67q-107 0 -183.5 67t-76.5 186z "/>
<glyph glyph-name="otilde" horiz-adv-x="594" unicode="õ" d="M468 654q3 -15 3 -29q0 -43 -26 -68t-64 -25q-36 0 -85 21t-60 21q-13 0 -20.5 -8.5t-7.5 -20.5q0 -1 0.5 -3.5t0.5 -3.5h-83q-3 15 -3 29q0 43 25.5 68t63.5 25q35 0 84.5 -21t61.5 -21q28 0 28 27q0 1 -0.5 4t-0.5 5h83zM448 240q0 70 -42 112.5t-109 42.5 q-68 0 -110 -42.5t-42 -112.5t42 -112.5t110 -42.5q67 0 109 42.5t42 112.5zM37 240q0 119 76.5 186t183.5 67q108 0 184 -67t76 -186t-76 -186t-184 -67q-107 0 -183.5 67t-76.5 186z"/>
<glyph glyph-name="odieresis" horiz-adv-x="594" unicode="ö" d="M256 612q0 -26 -18.5 -45t-45.5 -19q-26 0 -45 19t-19 45t19 45t45 19q27 0 45.5 -19t18.5 -45zM464 612q0 -26 -19 -45t-45 -19t-45 19t-19 45t19 45t45 19t45 -19t19 -45zM448 240q0 70 -42 112.5t-109 42.5q-68 0 -110 -42.5t-42 -112.5t42 -112.5t110 -42.5 q67 0 109 42.5t42 112.5zM37 240q0 119 76.5 186t183.5 67q108 0 184 -67t76 -186t-76 -186t-184 -67q-107 0 -183.5 67t-76.5 186z"/>
<glyph glyph-name="divide" horiz-adv-x="584" unicode="÷" d="M359 573q0 -32 -19 -48.5t-48 -16.5t-48 17t-19 48q0 32 19 48.5t48 16.5q30 0 48.5 -16.5t18.5 -48.5zM359 126q0 -32 -19 -48.5t-48 -16.5t-48 17t-19 48q0 32 19 48.5t48 16.5q30 0 48.5 -16.5t18.5 -48.5zM532 302h-480v96h480v-96z"/>
<glyph glyph-name="oslash" horiz-adv-x="594" unicode="ø" d="M235 97q29 -12 63 -12q67 0 109 42.5t42 112.5q0 73 -44 115zM297 395q-68 0 -110 -42.5t-42 -112.5q0 -71 43 -114l169 258q-28 11 -60 11zM527 543l-66 -101q96 -70 96 -202q0 -119 -76 -186t-184 -67q-63 0 -117 24l-48 -72h-65l65 100q-95 70 -95 201q0 119 76.5 186 t183.5 67q63 0 117 -24l48 74h65z"/>
<glyph glyph-name="ugrave" horiz-adv-x="589" unicode="ù" d="M370 547h-109l-106 148h124zM415 480h107v-480h-95v66q-66 -79 -167 -79q-93 0 -145.5 54t-52.5 142v297h107v-283q0 -115 112 -115q79 0 134 80v318z"/>
<glyph glyph-name="uacute" horiz-adv-x="589" unicode="ú" d="M326 547h-109l91 148h124zM415 480h107v-480h-95v66q-66 -79 -167 -79q-93 0 -145.5 54t-52.5 142v297h107v-283q0 -115 112 -115q79 0 134 80v318z"/>
<glyph glyph-name="ucircumflex" horiz-adv-x="589" unicode="û" d="M249 695h95l129 -150h-111l-65 76l-66 -76h-111zM415 480h107v-480h-95v66q-66 -79 -167 -79q-93 0 -145.5 54t-52.5 142v297h107v-283q0 -115 112 -115q79 0 134 80v318z"/>
<glyph glyph-name="udieresis" horiz-adv-x="589" unicode="ü" d="M253 615q0 -26 -18.5 -45t-45.5 -19q-26 0 -45 19t-19 45t19 45t45 19q27 0 45.5 -19t18.5 -45zM461 615q0 -26 -19 -45t-45 -19t-45 19t-19 45t19 45t45 19t45 -19t19 -45zM415 480h107v-480h-95v66q-66 -79 -167 -79q-93 0 -145.5 54t-52.5 142v297h107v-283 q0 -115 112 -115q79 0 134 80v318z"/>
<glyph glyph-name="yacute" horiz-adv-x="551" unicode="ý" d="M299 547h-109l91 148h124zM283 118l143 362h112l-225 -545q-69 -167 -193 -167q-29 0 -63 8v91q22 -7 49 -7q77 0 119 112l10 24l-228 484h114z"/>
<glyph glyph-name="thorn" horiz-adv-x="622" unicode="þ" d="M476 240q0 70 -42 114.5t-107 44.5q-53 0 -94 -29.5t-59 -72.5v-114q20 -43 61 -71.5t92 -29.5q65 0 107 44t42 114zM67 700h107v-285q68 78 175 78q105 0 170.5 -73.5t65.5 -179.5t-66 -179.5t-170 -73.5q-106 0 -175 77v-284h-107v920z"/>
<glyph glyph-name="ydieresis" horiz-adv-x="551" unicode="ÿ" d="M226 615q0 -26 -18.5 -45t-45.5 -19q-26 0 -45 19t-19 45t19 45t45 19q27 0 45.5 -19t18.5 -45zM434 615q0 -26 -19 -45t-45 -19t-45 19t-19 45t19 45t45 19t45 -19t19 -45zM283 118l143 362h112l-225 -545q-69 -167 -193 -167q-29 0 -63 8v91q22 -7 49 -7q77 0 119 112 l10 24l-228 484h114z"/>
<glyph glyph-name="Amacron" horiz-adv-x="728" unicode="Ā" d="M207 866h312v-90h-312v90zM351 550l-123 -299h272l-123 299q-8 22 -13 39q-5 -17 -13 -39zM127 0h-121l296 700h125l295 -700h-120l-62 151h-351z"/>
<glyph glyph-name="amacron" horiz-adv-x="550" unicode="ā" d="M94 649h312v-90h-312v90zM265 220q-53 0 -89 -19t-36 -60q0 -34 26 -52.5t64 -18.5q82 0 139 57v81q-58 12 -104 12zM476 111q0 -35 35 -35q12 0 32 6v-77q-30 -12 -68 -12q-72 0 -96 56q-77 -62 -181 -62q-70 0 -119 38.5t-49 108.5q0 84 63 122.5t151 38.5 q58 0 125 -14v17q0 46 -33 74t-93 28q-89 0 -173 -37v98q94 32 184 32q105 0 163.5 -52t58.5 -158v-172z"/>
<glyph glyph-name="Abreve" horiz-adv-x="728" unicode="Ă" d="M510 802q-61 -43 -147 -43q-87 0 -148 43v92q66 -43 148 -43q81 0 147 43v-92zM351 550l-123 -299h272l-123 299q-8 22 -13 39q-5 -17 -13 -39zM127 0h-121l296 700h125l295 -700h-120l-62 151h-351z"/>
<glyph glyph-name="abreve" horiz-adv-x="550" unicode="ă" d="M397 585q-61 -43 -147 -43q-87 0 -148 43v92q66 -43 148 -43q81 0 147 43v-92zM265 220q-53 0 -89 -19t-36 -60q0 -34 26 -52.5t64 -18.5q82 0 139 57v81q-58 12 -104 12zM476 111q0 -35 35 -35q12 0 32 6v-77q-30 -12 -68 -12q-72 0 -96 56q-77 -62 -181 -62 q-70 0 -119 38.5t-49 108.5q0 84 63 122.5t151 38.5q58 0 125 -14v17q0 46 -33 74t-93 28q-89 0 -173 -37v98q94 32 184 32q105 0 163.5 -52t58.5 -158v-172z"/>
<glyph glyph-name="Aogonek" horiz-adv-x="728" unicode="Ą" d="M351 550l-123 -299h272l-123 299q-8 17 -13 39q-5 -22 -13 -39zM641 -113q-1 -17 9.5 -27t29.5 -10q26 0 51 17v-78q-35 -22 -83 -22q-51 0 -78.5 26.5t-27.5 67.5q2 72 76 139h-16l-62 151h-351l-62 -151h-121l296 700h125l295 -700q-39 -26 -60.5 -57t-20.5 -56z"/>
<glyph glyph-name="aogonek" horiz-adv-x="550" unicode="ą" d="M230 70q82 0 139 57v81q-58 12 -104 12q-53 0 -89 -19t-36 -60q0 -34 26 -52.5t64 -18.5zM543 82v-77q-39 -26 -60.5 -57.5t-20.5 -56.5q-1 -17 9.5 -26.5t29.5 -10.5q21 2 41 11v-77q-31 -17 -73 -17q-51 0 -78.5 26.5t-27.5 67.5q2 75 73 133q-39 12 -57 51 q-77 -62 -181 -62q-70 0 -119 38.5t-49 108.5q0 84 63 122.5t151 38.5q58 0 125 -14v17q0 46 -33 74t-93 28q-89 0 -173 -37v98q94 32 184 32q105 0 163.5 -52t58.5 -158v-172q0 -35 35 -35q12 0 32 6z"/>
<glyph glyph-name="Cacute" horiz-adv-x="655" unicode="Ć" d="M433 767h-109l91 148h124zM42 344q0 90 32 162t85 116.5t118 67.5t136 23q107 0 199 -46v-111q-75 52 -180 52q-111 0 -192 -67t-82 -197q0 -82 42 -141t103 -85t131 -26q112 0 183 54v-113q-94 -46 -203 -46q-70 0 -135 22.5t-119 65.5t-86 113t-32 156z"/>
<glyph glyph-name="cacute" horiz-adv-x="492" unicode="ć" d="M333 547h-109l91 148h124zM37 236q0 125 79 191t186 66q86 0 148 -37v-98q-56 40 -133 40q-71 0 -121 -39.5t-50 -118.5q0 -77 49.5 -117.5t119.5 -40.5q76 0 140 37v-99q-69 -33 -159 -33q-105 0 -182 64.5t-77 184.5z"/>
<glyph glyph-name="Cdotaccent" horiz-adv-x="655" unicode="Ċ" d="M328 830q0 32 20 49.5t50 17.5t50 -17.5t20 -49.5q0 -34 -20 -51.5t-50 -17.5t-50 18t-20 51zM42 344q0 90 32 162t85 116.5t118 67.5t136 23q107 0 199 -46v-111q-75 52 -180 52q-111 0 -192 -67t-82 -197q0 -82 42 -141t103 -85t131 -26q112 0 183 54v-113 q-94 -46 -203 -46q-70 0 -135 22.5t-119 65.5t-86 113t-32 156z"/>
<glyph glyph-name="cdotaccent" horiz-adv-x="492" unicode="ċ" d="M228 610q0 32 20 49.5t50 17.5t50 -17.5t20 -49.5q0 -34 -20 -51.5t-50 -17.5t-50 18t-20 51zM37 236q0 125 79 191t186 66q86 0 148 -37v-98q-56 40 -133 40q-71 0 -121 -39.5t-50 -118.5q0 -77 49.5 -117.5t119.5 -40.5q76 0 140 37v-99q-69 -33 -159 -33 q-105 0 -182 64.5t-77 184.5z"/>
<glyph glyph-name="Ccaron" horiz-adv-x="655" unicode="Č" d="M583 911l-132 -150h-95l-132 150h111l69 -79l68 79h111zM42 344q0 90 32 162t85 116.5t118 67.5t136 23q107 0 199 -46v-111q-75 52 -180 52q-111 0 -192 -67t-82 -197q0 -82 42 -141t103 -85t131 -26q112 0 183 54v-113q-94 -46 -203 -46q-70 0 -135 22.5t-119 65.5 t-86 113t-32 156z"/>
<glyph glyph-name="ccaron" horiz-adv-x="492" unicode="č" d="M483 691l-132 -150h-95l-132 150h111l69 -79l68 79h111zM37 236q0 125 79 191t186 66q86 0 148 -37v-98q-56 40 -133 40q-71 0 -121 -39.5t-50 -118.5q0 -77 49.5 -117.5t119.5 -40.5q76 0 140 37v-99q-69 -33 -159 -33q-105 0 -182 64.5t-77 184.5z"/>
<glyph glyph-name="Dcaron" horiz-adv-x="741" unicode="Ď" d="M523 911l-132 -150h-95l-132 150h111l69 -79l68 79h111zM582 350q0 119 -64.5 182.5t-188.5 63.5h-130v-492h130q124 0 188.5 63.5t64.5 182.5zM85 700h245q180 0 274 -96t94 -254t-94 -254t-274 -96h-245v700z"/>
<glyph glyph-name="dcaron" horiz-adv-x="622" unicode="ď" d="M447 299q-19 42 -59.5 71t-93.5 29q-65 0 -107 -44.5t-42 -114.5t42 -114.5t107 -44.5q53 0 93.5 29t59.5 72v117zM448 700h107v-700h-96v76q-70 -89 -184 -89q-106 0 -172 73.5t-66 179.5t66 179.5t172 73.5q108 0 173 -75v282zM625 700h98l-30 -192h-85z"/>
<glyph glyph-name="Dcroat" horiz-adv-x="747" unicode="Đ" d="M206 104h130q124 0 188.5 63.5t64.5 182.5t-64.5 182.5t-188.5 63.5h-130v-201h185v-92h-185v-199zM92 700h244q180 0 274.5 -96t94.5 -254t-94.5 -254t-274.5 -96h-244v303h-79v92h79v305z"/>
<glyph glyph-name="dcroat" horiz-adv-x="622" unicode="đ" d="M294 81q53 0 93.5 29t59.5 72v117q-19 42 -59.5 71t-93.5 29q-65 0 -107 -44.5t-42 -114.5t42 -114.5t107 -44.5zM555 634h64v-72h-64v-562h-96v76q-70 -89 -184 -89q-106 0 -172 73.5t-66 179.5t66 179.5t172 73.5q108 0 173 -75v144h-157v72h157v66h107v-66z"/>
<glyph glyph-name="Emacron" horiz-adv-x="620" unicode="Ē" d="M177 866h312v-90h-312v90zM85 700h482v-104h-368v-191h338v-104h-338v-197h374v-104h-488v700z"/>
<glyph glyph-name="emacron" horiz-adv-x="548" unicode="ē" d="M124 646h312v-90h-312v90zM410 280q1 4 1 12q0 41 -30.5 76.5t-95.5 35.5q-57 0 -97.5 -33t-43.5 -91h266zM37 240q0 62 22 112.5t58 80t78 45t85 15.5q114 0 173.5 -65.5t59.5 -161.5q0 -35 -7 -66h-361q8 -61 60 -91.5t124 -30.5q82 0 152 34v-92q-69 -33 -172 -33 q-117 0 -194.5 66t-77.5 187z"/>
<glyph glyph-name="Edotaccent" horiz-adv-x="620" unicode="Ė" d="M260 830q0 32 20 49.5t50 17.5t50 -17.5t20 -49.5q0 -34 -20 -51.5t-50 -17.5t-50 18t-20 51zM85 700h482v-104h-368v-191h338v-104h-338v-197h374v-104h-488v700z"/>
<glyph glyph-name="edotaccent" horiz-adv-x="548" unicode="ė" d="M207 610q0 32 20 49.5t50 17.5t50 -17.5t20 -49.5q0 -34 -20 -51.5t-50 -17.5t-50 18t-20 51zM410 280q1 4 1 12q0 41 -30.5 76.5t-95.5 35.5q-57 0 -97.5 -33t-43.5 -91h266zM37 240q0 62 22 112.5t58 80t78 45t85 15.5q114 0 173.5 -65.5t59.5 -161.5q0 -35 -7 -66 h-361q8 -61 60 -91.5t124 -30.5q82 0 152 34v-92q-69 -33 -172 -33q-117 0 -194.5 66t-77.5 187z"/>
<glyph glyph-name="Eogonek" horiz-adv-x="620" unicode="Ę" d="M486 -116q0 -35 39 -35q24 0 48 13v-79q-35 -16 -83 -16q-49 0 -76 26t-27 67q2 75 87 140h-389v700h482v-104h-368v-191h338v-104h-338v-197h374v-104q-39 -27 -63 -59.5t-24 -56.5z"/>
<glyph glyph-name="eogonek" horiz-adv-x="548" unicode="ę" d="M285 404q-57 0 -97.5 -33t-43.5 -91h266q1 4 1 12q0 41 -30.5 76.5t-95.5 35.5zM469 -211q-35 -22 -83 -22h-2q-48 0 -75.5 26.5t-27.5 65.5q0 72 73 130q-30 -2 -45 -2q-117 0 -194.5 66t-77.5 187q0 62 22 112.5t58 80t78 45t85 15.5q114 0 173.5 -65.5t59.5 -161.5 q0 -35 -7 -66h-361q8 -61 60 -91.5t124 -30.5q82 0 152 34v-92q-104 -78 -102 -133q-1 -17 9.5 -26.5t29.5 -10.5q28 2 51 17v-78z"/>
<glyph glyph-name="Ecaron" horiz-adv-x="620" unicode="Ě" d="M515 911l-132 -150h-95l-132 150h111l69 -79l68 79h111zM85 700h482v-104h-368v-191h338v-104h-338v-197h374v-104h-488v700z"/>
<glyph glyph-name="ecaron" horiz-adv-x="548" unicode="ě" d="M462 691l-132 -150h-95l-132 150h111l69 -79l68 79h111zM410 280q1 4 1 12q0 41 -30.5 76.5t-95.5 35.5q-57 0 -97.5 -33t-43.5 -91h266zM37 240q0 62 22 112.5t58 80t78 45t85 15.5q114 0 173.5 -65.5t59.5 -161.5q0 -35 -7 -66h-361q8 -61 60 -91.5t124 -30.5 q82 0 152 34v-92q-69 -33 -172 -33q-117 0 -194.5 66t-77.5 187z"/>
<glyph glyph-name="Gbreve" horiz-adv-x="704" unicode="Ğ" d="M547 802q-61 -43 -147 -43q-87 0 -148 43v92q66 -43 148 -43q81 0 147 43v-92zM42 350q0 89 32 160t86 114.5t120 66t138 22.5q115 0 212 -46v-111q-81 52 -196 52q-114 0 -194.5 -65t-80.5 -193q0 -72 24 -124.5t65 -80.5t86.5 -41t96.5 -13q62 0 105 20v265h111v-342 q-105 -47 -223 -47q-76 0 -142 20.5t-121 62.5t-87 114t-32 166z"/>
<glyph glyph-name="gbreve" horiz-adv-x="622" unicode="ğ" d="M433 582q-61 -43 -147 -43q-87 0 -148 43v92q66 -43 148 -43q81 0 147 43v-92zM447 299q-19 42 -59.5 71t-93.5 29q-65 0 -107 -44.5t-42 -114.5t42 -114.5t107 -44.5q53 0 93.5 27t59.5 67v124zM37 240q0 106 66 179.5t172 73.5q113 0 184 -88v75h96v-474 q0 -121 -77.5 -180t-191.5 -59q-110 0 -198 45v98q84 -49 184 -49q176 0 176 142v61q-65 -77 -173 -77q-106 0 -172 73.5t-66 179.5z"/>
<glyph glyph-name="Gdotaccent" horiz-adv-x="704" unicode="Ġ" d="M327 830q0 32 20 49.5t50 17.5t50 -17.5t20 -49.5q0 -34 -20 -51.5t-50 -17.5t-50 18t-20 51zM42 350q0 89 32 160t86 114.5t120 66t138 22.5q115 0 212 -46v-111q-81 52 -196 52q-114 0 -194.5 -65t-80.5 -193q0 -72 24 -124.5t65 -80.5t86.5 -41t96.5 -13q62 0 105 20 v265h111v-342q-105 -47 -223 -47q-76 0 -142 20.5t-121 62.5t-87 114t-32 166z"/>
<glyph glyph-name="gdotaccent" horiz-adv-x="622" unicode="ġ" d="M213 610q0 32 20 49.5t50 17.5t50 -17.5t20 -49.5q0 -34 -20 -51.5t-50 -17.5t-50 18t-20 51zM447 299q-19 42 -59.5 71t-93.5 29q-65 0 -107 -44.5t-42 -114.5t42 -114.5t107 -44.5q53 0 93.5 27t59.5 67v124zM37 240q0 106 66 179.5t172 73.5q113 0 184 -88v75h96v-474 q0 -121 -77.5 -180t-191.5 -59q-110 0 -198 45v98q84 -49 184 -49q176 0 176 142v61q-65 -77 -173 -77q-106 0 -172 73.5t-66 179.5z"/>
<glyph glyph-name="Gcommaaccent" horiz-adv-x="704" unicode="Ģ" d="M430 -256h-90l28 199h103zM42 350q0 89 32 160t86 114.5t120 66t138 22.5q115 0 212 -46v-111q-81 52 -196 52q-114 0 -194.5 -65t-80.5 -193q0 -72 24 -124.5t65 -80.5t86.5 -41t96.5 -13q62 0 105 20v265h111v-342q-105 -47 -223 -47q-76 0 -142 20.5t-121 62.5 t-87 114t-32 166z"/>
<glyph glyph-name="gcommaaccent" horiz-adv-x="622" unicode="ģ" d="M447 299q-19 42 -59.5 71t-93.5 29q-65 0 -107 -44.5t-42 -114.5t42 -114.5t107 -44.5q53 0 93.5 27t59.5 67v124zM37 240q0 106 66 179.5t172 73.5q113 0 184 -88v75h96v-474q0 -121 -77.5 -180t-191.5 -59q-110 0 -198 45v98q84 -49 184 -49q176 0 176 142v61 q-65 -77 -173 -77q-106 0 -172 73.5t-66 179.5zM340 543h-98l40 178h85z"/>
<glyph glyph-name="Hbar" horiz-adv-x="774" unicode="Ħ" d="M203 500v-100h369v100h-369zM203 0h-114v500h-72v82h72v118h114v-118h368v118h114v-118h72v-82h-72v-500h-114v301h-368v-301z"/>
<glyph glyph-name="hbar" horiz-adv-x="588" unicode="ħ" d="M174 427q64 66 155 66q90 0 144 -54.5t54 -141.5v-297h-107v283q0 56 -31 85.5t-81 29.5q-79 0 -134 -80v-318h-107v554h-56v72h56v74h107v-74h161v-72h-161v-127z"/>
<glyph glyph-name="Imacron" horiz-adv-x="284" unicode="Ī" d="M-13 866h312v-90h-312v90zM85 700h114v-700h-114v700z"/>
<glyph glyph-name="imacron" horiz-adv-x="245" unicode="ī" d="M69 480h107v-480h-107v480zM7 655h232v-86h-232v86z"/>
<glyph glyph-name="Iogonek" horiz-adv-x="284" unicode="Į" d="M130 -114q-1 -17 9.5 -26.5t29.5 -10.5q28 2 51 17v-77q-34 -23 -83 -23q-51 0 -78.5 26.5t-27.5 67.5q1 61 68 140h-14v700h114v-700q-70 -75 -69 -114z"/>
<glyph glyph-name="iogonek" horiz-adv-x="245" unicode="į" d="M114 -114q0 -35 40 -37q29 2 50 17v-77q-33 -23 -82 -23q-51 0 -78.5 26.5t-27.5 67.5q0 77 63 140h-10v480h107v-480q-28 -27 -45 -58.5t-17 -55.5zM189 636q0 -31 -19 -47.5t-47 -16.5t-47 16.5t-19 47.5q0 30 19 46.5t47 16.5t47 -16.5t19 -46.5z"/>
<glyph glyph-name="Idotaccent" horiz-adv-x="284" unicode="İ" d="M70 830q0 32 20 49.5t50 17.5t50 -17.5t20 -49.5q0 -34 -20 -51.5t-50 -17.5t-50 18t-20 51zM85 700h114v-700h-114v700z"/>
<glyph glyph-name="dotlessi" horiz-adv-x="245" unicode="ı" d="M69 480h107v-480h-107v480z"/>
<glyph glyph-name="IJ" horiz-adv-x="798" unicode="Ĳ" d="M408 700h311v-496q0 -110 -67 -163t-173 -53t-180 41v109q65 -42 156 -42q150 0 150 118v381h-197v105zM85 700h114v-700h-114v700z"/>
<glyph glyph-name="ij" horiz-adv-x="490" unicode="ĳ" d="M433 636q0 -31 -19 -47.5t-47 -16.5t-47 16.5t-19 47.5q0 30 19 46.5t47 16.5t47 -16.5t19 -46.5zM421 -79q0 -82 -43.5 -118t-109.5 -36q-46 0 -79 14v94q23 -10 51 -10q74 0 74 74v541h107v-559zM188 636q0 -31 -18.5 -47.5t-46.5 -16.5t-47 16.5t-19 47.5 q0 30 19 46.5t47 16.5t46.5 -16.5t18.5 -46.5zM176 0h-107v480h107v-480z"/>
<glyph glyph-name="Kcommaaccent" horiz-adv-x="678" unicode="Ķ" d="M376 -246h-90l28 199h103zM199 0h-114v700h114v-292h138l195 292h129l-232 -341l250 -359h-129l-211 303h-140v-303z"/>
<glyph glyph-name="kcommaaccent" horiz-adv-x="533" unicode="ķ" d="M296 -246h-90l28 199h103zM532 0h-123l-158 199h-77v-199h-107v700h107v-410h79l138 190h122l-174 -238z"/>
<glyph glyph-name="Lacute" horiz-adv-x="581" unicode="Ĺ" d="M197 767h-109l91 148h124zM85 700h114v-594h368v-106h-482v700z"/>
<glyph glyph-name="lacute" horiz-adv-x="245" unicode="ĺ" d="M167 773h-109l91 148h124zM69 730h107v-730h-107v730z"/>
<glyph glyph-name="Lcommaaccent" horiz-adv-x="581" unicode="Ļ" d="M342 -246h-90l28 199h103zM85 700h114v-594h368v-106h-482v700z"/>
<glyph glyph-name="lcommaaccent" horiz-adv-x="245" unicode="ļ" d="M139 -246h-90l28 199h103zM69 730h107v-730h-107v730z"/>
<glyph glyph-name="Lcaron" horiz-adv-x="581" unicode="Ľ" d="M85 700h114v-594h368v-106h-482v700zM375 700h98l-30 -192h-85z"/>
<glyph glyph-name="lcaron" horiz-adv-x="245" unicode="ľ" d="M69 730h107v-730h-107v730zM246 730h98l-30 -192h-85z"/>
<glyph glyph-name="Ldot" horiz-adv-x="586" unicode="Ŀ" d="M85 700h114v-594h368v-106h-482v700zM443 367q0 -30 -18 -46t-46 -16q-27 0 -46 16t-19 46q0 31 19 47t46 16q28 0 46 -16t18 -47z"/>
<glyph glyph-name="ldot" horiz-adv-x="340" unicode="ŀ" d="M360 350q0 -31 -19 -48t-48 -17t-48.5 17t-19.5 48t19.5 48t48.5 17t48 -17t19 -48zM69 730h107v-730h-107v730z"/>
<glyph glyph-name="Lslash" horiz-adv-x="593" unicode="Ł" d="M579 0h-482v259l-80 -32v94l80 33v346h114v-304l194 79v-94l-194 -79v-196h368v-106z"/>
<glyph glyph-name="lslash" horiz-adv-x="336" unicode="ł" d="M120 730h107v-297l82 33v-88l-82 -34v-344h-107v302l-81 -33v88l81 34v339z"/>
<glyph glyph-name="Nacute" horiz-adv-x="767" unicode="Ń" d="M416 767h-109l91 148h124zM199 0h-114v700h107l377 -512q-1 24 -1 77v435h114v-700h-107l-377 512q1 -24 1 -76v-436z"/>
<glyph glyph-name="nacute" horiz-adv-x="588" unicode="ń" d="M326 547h-109l91 148h124zM162 414q66 79 167 79q90 0 144 -54.5t54 -141.5v-297h-107v283q0 56 -31 85.5t-81 29.5q-79 0 -134 -80v-318h-107v480h95v-66z"/>
<glyph glyph-name="Ncommaaccent" horiz-adv-x="767" unicode="Ņ" d="M411 -246h-90l28 199h103zM199 0h-114v700h107l377 -512q-1 24 -1 77v435h114v-700h-107l-377 512q1 -24 1 -76v-436z"/>
<glyph glyph-name="ncommaaccent" horiz-adv-x="588" unicode="ņ" d="M315 -246h-90l28 199h103zM162 414q66 79 167 79q90 0 144 -54.5t54 -141.5v-297h-107v283q0 56 -31 85.5t-81 29.5q-79 0 -134 -80v-318h-107v480h95v-66z"/>
<glyph glyph-name="Ncaron" horiz-adv-x="767" unicode="Ň" d="M566 911l-132 -150h-95l-132 150h111l69 -79l68 79h111zM199 0h-114v700h107l377 -512q-1 24 -1 77v435h114v-700h-107l-377 512q1 -24 1 -76v-436z"/>
<glyph glyph-name="ncaron" horiz-adv-x="588" unicode="ň" d="M476 691l-132 -150h-95l-132 150h111l69 -79l68 79h111zM162 414q66 79 167 79q90 0 144 -54.5t54 -141.5v-297h-107v283q0 56 -31 85.5t-81 29.5q-79 0 -134 -80v-318h-107v480h95v-66z"/>
<glyph glyph-name="Eng" horiz-adv-x="767" unicode="Ŋ" d="M682 -64q0 -82 -42.5 -124t-113.5 -42q-35 0 -74 11v99q18 -7 44 -7q72 0 72 74v63l-370 502q1 -24 1 -76v-436h-114v700h107l377 -512q-1 24 -1 77v435h114v-764z"/>
<glyph glyph-name="eng" horiz-adv-x="588" unicode="ŋ" d="M527 -82q0 -81 -43.5 -116t-105.5 -35q-45 0 -76 14v90q23 -10 46 -10q72 0 72 75v347q0 56 -31 85.5t-81 29.5q-79 0 -134 -80v-318h-107v480h95v-66q66 79 167 79q90 0 144 -54.5t54 -141.5v-379z"/>
<glyph glyph-name="Omacron" horiz-adv-x="816" unicode="Ō" d="M252 866h312v-90h-312v90zM660 350q0 108 -65.5 182t-186.5 74q-120 0 -186 -74t-66 -182t66 -182t186 -74q121 0 186.5 74t65.5 182zM40 350q0 71 23.5 135t67.5 115.5t116 82t161 30.5t160.5 -30.5t116 -82t68 -115.5t23.5 -135t-23.5 -135t-68 -115.5t-116 -82 t-160.5 -30.5t-161 30.5t-116 82t-67.5 115.5t-23.5 135z"/>
<glyph glyph-name="omacron" horiz-adv-x="594" unicode="ō" d="M141 643h312v-90h-312v90zM448 240q0 70 -42 112.5t-109 42.5q-68 0 -110 -42.5t-42 -112.5t42 -112.5t110 -42.5q67 0 109 42.5t42 112.5zM37 240q0 119 76.5 186t183.5 67q108 0 184 -67t76 -186t-76 -186t-184 -67q-107 0 -183.5 67t-76.5 186z"/>
<glyph glyph-name="Ohungarumlaut" horiz-adv-x="816" unicode="Ő" d="M371 777h-105l71 150h111zM538 777h-105l71 150h111zM660 350q0 108 -65.5 182t-186.5 74q-120 0 -186 -74t-66 -182t66 -182t186 -74q121 0 186.5 74t65.5 182zM40 350q0 71 23.5 135t67.5 115.5t116 82t161 30.5t160.5 -30.5t116 -82t68 -115.5t23.5 -135t-23.5 -135 t-68 -115.5t-116 -82t-160.5 -30.5t-161 30.5t-116 82t-67.5 115.5t-23.5 135z"/>
<glyph glyph-name="ohungarumlaut" horiz-adv-x="594" unicode="ő" d="M260 554h-105l71 150h111zM427 554h-105l71 150h111zM448 240q0 70 -42 112.5t-109 42.5q-68 0 -110 -42.5t-42 -112.5t42 -112.5t110 -42.5q67 0 109 42.5t42 112.5zM37 240q0 119 76.5 186t183.5 67q108 0 184 -67t76 -186t-76 -186t-184 -67q-107 0 -183.5 67 t-76.5 186z"/>
<glyph glyph-name="OE" horiz-adv-x="1036" unicode="Œ" d="M157 350q0 -113 70.5 -185t187.5 -72q63 0 114 17v480q-51 17 -114 17q-117 0 -187.5 -72t-70.5 -185zM529 0q-48 -13 -121 -13q-89 0 -161 30.5t-116 82t-67 115.5t-23 135t23 135t67 115.5t116 82t161 30.5q73 0 121 -13h454v-104h-341v-191h311v-104h-311v-197h347 v-104h-460z"/>
<glyph glyph-name="oe" horiz-adv-x="959" unicode="œ" d="M697 404q-58 0 -98 -34t-43 -94h266q1 4 1 13q0 43 -30.5 79t-95.5 36zM145 240q0 -70 42 -112.5t110 -42.5q67 0 109 42.5t42 112.5t-42 112.5t-109 42.5q-68 0 -110 -42.5t-42 -112.5zM500 94q-32 -52 -86.5 -79.5t-121.5 -27.5q-104 0 -179.5 67.5t-75.5 185.5 t75 185.5t179 67.5q67 0 122 -27.5t87 -78.5q32 52 84.5 79t110.5 27q113 0 171.5 -66t58.5 -163q0 -36 -7 -67h-361q9 -59 60.5 -89t123.5 -30q80 0 150 34v-89q-70 -36 -174 -36q-68 0 -125.5 27t-91.5 80z"/>
<glyph glyph-name="Racute" horiz-adv-x="701" unicode="Ŕ" d="M370 767h-109l91 148h124zM199 596v-233h171q64 0 106 27t42 89t-42 89.5t-106 27.5h-171zM199 0h-114v700h280q52 0 97.5 -11t85.5 -35.5t63 -68.5t23 -104q0 -88 -47 -138.5t-123 -68.5l224 -274h-137l-210 262h-142v-262z"/>
<glyph glyph-name="racute" horiz-adv-x="378" unicode="ŕ" d="M242 547h-109l91 148h124zM162 401q26 41 73.5 65.5t105.5 24.5q15 0 23 -1v-105q-22 2 -31 2q-55 0 -97.5 -25.5t-61.5 -70.5v-291h-107v480h95v-79z"/>
<glyph glyph-name="Rcommaaccent" horiz-adv-x="701" unicode="Ŗ" d="M374 -246h-90l28 199h103zM199 596v-233h171q64 0 106 27t42 89t-42 89.5t-106 27.5h-171zM199 0h-114v700h280q52 0 97.5 -11t85.5 -35.5t63 -68.5t23 -104q0 -88 -47 -138.5t-123 -68.5l224 -274h-137l-210 262h-142v-262z"/>
<glyph glyph-name="rcommaaccent" horiz-adv-x="378" unicode="ŗ" d="M133 -246h-90l28 199h103zM162 401q26 41 73.5 65.5t105.5 24.5q15 0 23 -1v-105q-22 2 -31 2q-55 0 -97.5 -25.5t-61.5 -70.5v-291h-107v480h95v-79z"/>
<glyph glyph-name="Rcaron" horiz-adv-x="701" unicode="Ř" d="M520 911l-132 -150h-95l-132 150h111l69 -79l68 79h111zM199 596v-233h171q64 0 106 27t42 89t-42 89.5t-106 27.5h-171zM199 0h-114v700h280q52 0 97.5 -11t85.5 -35.5t63 -68.5t23 -104q0 -88 -47 -138.5t-123 -68.5l224 -274h-137l-210 262h-142v-262z"/>
<glyph glyph-name="rcaron" horiz-adv-x="378" unicode="ř" d="M392 691l-132 -150h-95l-132 150h111l69 -79l68 79h111zM162 401q26 41 73.5 65.5t105.5 24.5q15 0 23 -1v-105q-22 2 -31 2q-55 0 -97.5 -25.5t-61.5 -70.5v-291h-107v480h95v-79z"/>
<glyph glyph-name="Sacute" horiz-adv-x="594" unicode="Ś" d="M320 767h-109l91 148h124zM48 522q0 92 70.5 141.5t175.5 49.5q127 0 219 -53v-109q-88 58 -205 58h-5q-139 0 -139 -85q0 -41 41 -68.5t100 -45.5t118 -41t100 -69.5t41 -115.5q0 -102 -73 -149.5t-188 -47.5h-4q-140 0 -248 61v112q107 -69 240 -69q157 0 157 87 q0 38 -29.5 65t-74 41t-96.5 33.5t-96.5 41t-74 63.5t-29.5 100z"/>
<glyph glyph-name="sacute" horiz-adv-x="470" unicode="ś" d="M262 547h-109l91 148h124zM42 350q0 73 55.5 108t135.5 35q93 0 173 -41v-94q-30 20 -77 33.5t-89 13.5q-37 0 -63 -12.5t-26 -39.5q0 -25 30 -41.5t72.5 -28t84.5 -27t72 -47.5t30 -81q0 -74 -58 -107.5t-149 -33.5q-113 0 -188 46v95q77 -51 183 -51q104 0 104 49 q0 24 -30 40.5t-72.5 28t-85 27t-72.5 48t-30 80.5z"/>
<glyph glyph-name="Scedilla" horiz-adv-x="594" unicode="Ş" d="M164 524q0 -41 41 -68.5t100 -45.5t118 -41t100 -69.5t41 -115.5q0 -91 -59.5 -138.5t-156.5 -56.5l-12 -43q48 0 74 -22t26 -62q0 -47 -39 -71t-99 -24q-56 0 -100 19v76q37 -21 85 -21q68 0 68 33q0 28 -66 28q-21 0 -40 -3l20 89q-120 7 -214 60v112q107 -69 240 -69 q157 0 157 87q0 38 -29.5 65t-74 41t-96.5 33.5t-96.5 41t-74 63.5t-29.5 100q0 92 70.5 141.5t175.5 49.5q127 0 219 -53v-109q-88 58 -205 58h-5q-139 0 -139 -85z"/>
<glyph glyph-name="scedilla" horiz-adv-x="470" unicode="ş" d="M151 353q0 -25 30 -41.5t72.5 -28t84.5 -27t72 -47.5t30 -81q0 -119 -152 -137l-11 -45q98 0 100 -82q0 -48 -39.5 -72.5t-99.5 -24.5q-56 0 -100 19v76q37 -21 85 -21q68 0 68 33q0 28 -66 28q-21 0 -40 -3l21 89q-99 7 -161 45v95q77 -51 183 -51q104 0 104 49 q0 24 -30 40.5t-72.5 28t-85 27t-72.5 48t-30 80.5q0 73 55.5 108t135.5 35q93 0 173 -41v-94q-30 20 -77 33.5t-89 13.5q-37 0 -63 -12.5t-26 -39.5z"/>
<glyph glyph-name="Scaron" horiz-adv-x="594" unicode="Š" d="M470 911l-132 -150h-95l-132 150h111l69 -79l68 79h111zM48 522q0 92 70.5 141.5t175.5 49.5q127 0 219 -53v-109q-88 58 -205 58h-5q-139 0 -139 -85q0 -41 41 -68.5t100 -45.5t118 -41t100 -69.5t41 -115.5q0 -102 -73 -149.5t-188 -47.5h-4q-140 0 -248 61v112 q107 -69 240 -69q157 0 157 87q0 38 -29.5 65t-74 41t-96.5 33.5t-96.5 41t-74 63.5t-29.5 100z"/>
<glyph glyph-name="scaron" horiz-adv-x="470" unicode="š" d="M412 691l-132 -150h-95l-132 150h111l69 -79l68 79h111zM42 350q0 73 55.5 108t135.5 35q93 0 173 -41v-94q-30 20 -77 33.5t-89 13.5q-37 0 -63 -12.5t-26 -39.5q0 -25 30 -41.5t72.5 -28t84.5 -27t72 -47.5t30 -81q0 -74 -58 -107.5t-149 -33.5q-113 0 -188 46v95 q77 -51 183 -51q104 0 104 49q0 24 -30 40.5t-72.5 28t-85 27t-72.5 48t-30 80.5z"/>
<glyph glyph-name="Tcommaaccent" horiz-adv-x="605" unicode="Ţ" d="M319 -246h-90l28 199h103zM14 700h577v-105h-231v-595h-114v595h-232v105z"/>
<glyph glyph-name="tcommaaccent" horiz-adv-x="416" unicode="ţ" d="M266 -246h-90l28 199h103zM102 625l106 26v-171h174v-94h-174v-220q0 -46 21.5 -65t69.5 -19q50 0 97 19v-92q-58 -21 -129 -21q-74 0 -119.5 39t-45.5 119v240h-86v94h86v145z"/>
<glyph glyph-name="Tcaron" horiz-adv-x="605" unicode="Ť" d="M487 911l-132 -150h-95l-132 150h111l69 -79l68 79h111zM14 700h577v-105h-231v-595h-114v595h-232v105z"/>
<glyph glyph-name="tcaron" horiz-adv-x="416" unicode="ť" d="M102 625l106 26v-171h174v-94h-174v-220q0 -46 21.5 -65t69.5 -19q50 0 97 19v-92q-58 -21 -129 -21q-74 0 -119.5 39t-45.5 119v240h-86v94h86v145zM296 736h98l-30 -185h-85z"/>
<glyph glyph-name="Tbar" horiz-adv-x="615" unicode="Ŧ" d="M365 0h-114v299h-119v85h119v211h-232v105h577v-105h-231v-211h118v-85h-118v-299z"/>
<glyph glyph-name="tbar" horiz-adv-x="416" unicode="ŧ" d="M208 165q0 -46 21.5 -65t69.5 -19q50 0 97 19v-91q-63 -21 -129 -21q-74 0 -119.5 39t-45.5 119v74h-49v76h49v93h-86v91h86v145l106 26v-171h174v-91h-174v-93h141v-76h-141v-55z"/>
<glyph glyph-name="Umacron" horiz-adv-x="754" unicode="Ū" d="M219 866h312v-90h-312v90zM562 700h114v-441q0 -73 -24.5 -127.5t-67 -85t-94 -45t-112.5 -14.5t-113 14.5t-95 45t-67.5 85t-24.5 127.5v441h114v-435q0 -172 186 -172q184 0 184 172v435z"/>
<glyph glyph-name="umacron" horiz-adv-x="589" unicode="ū" d="M138 646h312v-90h-312v90zM415 480h107v-480h-95v66q-66 -79 -167 -79q-93 0 -145.5 54t-52.5 142v297h107v-283q0 -115 112 -115q79 0 134 80v318z"/>
<glyph glyph-name="Uring" horiz-adv-x="754" unicode="Ů" d="M325 855q0 -23 14 -36.5t35 -13.5t35 13.5t14 36.5q0 21 -14 35t-35 14t-35 -14t-14 -35zM494 855q0 -52 -35 -83.5t-84 -31.5q-50 0 -85.5 31.5t-35.5 83.5q0 51 35.5 82.5t85.5 31.5q49 0 84 -31.5t35 -82.5zM562 700h114v-441q0 -73 -24.5 -127.5t-67 -85t-94 -45 t-112.5 -14.5t-113 14.5t-95 45t-67.5 85t-24.5 127.5v441h114v-435q0 -172 186 -172q184 0 184 172v435z"/>
<glyph glyph-name="uring" horiz-adv-x="589" unicode="ů" d="M244 635q0 -23 14 -36.5t35 -13.5t35 13.5t14 36.5q0 21 -14 35t-35 14t-35 -14t-14 -35zM413 635q0 -52 -35 -83.5t-84 -31.5q-50 0 -85.5 31.5t-35.5 83.5q0 51 35.5 82.5t85.5 31.5q49 0 84 -31.5t35 -82.5zM415 480h107v-480h-95v66q-66 -79 -167 -79 q-93 0 -145.5 54t-52.5 142v297h107v-283q0 -115 112 -115q79 0 134 80v318z"/>
<glyph glyph-name="Uhungarumlaut" horiz-adv-x="754" unicode="Ű" d="M338 777h-105l71 150h111zM505 777h-105l71 150h111zM562 700h114v-441q0 -73 -24.5 -127.5t-67 -85t-94 -45t-112.5 -14.5t-113 14.5t-95 45t-67.5 85t-24.5 127.5v441h114v-435q0 -172 186 -172q184 0 184 172v435z"/>
<glyph glyph-name="uhungarumlaut" horiz-adv-x="589" unicode="ű" d="M257 557h-105l71 150h111zM424 557h-105l71 150h111zM415 480h107v-480h-95v66q-66 -79 -167 -79q-93 0 -145.5 54t-52.5 142v297h107v-283q0 -115 112 -115q79 0 134 80v318z"/>
<glyph glyph-name="Uogonek" horiz-adv-x="754" unicode="Ų" d="M555 -211q-33 -23 -82 -23q-51 0 -78.5 26.5t-27.5 67.5q2 67 60 129q-32 -2 -49 -2q-61 0 -113 14.5t-95 45t-67.5 85t-24.5 127.5v441h114v-435q0 -172 186 -172q184 0 184 172v435h114v-441q0 -146 -95 -215q-116 -84 -116 -158q0 -35 40 -37q29 2 50 17v-77z"/>
<glyph glyph-name="uogonek" horiz-adv-x="589" unicode="ų" d="M522 480v-480q-39 -26 -60.5 -57t-20.5 -56q-1 -17 9.5 -27t29.5 -10q23 0 42 10v-77q-32 -16 -74 -16q-51 0 -78.5 26.5t-27.5 67.5q2 72 85 150v55q-66 -79 -167 -79q-93 0 -145.5 54t-52.5 142v297h107v-283q0 -115 112 -115q79 0 134 80v318h107z"/>
<glyph glyph-name="Wcircumflex" horiz-adv-x="1034" unicode="Ŵ" d="M473 915h95l129 -150h-111l-65 76l-66 -76h-111zM897 700h125l-219 -700h-125l-160 522l-160 -522h-125l-218 700h124l159 -566l170 566h101l170 -566z"/>
<glyph glyph-name="wcircumflex" horiz-adv-x="808" unicode="ŵ" d="M359 695h95l129 -150h-111l-65 76l-66 -76h-111zM679 480h113l-159 -480h-115l-114 344l-114 -344h-114l-160 480h113l108 -363l117 363h100l118 -363z"/>
<glyph glyph-name="Ycircumflex" horiz-adv-x="677" unicode="Ŷ" d="M293 915h95l129 -150h-111l-65 76l-66 -76h-111zM395 0h-114v257l-274 443h128l203 -339l204 339h128l-275 -443v-257z"/>
<glyph glyph-name="ycircumflex" horiz-adv-x="551" unicode="ŷ" d="M222 695h95l129 -150h-111l-65 76l-66 -76h-111zM283 118l143 362h112l-225 -545q-69 -167 -193 -167q-29 0 -63 8v91q22 -7 49 -7q77 0 119 112l10 24l-228 484h114z"/>
<glyph glyph-name="Ydieresis" horiz-adv-x="677" unicode="Ÿ" d="M297 835q0 -26 -18.5 -45t-45.5 -19q-26 0 -45 19t-19 45t19 45t45 19q27 0 45.5 -19t18.5 -45zM505 835q0 -26 -19 -45t-45 -19t-45 19t-19 45t19 45t45 19t45 -19t19 -45zM395 0h-114v257l-274 443h128l203 -339l204 339h128l-275 -443v-257z"/>
<glyph glyph-name="Zacute" horiz-adv-x="600" unicode="Ź" d="M339 767h-109l91 148h124zM566 0h-532v91l373 504h-361v105h506v-91l-373 -503h387v-106z"/>
<glyph glyph-name="zacute" horiz-adv-x="473" unicode="ź" d="M273 547h-109l91 148h124zM47 480h376v-80l-256 -309h273v-91h-406v80l256 309h-243v91z"/>
<glyph glyph-name="Zdotaccent" horiz-adv-x="600" unicode="Ż" d="M234 830q0 32 20 49.5t50 17.5t50 -17.5t20 -49.5q0 -34 -20 -51.5t-50 -17.5t-50 18t-20 51zM566 0h-532v91l373 504h-361v105h506v-91l-373 -503h387v-106z"/>
<glyph glyph-name="zdotaccent" horiz-adv-x="473" unicode="ż" d="M168 610q0 32 20 49.5t50 17.5t50 -17.5t20 -49.5q0 -34 -20 -51.5t-50 -17.5t-50 18t-20 51zM47 480h376v-80l-256 -309h273v-91h-406v80l256 309h-243v91z"/>
<glyph glyph-name="Zcaron" horiz-adv-x="600" unicode="Ž" d="M489 911l-132 -150h-95l-132 150h111l69 -79l68 79h111zM566 0h-532v91l373 504h-361v105h506v-91l-373 -503h387v-106z"/>
<glyph glyph-name="zcaron" horiz-adv-x="473" unicode="ž" d="M423 691l-132 -150h-95l-132 150h111l69 -79l68 79h111zM47 480h376v-80l-256 -309h273v-91h-406v80l256 309h-243v91z"/>
<glyph glyph-name="Scommaaccent" horiz-adv-x="594" unicode="Ș" d="M318 -246h-90l28 199h103zM48 522q0 92 70.5 141.5t175.5 49.5q127 0 219 -53v-109q-88 58 -205 58h-5q-139 0 -139 -85q0 -41 41 -68.5t100 -45.5t118 -41t100 -69.5t41 -115.5q0 -102 -73 -149.5t-188 -47.5h-4q-140 0 -248 61v112q107 -69 240 -69q157 0 157 87 q0 38 -29.5 65t-74 41t-96.5 33.5t-96.5 41t-74 63.5t-29.5 100z"/>
<glyph glyph-name="scommaaccent" horiz-adv-x="470" unicode="ș" d="M257 -246h-90l28 199h103zM42 350q0 73 55.5 108t135.5 35q93 0 173 -41v-94q-30 20 -77 33.5t-89 13.5q-37 0 -63 -12.5t-26 -39.5q0 -25 30 -41.5t72.5 -28t84.5 -27t72 -47.5t30 -81q0 -74 -58 -107.5t-149 -33.5q-113 0 -188 46v95q77 -51 183 -51q104 0 104 49 q0 24 -30 40.5t-72.5 28t-85 27t-72.5 48t-30 80.5z"/>
<glyph glyph-name="uni021A" horiz-adv-x="605" unicode="Ț" d="M319 -246h-90l28 199h103zM14 700h577v-105h-231v-595h-114v595h-232v105z"/>
<glyph glyph-name="uni021B" horiz-adv-x="416" unicode="ț" d="M266 -246h-90l28 199h103zM102 625l106 26v-171h174v-94h-174v-220q0 -46 21.5 -65t69.5 -19q50 0 97 19v-92q-58 -21 -129 -21q-74 0 -119.5 39t-45.5 119v240h-86v94h86v145z"/>
<glyph glyph-name="circumflex" horiz-adv-x="347" unicode="ˆ" d="M126 915h95l129 -150h-111l-65 76l-66 -76h-111z"/>
<glyph glyph-name="caron" horiz-adv-x="347" unicode="ˇ" d="M353 911l-132 -150h-95l-132 150h111l69 -79l68 79h111z"/>
<glyph glyph-name="breve" horiz-adv-x="348" unicode="˘" d="M321 801q-61 -43 -147 -43q-87 0 -148 43v92q66 -43 148 -43q81 0 147 43v-92z"/>
<glyph glyph-name="dotaccent" horiz-adv-x="132" unicode="˙" d="M-4 832q0 32 20 49.5t50 17.5t50 -17.5t20 -49.5q0 -34 -20 -51.5t-50 -17.5t-50 18t-20 51z"/>
<glyph glyph-name="ring" horiz-adv-x="234" unicode="˚" d="M68 855q0 -23 14 -36.5t35 -13.5t35 13.5t14 36.5q0 21 -14 35t-35 14t-35 -14t-14 -35zM237 855q0 -52 -35 -83.5t-84 -31.5q-50 0 -85.5 31.5t-35.5 83.5q0 51 35.5 82.5t85.5 31.5q49 0 84 -31.5t35 -82.5z"/>
<glyph glyph-name="ogonek" horiz-adv-x="220" unicode="˛" d="M90 0h99q-39 -26 -60.5 -57.5t-20.5 -56.5q-1 -17 9.5 -26.5t29.5 -10.5q28 2 51 17v-77q-34 -23 -83 -23q-51 0 -78.5 26.5t-27.5 67.5q2 80 81 140z"/>
<glyph glyph-name="tilde" horiz-adv-x="374" unicode="˜" d="M358 877q3 -15 3 -29q0 -43 -26 -68t-64 -25q-36 0 -85 21t-60 21q-13 0 -20.5 -8.5t-7.5 -20.5q0 -1 0.5 -3.5t0.5 -3.5h-83q-3 15 -3 29q0 43 25.5 68t63.5 25q35 0 84.5 -21t61.5 -21q28 0 28 27q0 2 -0.5 5t-0.5 4h83z"/>
<glyph glyph-name="hungarumlaut" horiz-adv-x="400" unicode="˝" d="M138 777h-105l71 150h111zM305 777h-105l71 150h111z"/>
<glyph glyph-name="uni0326" horiz-adv-x="152" unicode="̦" d="M111 -246h-90l28 199h103z"/>
<glyph glyph-name="uni0401" horiz-adv-x="619" unicode="Ё" d="M85 700h482v-104h-368v-191h338v-104h-338v-197h374v-104h-488v700zM292 835q0 -26 -18.5 -45t-45.5 -19q-26 0 -45 19t-19 45t19 45t45 19q27 0 45.5 -19t18.5 -45zM500 835q0 -26 -19 -45t-45 -19t-45 19t-19 45t19 45t45 19t45 -19t19 -45z"/>
<glyph glyph-name="uni0410" horiz-adv-x="728" unicode="А" d="M351 550l-123 -299h272l-123 299q-8 22 -13 39q-5 -17 -13 -39zM127 0h-121l296 700h125l295 -700h-120l-62 151h-351z"/>
<glyph glyph-name="uni0411" horiz-adv-x="672" unicode="Б" d="M199 104h174q32 0 55.5 4t47 14.5t35.5 33.5t12 57q0 35 -12.5 58t-35.5 34t-46.5 15t-55.5 4h-174v-220zM199 428h172q268 0 268 -215q0 -213 -268 -213h-286v700h499v-105h-385v-167z"/>
<glyph glyph-name="uni0412" horiz-adv-x="691" unicode="В" d="M505 505q0 96 -136 96h-170v-191l186 -1q53 0 86.5 24t33.5 72zM533 206q0 107 -145 107h-189v-213h173q35 0 59 3t49.5 13t39 32.5t13.5 57.5zM85 700h296q112 0 176 -45t64 -132q0 -60 -31 -99.5t-79 -54.5q57 -16 97.5 -58.5t40.5 -116.5q0 -56 -25 -96.5t-67 -60.5 t-84.5 -28.5t-89.5 -8.5h-298v700z"/>
<glyph glyph-name="uni0413" horiz-adv-x="572" unicode="Г" d="M199 0h-114v700h474v-105h-360v-595z"/>
<glyph glyph-name="uni0414" horiz-adv-x="789" unicode="Д" d="M330 595q-21 -340 -100 -491h325v491h-225zM126 -159h-104v263h84q112 204 112 596h451v-596h89v-263h-104v159h-528v-159z"/>
<glyph glyph-name="uni0415" horiz-adv-x="619" unicode="Е" d="M85 700h482v-104h-368v-191h338v-104h-338v-197h374v-104h-488v700z"/>
<glyph glyph-name="uni0416" horiz-adv-x="961" unicode="Ж" d="M135 0h-129l219 359l-201 341h128l165 -292h107v292h114v-292h106l165 292h129l-202 -341l219 -359h-128l-184 303h-105v-303h-114v303h-106z"/>
<glyph glyph-name="uni0417" horiz-adv-x="617" unicode="З" d="M575 190q0 -73 -44 -120.5t-104.5 -65t-133.5 -17.5q-134 0 -254 45v111q107 -50 235 -50h10q175 0 175 111q0 106 -159 106h-150v104h140q65 0 103 24.5t38 70.5q0 98 -161 98h-7q-106 0 -212 -51v112q107 45 228 45q122 0 195 -48t73 -140q0 -59 -31 -99.5t-83 -57.5 q59 -14 100.5 -58.5t41.5 -119.5z"/>
<glyph glyph-name="uni0418" horiz-adv-x="767" unicode="И" d="M682 0h-114v436q0 52 1 76l-377 -512h-107v700h114v-435q0 -53 -1 -77l377 512h107v-700z"/>
<glyph glyph-name="uni0419" horiz-adv-x="767" unicode="Й" d="M530 802q-61 -43 -147 -43q-87 0 -148 43v92q66 -43 148 -43q81 0 147 43v-92zM568 0v436q0 52 1 76l-377 -512h-107v700h114v-435q0 -53 -1 -77l377 512h107v-700h-114z"/>
<glyph glyph-name="uni041A" horiz-adv-x="678" unicode="К" d="M199 0h-114v700h114v-292h138l195 292h129l-232 -341l250 -359h-129l-211 303h-140v-303z"/>
<glyph glyph-name="uni041B" horiz-adv-x="751" unicode="Л" d="M213 700h453v-700h-114v595h-232q-6 -74 -10.5 -116t-12.5 -108t-16.5 -104.5t-21.5 -88.5t-30 -79t-39 -56.5t-50.5 -40t-63.5 -12.5q-32 0 -69 12v105q20 -7 48 -7q27 1 49 22t36.5 60t25.5 86.5t18.5 111t13 122t10.5 130.5q3 45 5 68z"/>
<glyph glyph-name="uni041C" horiz-adv-x="908" unicode="М" d="M720 700h103v-700h-114v490l-221 -332h-68l-221 333v-491h-114v700h103l266 -401z"/>
<glyph glyph-name="uni041D" horiz-adv-x="767" unicode="Н" d="M568 700h114v-700h-114v298h-369v-298h-114v700h114v-297h369v297z"/>
<glyph glyph-name="uni041E" horiz-adv-x="816" unicode="О" d="M660 350q0 108 -65.5 182t-186.5 74q-120 0 -186 -74t-66 -182t66 -182t186 -74q121 0 186.5 74t65.5 182zM40 350q0 71 23.5 135t67.5 115.5t116 82t161 30.5t160.5 -30.5t116 -82t68 -115.5t23.5 -135t-23.5 -135t-68 -115.5t-116 -82t-160.5 -30.5t-161 30.5t-116 82 t-67.5 115.5t-23.5 135z"/>
<glyph glyph-name="uni041F" horiz-adv-x="758" unicode="П" d="M199 0h-114v700h588v-700h-114v595h-360v-595z"/>
<glyph glyph-name="uni0420" horiz-adv-x="664" unicode="Р" d="M518 470q0 71 -47.5 98.5t-129.5 27.5h-142v-252h142q82 0 129.5 27.5t47.5 98.5zM85 700h250q299 0 299 -230t-299 -230h-136v-240h-114v700z"/>
<glyph glyph-name="uni0421" horiz-adv-x="659" unicode="С" d="M42 344q0 90 32 162t85 116.5t118 67.5t136 23q107 0 199 -46v-111q-75 52 -180 52q-111 0 -192 -67t-82 -197q0 -82 42 -141t103 -85t131 -26q112 0 183 54v-113q-94 -46 -203 -46q-70 0 -135 22.5t-119 65.5t-86 113t-32 156z"/>
<glyph glyph-name="uni0422" horiz-adv-x="605" unicode="Т" d="M14 700h577v-105h-231v-595h-114v595h-232v105z"/>
<glyph glyph-name="uni0423" horiz-adv-x="648" unicode="У" d="M396 159q-80 -172 -225 -172q-47 0 -100 16v101q39 -13 81 -13q85 0 124 78l13 26l-284 505h127l215 -400l179 400h124z"/>
<glyph glyph-name="uni0424" horiz-adv-x="869" unicode="Ф" d="M490 550v-400q120 7 178.5 60t58.5 140t-58.5 140t-178.5 60zM142 350q0 -87 58.5 -140t178.5 -60v400q-120 -7 -178.5 -59.5t-58.5 -140.5zM490 -38h-111v90q-163 5 -258 83.5t-95 214.5t95 214.5t258 83.5v90h111v-90q164 -6 258.5 -84t94.5 -214t-94.5 -214 t-258.5 -84v-90z"/>
<glyph glyph-name="uni0425" horiz-adv-x="660" unicode="Х" d="M133 0h-135l261 361l-246 339h135l182 -253l182 253h135l-247 -339l262 -361h-135l-197 276z"/>
<glyph glyph-name="uni0426" horiz-adv-x="794" unicode="Ц" d="M763 -159h-104l1 159h-575v700h114v-594h362v594h114v-594h88v-265z"/>
<glyph glyph-name="uni0427" horiz-adv-x="691" unicode="Ч" d="M606 0h-114v263q-97 -32 -192 -32q-121 1 -189 61.5t-68 177.5v230h114v-230q0 -131 171 -133q84 0 164 32v331h114v-700z"/>
<glyph glyph-name="uni0428" horiz-adv-x="1057" unicode="Ш" d="M972 0h-887v700h114v-594h273v594h114v-594h272v594h114v-700z"/>
<glyph glyph-name="uni0429" horiz-adv-x="1091" unicode="Щ" d="M1060 -159h-104v159h-871v700h114v-594h273v594h114v-594h272v594h114v-594h88v-265z"/>
<glyph glyph-name="uni042A" horiz-adv-x="767" unicode="Ъ" d="M303 356v-252h142q82 0 129.5 27.5t47.5 98.5t-47.5 98.5t-129.5 27.5h-142zM439 0h-250v595h-173v105h287v-240h136q299 -2 299 -230q0 -230 -299 -230z"/>
<glyph glyph-name="uni042B" horiz-adv-x="901" unicode="Ы" d="M816 0h-114v700h114v-700zM199 356v-252h142q82 0 129.5 27.5t47.5 98.5t-47.5 98.5t-129.5 27.5h-142zM335 0h-250v700h114v-240h136q299 -2 299 -230q0 -230 -299 -230z"/>
<glyph glyph-name="uni042C" horiz-adv-x="663" unicode="Ь" d="M199 356v-252h142q82 0 129.5 27.5t47.5 98.5t-47.5 98.5t-129.5 27.5h-142zM335 0h-250v700h114v-240h136q299 -2 299 -230q0 -230 -299 -230z"/>
<glyph glyph-name="uni042D" horiz-adv-x="657" unicode="Э" d="M45 667q90 46 200 46q56 0 109 -14t100.5 -43.5t83 -72.5t56.5 -105t21 -136q0 -89 -32 -159.5t-85.5 -112t-118.5 -62.5t-136 -21q-106 0 -198 46v115q72 -55 181 -55q108 0 185 49.5t89 156.5h-343v102h341q-10 71 -51 119t-96.5 67.5t-122.5 19.5q-112 0 -183 -51v111 z"/>
<glyph glyph-name="uni042E" horiz-adv-x="1096" unicode="Ю" d="M436 350q0 -108 66 -182t186 -74q121 0 186.5 74t65.5 182t-65.5 182t-186.5 74q-120 0 -186 -74t-66 -182zM1056 350q0 -71 -23.5 -135t-67.5 -115.5t-115.5 -82t-160.5 -30.5q-158 0 -252.5 89.5t-110.5 220.5h-127v-297h-114v700h114v-297h127q16 132 110.5 221 t252.5 89q89 0 160.5 -30.5t115.5 -82t67.5 -115.5t23.5 -135z"/>
<glyph glyph-name="uni042F" horiz-adv-x="690" unicode="Я" d="M174 472q0 -62 43 -92.5t113 -30.5h161v247h-161q-70 0 -113 -31t-43 -93zM157 0h-135l201 263q-76 22 -120.5 74t-44.5 135q0 77 39.5 130t99.5 75.5t135 22.5h273v-700h-114v248h-146z"/>
<glyph glyph-name="uni0430" horiz-adv-x="557" unicode="а" d="M265 220q-53 0 -89 -19t-36 -60q0 -34 26 -52.5t64 -18.5q82 0 139 57v81q-58 12 -104 12zM476 111q0 -35 35 -35q12 0 32 6v-77q-30 -12 -68 -12q-72 0 -96 56q-77 -62 -181 -62q-70 0 -119 38.5t-49 108.5q0 84 63 122.5t151 38.5q58 0 125 -14v17q0 46 -33 74t-93 28 q-89 0 -173 -37v98q94 32 184 32q105 0 163.5 -52t58.5 -158v-172z"/>
<glyph glyph-name="uni0431" horiz-adv-x="585" unicode="б" d="M153 221q0 -59 37.5 -100.5t104.5 -41.5q68 0 105.5 41t37.5 101t-37.5 101t-105.5 41q-65 0 -103.5 -43.5t-38.5 -98.5zM547 223q0 -111 -69 -173.5t-181 -62.5t-182 73t-70 212q0 119 40 201t108 125q58 35 123 50.5t112.5 26t75.5 38.5v-104q-34 -26 -115.5 -41.5 t-132.5 -43.5q-74 -43 -102 -152q25 37 69.5 60.5t98.5 23.5q94 0 159.5 -64t65.5 -169z"/>
<glyph glyph-name="uni0432" horiz-adv-x="548" unicode="в" d="M174 399v-119h143q68 0 68 58q0 32 -19.5 46.5t-48.5 14.5h-143zM174 204v-123h149q76 0 76 61q0 62 -74 62h-151zM349 0h-282v480h274q71 0 111.5 -35.5t40.5 -92.5q0 -79 -68 -109q36 -11 59 -40t23 -71q0 -59 -39.5 -95.5t-118.5 -36.5z"/>
<glyph glyph-name="uni0433" horiz-adv-x="441" unicode="г" d="M174 0h-107v480h358v-94h-251v-386z"/>
<glyph glyph-name="uni0434" horiz-adv-x="643" unicode="д" d="M266 392q-6 -180 -64 -304h231v304h-167zM125 -129h-101v217h66q76 135 76 370v22h375v-392h71v-217h-101v129h-386v-129z"/>
<glyph glyph-name="uni0435" horiz-adv-x="546" unicode="е" d="M410 280q1 4 1 12q0 41 -30.5 76.5t-95.5 35.5q-57 0 -97.5 -33t-43.5 -91h266zM37 240q0 62 22 112.5t58 80t78 45t85 15.5q114 0 173.5 -65.5t59.5 -161.5q0 -35 -7 -66h-361q8 -61 60 -91.5t124 -30.5q82 0 152 34v-92q-69 -33 -172 -33q-117 0 -194.5 66t-77.5 187z "/>
<glyph glyph-name="uni0436" horiz-adv-x="771" unicode="ж" d="M766 0h-117l-143 191h-67v-191h-107v191h-66l-143 -191h-117l179 241l-161 239h117l131 -198h60v198h107v-198h61l131 198h116l-160 -239z"/>
<glyph glyph-name="uni0437" horiz-adv-x="483" unicode="з" d="M443 131q0 -65 -58.5 -104.5t-166.5 -39.5q-105 0 -180 39v92q71 -40 166 -40q131 0 131 66q0 59 -100 59h-98v82h98q90 0 90 54q0 31 -31 47.5t-84 16.5q-90 0 -163 -39v92q79 38 176 38q105 0 157.5 -39t52.5 -102q0 -42 -23 -69.5t-62 -37.5q43 -12 69 -41.5t26 -73.5 z"/>
<glyph glyph-name="uni0438" horiz-adv-x="590" unicode="и" d="M159 0h-92v480h107v-314l257 314h92v-480h-107v314z"/>
<glyph glyph-name="uni0439" horiz-adv-x="590" unicode="й" d="M159 0h-92v480h107v-314l257 314h92v-480h-107v314zM441 588q-60 -41 -146 -41t-146 41v87q67 -42 146 -42t146 42v-87z"/>
<glyph glyph-name="uni043A" horiz-adv-x="535" unicode="к" d="M174 0h-107v480h107v-190h79l138 190h122l-174 -238l193 -242h-123l-158 199h-77v-199z"/>
<glyph glyph-name="uni043B" horiz-adv-x="594" unicode="л" d="M258 389q-6 -94 -16 -161t-30 -123.5t-52.5 -85t-79.5 -28.5q-31 0 -66 13v84q17 -6 31 -6q57 0 80.5 99.5t31.5 298.5h370v-480h-107v389h-162z"/>
<glyph glyph-name="uni043C" horiz-adv-x="677" unicode="м" d="M170 0h-103v480h108l163 -253l164 253h108v-480h-103v325l-137 -210h-64l-136 210v-325z"/>
<glyph glyph-name="uni043D" horiz-adv-x="588" unicode="н" d="M174 0h-107v480h107v-193h240v193h107v-480h-107v193h-240v-193z"/>
<glyph glyph-name="uni043E" horiz-adv-x="594" unicode="о" d="M448 240q0 70 -42 112.5t-109 42.5q-68 0 -110 -42.5t-42 -112.5t42 -112.5t110 -42.5q67 0 109 42.5t42 112.5zM37 240q0 119 76.5 186t183.5 67q108 0 184 -67t76 -186t-76 -186t-184 -67q-107 0 -183.5 67t-76.5 186z"/>
<glyph glyph-name="uni043F" horiz-adv-x="588" unicode="п" d="M174 0h-107v480h454v-480h-107v386h-240v-386z"/>
<glyph glyph-name="uni0440" horiz-adv-x="622" unicode="р" d="M476 240q0 70 -42 114.5t-107 44.5q-53 0 -93.5 -29t-59.5 -71v-117q19 -43 59.5 -72t93.5 -29q65 0 107 44.5t42 114.5zM162 405q73 88 185 88q106 0 172 -73.5t66 -179.5t-66 -179.5t-172 -73.5q-108 0 -173 75v-282h-107v700h95v-75z"/>
<glyph glyph-name="uni0441" horiz-adv-x="495" unicode="с" d="M37 236q0 125 79 191t186 66q86 0 148 -37v-98q-56 40 -133 40q-71 0 -121 -39.5t-50 -118.5q0 -77 49.5 -117.5t119.5 -40.5q76 0 140 37v-99q-69 -33 -159 -33q-105 0 -182 64.5t-77 184.5z"/>
<glyph glyph-name="uni0442" horiz-adv-x="472" unicode="т" d="M290 0h-107v386h-166v94h438v-94h-165v-386z"/>
<glyph glyph-name="uni0443" horiz-adv-x="551" unicode="у" d="M283 118l143 362h112l-225 -545q-69 -167 -193 -167q-29 0 -63 8v91q22 -7 49 -7q77 0 119 112l10 24l-228 484h114z"/>
<glyph glyph-name="uni0444" horiz-adv-x="734" unicode="ф" d="M419 402v-324q80 4 126 48t46 114t-46 114t-126 48zM143 240q0 -70 46 -114t126 -48v324q-80 -4 -126 -48t-46 -114zM419 -220h-104v207q-122 4 -200.5 72.5t-78.5 180.5t78.5 180.5t200.5 72.5v207h104v-207q122 -4 200.5 -72.5t78.5 -180.5t-78.5 -180.5t-200.5 -72.5 v-207z"/>
<glyph glyph-name="uni0445" horiz-adv-x="510" unicode="х" d="M370 480h122l-175 -235l185 -245h-122l-125 170l-125 -170h-122l185 245l-175 235h122l115 -162z"/>
<glyph glyph-name="uni0446" horiz-adv-x="613" unicode="ц" d="M582 -129h-101v129h-414v480h107v-386h229v386h107v-388h72v-221z"/>
<glyph glyph-name="uni0447" horiz-adv-x="532" unicode="ч" d="M465 0h-107v159q-63 -23 -134 -23q-84 0 -135 44.5t-51 131.5v168h107v-159q0 -50 28 -70.5t82 -20.5q55 0 103 18v232h107v-480z"/>
<glyph glyph-name="uni0448" horiz-adv-x="816" unicode="ш" d="M749 0h-682v480h107v-386h181v386h107v-386h180v386h107v-480z"/>
<glyph glyph-name="uni0449" horiz-adv-x="852" unicode="щ" d="M820 -129h-101v129h-652v480h107v-386h181v386h107v-386h180v386h107v-388h71v-221z"/>
<glyph glyph-name="uni044A" horiz-adv-x="600" unicode="ъ" d="M253 85h110q48 0 75 19.5t27 55.5q0 37 -27 56.5t-75 19.5h-110v-151zM253 320h131q88 0 139 -45t51 -115t-51 -115t-139 -45h-238v392h-128v88h235v-160z"/>
<glyph glyph-name="uni044B" horiz-adv-x="755" unicode="ы" d="M688 0h-107v480h107v-480zM174 236v-151h110q48 0 75 19.5t27 55.5q0 37 -27 56.5t-75 19.5h-110zM305 0h-238v480h107v-160h131q88 0 139 -45t51 -115t-51 -115t-139 -45z"/>
<glyph glyph-name="uni044C" horiz-adv-x="521" unicode="ь" d="M174 236v-151h110q48 0 75 19.5t27 55.5q0 37 -27 56.5t-75 19.5h-110zM305 0h-238v480h107v-160h131q88 0 139 -45t51 -115t-51 -115t-139 -45z"/>
<glyph glyph-name="uni044D" horiz-adv-x="506" unicode="э" d="M469 232q0 -62 -22.5 -111t-60 -77t-81.5 -42.5t-91 -14.5q-96 0 -174 42v93q68 -43 152 -43q154 0 169 117h-230v88h230q-10 60 -58 88.5t-117 28.5q-77 0 -141 -43v92q68 43 154 43q111 0 190.5 -66t79.5 -195z"/>
<glyph glyph-name="uni044E" horiz-adv-x="829" unicode="ю" d="M380 240q0 -71 42 -114.5t110 -43.5t109.5 43.5t41.5 114.5t-41.5 114.5t-109.5 43.5t-110 -43.5t-42 -114.5zM792 240q0 -119 -76 -186t-184 -67q-94 0 -167 55t-87 153h-104v-195h-107v480h107v-195h104q14 98 87 153t167 55q108 0 184 -67t76 -186z"/>
<glyph glyph-name="uni044F" horiz-adv-x="549" unicode="я" d="M158 317q0 -35 25 -54.5t69 -19.5h123v148h-123q-44 0 -69 -19.5t-25 -54.5zM147 0h-123l132 169q-51 18 -79 58t-28 91q0 69 49.5 115.5t135.5 46.5h248v-480h-107v157h-109z"/>
<glyph glyph-name="uni0451" horiz-adv-x="546" unicode="ё" d="M410 280q1 4 1 12q0 41 -30.5 76.5t-95.5 35.5q-57 0 -97.5 -33t-43.5 -91h266zM37 240q0 62 22 112.5t58 80t78 45t85 15.5q114 0 173.5 -65.5t59.5 -161.5q0 -35 -7 -66h-361q8 -61 60 -91.5t124 -30.5q82 0 152 34v-92q-69 -33 -172 -33q-117 0 -194.5 66t-77.5 187z M239 615q0 -26 -18.5 -45t-45.5 -19q-26 0 -45 19t-19 45t19 45t45 19q27 0 45.5 -19t18.5 -45zM447 615q0 -26 -19 -45t-45 -19t-45 19t-19 45t19 45t45 19t45 -19t19 -45z"/>
<glyph glyph-name="Wgrave" horiz-adv-x="1034" unicode="Ẁ" d="M594 767h-109l-106 148h124zM897 700h125l-219 -700h-125l-160 522l-160 -522h-125l-218 700h124l159 -566l170 566h101l170 -566z"/>
<glyph glyph-name="wgrave" horiz-adv-x="808" unicode="ẁ" d="M480 547h-109l-106 148h124zM679 480h113l-159 -480h-115l-114 344l-114 -344h-114l-160 480h113l108 -363l117 363h100l118 -363z"/>
<glyph glyph-name="Wacute" horiz-adv-x="1034" unicode="Ẃ" d="M550 767h-109l91 148h124zM897 700h125l-219 -700h-125l-160 522l-160 -522h-125l-218 700h124l159 -566l170 566h101l170 -566z"/>
<glyph glyph-name="wacute" horiz-adv-x="808" unicode="ẃ" d="M436 547h-109l91 148h124zM679 480h113l-159 -480h-115l-114 344l-114 -344h-114l-160 480h113l108 -363l117 363h100l118 -363z"/>
<glyph glyph-name="Wdieresis" horiz-adv-x="1034" unicode="Ẅ" d="M477 835q0 -26 -18.5 -45t-45.5 -19q-26 0 -45 19t-19 45t19 45t45 19q27 0 45.5 -19t18.5 -45zM685 835q0 -26 -19 -45t-45 -19t-45 19t-19 45t19 45t45 19t45 -19t19 -45zM897 700h125l-219 -700h-125l-160 522l-160 -522h-125l-218 700h124l159 -566l170 566h101 l170 -566z"/>
<glyph glyph-name="wdieresis" horiz-adv-x="808" unicode="ẅ" d="M363 615q0 -26 -18.5 -45t-45.5 -19q-26 0 -45 19t-19 45t19 45t45 19q27 0 45.5 -19t18.5 -45zM571 615q0 -26 -19 -45t-45 -19t-45 19t-19 45t19 45t45 19t45 -19t19 -45zM679 480h113l-159 -480h-115l-114 344l-114 -344h-114l-160 480h113l108 -363l117 363h100 l118 -363z"/>
<glyph glyph-name="Ygrave" horiz-adv-x="677" unicode="Ỳ" d="M414 767h-109l-106 148h124zM395 0h-114v257l-274 443h128l203 -339l204 339h128l-275 -443v-257z"/>
<glyph glyph-name="ygrave" horiz-adv-x="551" unicode="ỳ" d="M343 547h-109l-106 148h124zM283 118l143 362h112l-225 -545q-69 -167 -193 -167q-29 0 -63 8v91q22 -7 49 -7q77 0 119 112l10 24l-228 484h114z"/>
<glyph glyph-name="endash" horiz-adv-x="574" unicode="–" d="M515 198h-456v96h456v-96z"/>
<glyph glyph-name="emdash" horiz-adv-x="766" unicode="—" d="M707 198h-648v96h648v-96z"/>
<glyph glyph-name="quoteleft" horiz-adv-x="239" unicode="‘" d="M150 452h-114l86 248h86z"/>
<glyph glyph-name="quoteright" horiz-adv-x="235" unicode="’" d="M129 452h-87l59 248h113z"/>
<glyph glyph-name="quotesinglbase" horiz-adv-x="237" unicode="‚" d="M98 -148h-87l59 248h113z"/>
<glyph glyph-name="quotedblleft" horiz-adv-x="403" unicode="“" d="M150 452h-114l86 248h86zM314 452h-114l86 248h86z"/>
<glyph glyph-name="quotedblright" horiz-adv-x="399" unicode="”" d="M129 452h-87l59 248h113zM293 452h-87l59 248h113z"/>
<glyph glyph-name="quotedblbase" horiz-adv-x="401" unicode="„" d="M98 -148h-87l59 248h113zM262 -148h-87l59 248h113z"/>
<glyph glyph-name="dagger" horiz-adv-x="526" unicode="†" d="M321 -220h-114v595h-176v105h176v220h114v-220h174v-105h-174v-595z"/>
<glyph glyph-name="daggerdbl" horiz-adv-x="580" unicode="‡" d="M347 -220h-114v272h-177v104h177v220h-177v104h177v220h114v-220h177v-104h-177v-220h177v-104h-177v-272z"/>
<glyph glyph-name="bullet" horiz-adv-x="356" unicode="•" d="M76 350q0 48 29.5 73.5t72.5 25.5q44 0 73 -25.5t29 -73.5t-29 -73.5t-73 -25.5q-43 0 -72.5 25.5t-29.5 73.5z"/>
<glyph glyph-name="ellipsis" horiz-adv-x="658" unicode="…" d="M396 55q0 -32 -19 -49t-48 -17t-48.5 17t-19.5 49q0 31 19.5 47.5t48.5 16.5t48 -16.5t19 -47.5zM183 55q0 -32 -19 -49t-48 -17t-48.5 17t-19.5 49q0 31 19.5 47.5t48.5 16.5t48 -16.5t19 -47.5zM610 55q0 -32 -19 -49t-49 -17q-28 0 -47.5 17t-19.5 49q0 31 19.5 47.5 t47.5 16.5q29 0 48.5 -16.5t19.5 -47.5z"/>
<glyph glyph-name="perthousand" horiz-adv-x="1306" unicode="‰" d="M1023 151q0 -34 20.5 -56.5t59.5 -22.5q38 0 58 22.5t20 56.5t-20 56.5t-58 22.5q-39 0 -59.5 -22.5t-20.5 -56.5zM1275 151q0 -76 -49.5 -120t-121.5 -44t-122.5 44t-50.5 120t50.5 120t122.5 44t121.5 -44t49.5 -120zM626 151q0 -34 20.5 -56.5t59.5 -22.5 q38 0 58 22.5t20 56.5t-20 56.5t-58 22.5q-39 0 -59.5 -22.5t-20.5 -56.5zM877 151q0 -77 -49.5 -120.5t-121.5 -43.5q-73 0 -123 43.5t-50 120.5t50 120.5t123 43.5q72 0 121.5 -43.5t49.5 -120.5zM124 549q0 -34 20.5 -56.5t59.5 -22.5q38 0 58 22.5t20 56.5t-20 56.5 t-58 22.5q-39 0 -59.5 -22.5t-20.5 -56.5zM376 549q0 -77 -49.5 -120.5t-121.5 -43.5q-73 0 -123 43.5t-50 120.5t50 120.5t123 43.5q72 0 121.5 -43.5t49.5 -120.5zM295 -60h-89l409 820h89z"/>
<glyph glyph-name="guilsinglleft" horiz-adv-x="318" unicode="‹" d="M274 53h-111l-126 177v20l126 177h111l-133 -187z"/>
<glyph glyph-name="guilsinglright" horiz-adv-x="318" unicode="›" d="M155 53h-111l132 187l-132 187h111l126 -177v-20z"/>
<glyph glyph-name="fraction" horiz-adv-x="176" unicode="⁄" d="M-121 -14h-39l458 727h40z"/>
<glyph glyph-name="Euro" horiz-adv-x="728" unicode="€" d="M673 33q-94 -46 -199 -46q-120 0 -218 64.5t-130 181.5h-89v79h76v27v29h-76v79h90q22 79 75.5 135.5t123 83.5t148.5 27q107 0 199 -46v-111q-75 52 -180 52q-80 0 -146 -36t-95 -105h295v-79h-316q-2 -18 -2 -29q0 -18 1 -27h317v-79h-295q30 -68 97 -104.5t146 -36.5 q107 0 178 54v-113z"/>
<glyph glyph-name="trademark" horiz-adv-x="676" unicode="™" d="M185 444h-62v200h-81v56h224v-56h-81v-200zM368 444h-62v256h62l88 -125l87 125h62v-256h-61v165l-72 -103h-33l-71 103v-165z"/>
<glyph glyph-name="oneeighth" horiz-adv-x="911" unicode="⅛" d="M157 680h60v-334h72v-74h-240v74h87v250l-84 -30v76zM222 -14h-39l458 727h40zM782 289q0 25 -21.5 41t-58.5 16q-32 0 -52 -11.5t-20 -29.5q0 -7 1 -12.5t4.5 -10.5t6 -8.5t9 -7.5t9.5 -6t12 -5.5t11.5 -4.5t13.5 -4.5t13 -4.5q20 -5 42 -12q32 30 30 60zM715 169 q-5 2 -25 8t-32 11q-41 -26 -41 -64q2 -62 95 -62q35 0 59 11.5t24 32.5q0 37 -72 60q-5 2 -8 3zM549 304q0 45 39.5 78.5t115.5 33.5q71 0 115 -35t44 -85q0 -53 -48 -91q62 -35 62 -96q0 -49 -42 -83t-127 -34q-84 0 -128.5 35.5t-44.5 86.5q0 63 61 103q-47 36 -47 87z "/>
<glyph glyph-name="threeeighths" horiz-adv-x="937" unicode="⅜" d="M332 580q0 -30 -15 -53.5t-38 -33.5q69 -29 69 -103q0 -60 -46 -90.5t-114 -30.5q-79 0 -142 28v78q57 -32 135 -32q89 0 89 55q0 52 -76 52h-67v74h57q70 0 70 47q0 48 -80 48q-63 0 -121 -35v78q57 31 132 31q66 0 106.5 -29.5t40.5 -83.5zM257 -14h-39l458 727h40z M807 289q0 25 -21.5 41t-58.5 16q-32 0 -52 -11.5t-20 -29.5q0 -7 1 -12.5t4.5 -10.5t6 -8.5t9 -7.5t9.5 -6t12 -5.5t11.5 -4.5t13.5 -4.5t13 -4.5q19 -5 42 -12q32 30 30 60zM740 169q-5 2 -25 8t-32 11q-41 -26 -41 -64q2 -62 95 -62q35 0 59 11.5t24 32.5q0 37 -72 60 q-5 2 -8 3zM574 304q0 45 39.5 78.5t115.5 33.5q71 0 115 -35t44 -85q0 -53 -48 -91q62 -35 62 -96q0 -49 -42 -83t-127 -34q-84 0 -128.5 35.5t-44.5 86.5q0 63 61 103q-47 36 -47 87z"/>
<glyph glyph-name="fiveeighths" horiz-adv-x="930" unicode="⅝" d="M69 680h256v-74h-180l-5 -76q24 6 50 6q66 0 110.5 -32.5t44.5 -102.5q0 -66 -49 -101.5t-122 -35.5q-75 0 -131 28v77q49 -31 121 -31q98 0 98 64q0 65 -105 65q-50 0 -102 -18zM251 -14h-39l458 727h40zM801 289q0 25 -21.5 41t-58.5 16q-32 0 -52 -11.5t-20 -29.5 q0 -7 1 -12.5t4.5 -10.5t6 -8.5t9 -7.5t9.5 -6t12 -5.5t11.5 -4.5t13.5 -4.5t13 -4.5q19 -5 42 -12q32 30 30 60zM734 169q-5 2 -25 8t-32 11q-41 -26 -41 -64q2 -62 95 -62q35 0 59 11.5t24 32.5q0 37 -72 60q-5 2 -8 3zM568 304q0 45 39.5 78.5t115.5 33.5q71 0 115 -35 t44 -85q0 -53 -48 -91q62 -35 62 -96q0 -49 -42 -83t-127 -34q-84 0 -128.5 35.5t-44.5 86.5q0 63 61 103q-47 36 -47 87z"/>
<glyph glyph-name="seveneighths" horiz-adv-x="849" unicode="⅞" d="M178 272h-89l155 334h-209v74h300v-67zM719 289q0 25 -21.5 41t-58.5 16q-32 0 -52 -11.5t-20 -29.5q0 -7 1 -12.5t4.5 -10.5t6 -8.5t9 -7.5t9.5 -6t12 -5.5t11.5 -4.5t13.5 -4.5t13 -4.5q19 -5 42 -12q32 30 30 60zM652 169q-5 2 -25 8t-32 11q-41 -26 -41 -64 q2 -62 95 -62q35 0 59 11.5t24 32.5q0 37 -72 60q-5 2 -8 3zM486 304q0 45 39.5 78.5t115.5 33.5q71 0 115 -35t44 -85q0 -53 -48 -91q62 -35 62 -96q0 -49 -42 -83t-127 -34q-84 0 -128.5 35.5t-44.5 86.5q0 63 61 103q-47 36 -47 87zM161 -14h-39l458 727h40z"/>
<glyph glyph-name="partialdiff" horiz-adv-x="590" unicode="∂" d="M146 219q0 -60 38 -100t106 -40q65 0 99 36t42 93q-2 61 -41.5 103.5t-105.5 42.5q-64 0 -101 -39t-37 -96zM544 280q0 -141 -69.5 -217t-187.5 -76q-109 0 -179 64.5t-70 169.5q0 98 63.5 160.5t155.5 62.5q62 0 112 -25.5t73 -67.5q-2 16 -5 25q-13 65 -45.5 111.5 t-77.5 71.5t-93.5 36t-102.5 11h-16v99q66 0 127 -13.5t119.5 -45t101 -79t68.5 -121.5t26 -166z"/>
<glyph glyph-name="emptyset" horiz-adv-x="807" unicode="∅" d="M222 102q81 -60 181 -60q128 0 218 90t90 218q0 126 -89 218zM403 658q-127 0 -217.5 -90t-90.5 -218q0 -127 90 -217l399 466q-81 59 -181 59zM735 700l-78 -91q110 -105 110 -259q0 -151 -106.5 -257t-256.5 -106q-120 0 -218 72l-51 -59h-64l78 91q-109 107 -109 259 q0 151 106.5 257t257.5 106q120 0 216 -72l51 59h64z"/>
<glyph glyph-name="product" horiz-adv-x="768" unicode="∏" d="M241 -220h-114v821h-92v99h698v-99h-92v-821h-114v821h-286v-821z"/>
<glyph glyph-name="summation" horiz-adv-x="575" unicode="∑" d="M526 0h-487v63l251 287l-251 287v63h485v-105h-307l204 -234v-22l-204 -233h309v-106z"/>
<glyph glyph-name="minus" horiz-adv-x="518" unicode="−" d="M454 299h-390v95h390v-95z"/>
<glyph glyph-name="radical" horiz-adv-x="751" unicode="√" d="M386 0h-97l-163 375h-102v105h172l142 -349l301 649h119z"/>
<glyph glyph-name="infinity" horiz-adv-x="866" unicode="∞" d="M708 358q0 48 -26.5 72t-67.5 24q-37 0 -66 -24t-62 -71q33 -48 62 -72.5t66 -24.5q41 0 67.5 24t26.5 72zM380 357q-33 48 -62 72.5t-66 24.5q-40 0 -67 -24t-27 -72t27 -72t67 -24q37 0 66 24t62 71zM434 432q42 55 87 86t107 31q78 0 131 -52t53 -139t-53 -139 t-131 -52q-62 0 -107.5 31t-88.5 86q-42 -55 -87 -86t-107 -31q-78 0 -131 52t-53 139t53 139t131 52q62 0 107.5 -31t88.5 -86z"/>
<glyph glyph-name="integral" horiz-adv-x="440" unicode="∫" d="M167 628q0 88 50 126.5t121 38.5q50 0 93 -16v-96q-40 14 -74 14q-83 0 -83 -78v-685q0 -88 -50.5 -126.5t-121.5 -38.5q-50 0 -93 16v96q40 -14 68 -14q90 0 90 78v685z"/>
<glyph glyph-name="approxequal" horiz-adv-x="593" unicode="≈" d="M533 336q1 -6 1 -18q0 -56 -32 -87.5t-85 -31.5q-37 0 -115 27.5t-106 27.5q-35 0 -35 -37v-5h-95q0 2 -0.5 7t-0.5 8q0 57 32.5 89t83.5 32q41 0 116 -27t106 -27q35 0 35 35v7h95zM533 507q1 -6 1 -18q0 -56 -32 -87t-85 -31q-37 0 -113.5 27t-105.5 27h-2 q-35 0 -35 -37v-5h-95q0 3 -0.5 8t-0.5 7q0 57 32.5 89t83.5 32q41 0 116 -26.5t106 -26.5q35 0 35 34v7h95z"/>
<glyph glyph-name="notequal" horiz-adv-x="566" unicode="≠" d="M185 107h-85l58 101h-95v95h150l55 94h-205v96h260l58 100h85l-58 -100h95v-96h-150l-55 -94h205v-95h-260z"/>
<glyph glyph-name="lessequal" horiz-adv-x="523" unicode="≤" d="M448 0h-386v95h386v-95zM448 277v-99l-386 149v107l386 149v-100l-286 -103z"/>
<glyph glyph-name="greaterequal" horiz-adv-x="524" unicode="≥" d="M461 0h-386v95h386v-95zM461 330l-386 -149v99l287 103l-287 103v100l386 -149v-107z"/>
<glyph glyph-name="lozenge" horiz-adv-x="579" unicode="◊" d="M148 350l141 -247l143 247l-143 247zM349 0h-119l-196 350l196 350h119l196 -350z"/>
<glyph glyph-name="i.loclTRK" d="M49 610q0 32 20 49.5t50 17.5t50 -17.5t20 -49.5q0 -34 -20 -51.5t-50 -17.5t-50 18t-20 51zM69 480h107v-480h-107v480z" horiz-adv-x="245"/>
<glyph glyph-name="a.ss01" d="M145 240q0 -70 42 -114.5t107 -44.5q53 0 93.5 29t59.5 72v117q-19 42 -59.5 71t-93.5 29q-65 0 -107 -44.5t-42 -114.5zM459 76q-70 -89 -184 -89q-106 0 -172 73.5t-66 179.5t66 179.5t172 73.5q113 0 184 -88v75h96v-480h-96v76z" horiz-adv-x="622"/>
<glyph glyph-name="aacute.ss01" d="M344 547h-109l91 148h124zM145 240q0 -70 42 -114.5t107 -44.5q53 0 93.5 29t59.5 72v117q-19 42 -59.5 71t-93.5 29q-65 0 -107 -44.5t-42 -114.5zM459 76q-70 -89 -184 -89q-106 0 -172 73.5t-66 179.5t66 179.5t172 73.5q113 0 184 -88v75h96v-480h-96v76z" horiz-adv-x="622"/>
<glyph glyph-name="abreve.ss01" d="M459 582q-61 -43 -147 -43q-87 0 -148 43v92q66 -43 148 -43q81 0 147 43v-92zM145 240q0 -70 42 -114.5t107 -44.5q53 0 93.5 29t59.5 72v117q-19 42 -59.5 71t-93.5 29q-65 0 -107 -44.5t-42 -114.5zM459 76q-70 -89 -184 -89q-106 0 -172 73.5t-66 179.5t66 179.5 t172 73.5q113 0 184 -88v75h96v-480h-96v76z" horiz-adv-x="622"/>
<glyph glyph-name="acircumflex.ss01" d="M267 695h95l129 -150h-111l-65 76l-66 -76h-111zM145 240q0 -70 42 -114.5t107 -44.5q53 0 93.5 29t59.5 72v117q-19 42 -59.5 71t-93.5 29q-65 0 -107 -44.5t-42 -114.5zM459 76q-70 -89 -184 -89q-106 0 -172 73.5t-66 179.5t66 179.5t172 73.5q113 0 184 -88v75h96 v-480h-96v76z" horiz-adv-x="622"/>
<glyph glyph-name="adieresis.ss01" d="M271 615q0 -26 -18.5 -45t-45.5 -19q-26 0 -45 19t-19 45t19 45t45 19q27 0 45.5 -19t18.5 -45zM479 615q0 -26 -19 -45t-45 -19t-45 19t-19 45t19 45t45 19t45 -19t19 -45zM145 240q0 -70 42 -114.5t107 -44.5q53 0 93.5 29t59.5 72v117q-19 42 -59.5 71t-93.5 29 q-65 0 -107 -44.5t-42 -114.5zM459 76q-70 -89 -184 -89q-106 0 -172 73.5t-66 179.5t66 179.5t172 73.5q113 0 184 -88v75h96v-480h-96v76z" horiz-adv-x="622"/>
<glyph glyph-name="agrave.ss01" d="M388 547h-109l-106 148h124zM145 240q0 -70 42 -114.5t107 -44.5q53 0 93.5 29t59.5 72v117q-19 42 -59.5 71t-93.5 29q-65 0 -107 -44.5t-42 -114.5zM459 76q-70 -89 -184 -89q-106 0 -172 73.5t-66 179.5t66 179.5t172 73.5q113 0 184 -88v75h96v-480h-96v76z" horiz-adv-x="622"/>
<glyph glyph-name="amacron.ss01" d="M156 646h312v-90h-312v90zM145 240q0 -70 42 -114.5t107 -44.5q53 0 93.5 29t59.5 72v117q-19 42 -59.5 71t-93.5 29q-65 0 -107 -44.5t-42 -114.5zM459 76q-70 -89 -184 -89q-106 0 -172 73.5t-66 179.5t66 179.5t172 73.5q113 0 184 -88v75h96v-480h-96v76z" horiz-adv-x="622"/>
<glyph glyph-name="aogonek.ss01" d="M294 81q53 0 93.5 29t59.5 72v117q-19 42 -59.5 71t-93.5 29q-65 0 -107 -44.5t-42 -114.5t42 -114.5t107 -44.5zM459 480h96v-480h-1q-38 -26 -59.5 -57.5t-20.5 -56.5q-1 -17 9.5 -27t29.5 -10t41 10v-77q-32 -16 -73 -16q-51 0 -78.5 26.5t-27.5 67.5q2 78 84 150v66 q-70 -89 -184 -89q-106 0 -172 73.5t-66 179.5t66 179.5t172 73.5q113 0 184 -88v75z" horiz-adv-x="622"/>
<glyph glyph-name="aring.ss01" d="M262 635q0 -23 14 -36.5t35 -13.5t35 13.5t14 36.5q0 21 -14 35t-35 14t-35 -14t-14 -35zM431 635q0 -52 -35 -83.5t-84 -31.5q-50 0 -85.5 31.5t-35.5 83.5q0 51 35.5 82.5t85.5 31.5q49 0 84 -31.5t35 -82.5zM145 240q0 -70 42 -114.5t107 -44.5q53 0 93.5 29t59.5 72 v117q-19 42 -59.5 71t-93.5 29q-65 0 -107 -44.5t-42 -114.5zM459 76q-70 -89 -184 -89q-106 0 -172 73.5t-66 179.5t66 179.5t172 73.5q113 0 184 -88v75h96v-480h-96v76z" horiz-adv-x="622"/>
<glyph glyph-name="atilde.ss01" d="M483 657q3 -15 3 -29q0 -43 -26 -68t-64 -25q-36 0 -85 21t-60 21q-13 0 -20.5 -8.5t-7.5 -20.5q0 -1 0.5 -3.5t0.5 -3.5h-83q-3 15 -3 29q0 43 25.5 68t63.5 25q35 0 84.5 -21t61.5 -21q28 0 28 27q0 2 -0.5 5t-0.5 4h83zM145 240q0 -70 42 -114.5t107 -44.5 q53 0 93.5 29t59.5 72v117q-19 42 -59.5 71t-93.5 29q-65 0 -107 -44.5t-42 -114.5zM459 76q-70 -89 -184 -89q-106 0 -172 73.5t-66 179.5t66 179.5t172 73.5q113 0 184 -88v75h96v-480h-96v76z" horiz-adv-x="622"/>
<glyph glyph-name="ae.ss01" d="M706 404q-58 0 -98 -34t-43 -94h266q1 4 1 13q0 43 -30.5 79t-95.5 36zM145 240q0 -70 42 -114.5t107 -44.5q53 0 93.5 29t59.5 72v117q-19 42 -59.5 71t-93.5 29q-65 0 -107 -44.5t-42 -114.5zM459 76q-70 -89 -184 -89q-106 0 -172 73.5t-66 179.5t66 179.5t172 73.5 q113 0 184 -88v75h93v-78q56 91 168 91q105 0 160 -65t55 -161q0 -34 -8 -72h-362q9 -58 61 -87.5t124 -29.5q80 0 145 34v-89q-66 -36 -152 -36q-129 0 -191 93v-80h-93v76z" horiz-adv-x="969"/>
<glyph glyph-name="y.ss01" d="M522 0q-2 -118 -76 -175.5t-183 -57.5q-108 0 -181 42v95q62 -43 167 -43q73 0 120 32.5t46 109.5v51q-63 -67 -155 -67q-93 0 -145.5 54t-52.5 142v297h107v-283q0 -115 112 -115q79 0 134 80v318h107v-480z" horiz-adv-x="589"/>
<glyph glyph-name="yacute.ss01" d="M326 547h-109l91 148h124zM522 0q-2 -118 -76 -175.5t-183 -57.5q-108 0 -181 42v95q62 -43 167 -43q73 0 120 32.5t46 109.5v51q-63 -67 -155 -67q-93 0 -145.5 54t-52.5 142v297h107v-283q0 -115 112 -115q79 0 134 80v318h107v-480z" horiz-adv-x="589"/>
<glyph glyph-name="ycircumflex.ss01" d="M249 695h95l129 -150h-111l-65 76l-66 -76h-111zM522 0q-2 -118 -76 -175.5t-183 -57.5q-108 0 -181 42v95q62 -43 167 -43q73 0 120 32.5t46 109.5v51q-63 -67 -155 -67q-93 0 -145.5 54t-52.5 142v297h107v-283q0 -115 112 -115q79 0 134 80v318h107v-480z" horiz-adv-x="589"/>
<glyph glyph-name="ydieresis.ss01" d="M253 615q0 -26 -18.5 -45t-45.5 -19q-26 0 -45 19t-19 45t19 45t45 19q27 0 45.5 -19t18.5 -45zM461 615q0 -26 -19 -45t-45 -19t-45 19t-19 45t19 45t45 19t45 -19t19 -45zM522 0q-2 -118 -76 -175.5t-183 -57.5q-108 0 -181 42v95q62 -43 167 -43q73 0 120 32.5 t46 109.5v51q-63 -67 -155 -67q-93 0 -145.5 54t-52.5 142v297h107v-283q0 -115 112 -115q79 0 134 80v318h107v-480z" horiz-adv-x="589"/>
<glyph glyph-name="ygrave.ss01" d="M370 547h-109l-106 148h124zM522 0q-2 -118 -76 -175.5t-183 -57.5q-108 0 -181 42v95q62 -43 167 -43q73 0 120 32.5t46 109.5v51q-63 -67 -155 -67q-93 0 -145.5 54t-52.5 142v297h107v-283q0 -115 112 -115q79 0 134 80v318h107v-480z" horiz-adv-x="589"/>
<glyph glyph-name="f_b" d="M533 182q19 -43 59.5 -72t93.5 -29q65 0 107 44.5t42 114.5t-42 114.5t-107 44.5q-53 0 -93.5 -29t-59.5 -71v-117zM533 418q65 75 173 75q106 0 172 -73.5t66 -179.5t-66 -179.5t-172 -73.5q-113 0 -185 89v-76h-95v598q-51 21 -105 21q-48 0 -76.5 -22t-28.5 -67v-50 h140v-94h-140v-386h-107v386h-87v94h87v52q0 86 54 133.5t140 47.5q74 0 140 -29l90 18v-284z" horiz-adv-x="981"/>
<glyph glyph-name="f_f_b" d="M850 182q19 -43 59.5 -72t93.5 -29q65 0 107 44.5t42 114.5t-42 114.5t-107 44.5q-53 0 -93.5 -29t-59.5 -71v-117zM427 480v55q0 28 4 48q-49 28 -110 28q-48 0 -76.5 -22.5t-28.5 -66.5v-42h211zM850 418q65 75 173 75q106 0 172 -73.5t66 -179.5t-66 -179.5 t-172 -73.5q-113 0 -185 89v-76h-95v608q-49 21 -105 21q-105 0 -105 -96v-53h141v-94h-141v-386h-107v386h-210v-386h-107v386h-87v94h87v42q0 88 55.5 134.5t142.5 46.5q79 0 162 -40q53 60 151 60q74 0 140 -29l90 18v-294z" horiz-adv-x="1298"/>
<glyph glyph-name="f_f_h" d="M427 480v55q0 28 4 48q-49 28 -110 28q-48 0 -76.5 -22.5t-28.5 -66.5v-42h211zM850 427q64 66 155 66q90 0 144 -54.5t54 -141.5v-297h-107v283q0 56 -31 85.5t-81 29.5q-79 0 -134 -80v-318h-107v608q-49 21 -105 21q-105 0 -105 -96v-53h141v-94h-141v-386h-107v386 h-210v-386h-107v386h-87v94h87v42q0 88 55.5 134.5t142.5 46.5q79 0 162 -40q53 60 151 60q74 0 140 -29l90 18v-285z" horiz-adv-x="1264"/>
<glyph glyph-name="f_f_j" d="M216 522v-42h211v55q0 28 4 48q-49 28 -110 28q-48 0 -76.5 -22.5t-28.5 -66.5zM840 -82q0 -81 -43.5 -116t-105.5 -35q-45 0 -76 14v90q22 -10 46 -10q72 0 72 75v450h-200v-386h-107v386h-210v-386h-107v386h-87v94h87v42q0 88 55.5 134.5t142.5 46.5q79 0 162 -40 q55 63 163 63q77 0 155 -33v-98q-71 37 -141 37q-52 0 -82.5 -23.5t-30.5 -74.5v-54h307v-562z" horiz-adv-x="909"/>
<glyph glyph-name="f_f_k" d="M427 480v55q0 28 4 48q-49 28 -110 28q-48 0 -76.5 -22.5t-28.5 -66.5v-42h211zM1189 480l-174 -239l193 -241h-122l-159 199h-77v-199h-107v608q-49 21 -105 21q-105 0 -105 -96v-53h141v-94h-141v-386h-107v386h-210v-386h-107v386h-87v94h87v42q0 88 55.5 134.5 t142.5 46.5q79 0 162 -40q53 60 151 60q74 0 140 -29l90 18v-422h81l138 190h120z" horiz-adv-x="1209"/>
<glyph glyph-name="f_h" d="M533 427q64 66 155 66q90 0 144 -54.5t54 -141.5v-297h-107v283q0 56 -31 85.5t-81 29.5q-79 0 -134 -80v-318h-107v598q-51 21 -105 21q-48 0 -76.5 -22t-28.5 -67v-50h140v-94h-140v-386h-107v386h-87v94h87v52q0 86 54 133.5t140 47.5q74 0 140 -29l90 18v-275z" horiz-adv-x="947"/>
<glyph glyph-name="f_i" d="M216 480h301v-480h-107v386h-194v-386h-107v386h-87v94h87v49q0 89 56.5 136.5t149.5 47.5q77 0 155 -33v-98q-72 37 -141 37q-52 0 -82.5 -22.5t-30.5 -68.5v-48z" horiz-adv-x="586"/>
<glyph glyph-name="f_j" d="M216 480h301v-562q0 -81 -43.5 -116t-105.5 -35q-46 0 -77 14v90q23 -10 46 -10q73 0 73 75v450h-194v-386h-107v386h-87v94h87v49q0 89 56.5 136.5t149.5 47.5q77 0 155 -33v-98q-72 37 -141 37q-52 0 -82.5 -22.5t-30.5 -68.5v-48z" horiz-adv-x="586"/>
<glyph glyph-name="f_k" d="M872 480l-174 -239l193 -241h-122l-159 199h-77v-199h-107v598q-51 21 -105 21q-48 0 -76.5 -22t-28.5 -67v-50h140v-94h-140v-386h-107v386h-87v94h87v52q0 86 54 133.5t140 47.5q74 0 140 -29l90 18v-412h81l138 190h120z" horiz-adv-x="892"/>
<glyph glyph-name="f_l" d="M303 713q74 0 140 -29l90 18v-702h-107v598q-51 21 -105 21q-48 0 -76.5 -22t-28.5 -67v-50h140v-94h-140v-386h-107v386h-87v94h87v52q0 86 54 133.5t140 47.5z" horiz-adv-x="602"/>
<glyph glyph-name="uni0414.loclBGR" d="M403 579l-179 -475h358zM130 -159h-104v263h78l237 596h125l237 -596h77v-263h-103v159h-547v-159z" horiz-adv-x="806"/>
<glyph glyph-name="uni041B.loclBGR" d="M289 700h118l282 -700h-123l-218 568l-218 -568h-123z" horiz-adv-x="696"/>
<glyph glyph-name="uni0424.loclBGR" d="M509 600v-500q82 6 138 44t79 90.5t23 115.5q0 99 -59.5 170.5t-180.5 79.5zM157 350q0 -99 59.5 -170.5t180.5 -79.5v500q-121 -8 -180.5 -79.5t-59.5 -170.5zM509 -97h-112v94q-164 9 -260 107.5t-96 245.5t96 245.5t260 107.5v94h112v-94q164 -10 260 -108.5 t96 -244.5t-96 -244.5t-260 -108.5v-94z" horiz-adv-x="906"/>
<glyph glyph-name="uni0432.loclBGR" d="M164 263q0 -179 142 -179q63 0 99.5 35t36.5 92q0 53 -31.5 88t-87.5 35q-15 0 -32 -3l-127 -22v-46zM395 531q0 34 -24.5 60.5t-67.5 26.5q-65 0 -102.5 -52.5t-37.5 -166.5l124 22q108 22 108 110zM501 541q0 -94 -90 -145q63 -18 101 -68.5t38 -119.5 q0 -95 -67.5 -158t-174.5 -63q-114 0 -183 69.5t-69 209.5v129q0 150 65 234t185 84q86 0 140.5 -49.5t54.5 -122.5z" horiz-adv-x="586"/>
<glyph glyph-name="uni0433.loclBGR" d="M437 33q-73 -46 -188 -46q-217 0 -217 145q0 52 31 84t75 44.5t87.5 21t74.5 24.5t31 44q0 54 -94 54q-93 0 -176 -45v93q87 41 184 41q83 0 139 -35t56 -109q0 -52 -31 -84.5t-74.5 -45.5t-87.5 -22t-75 -24t-31 -42q0 -31 28.5 -42.5t85.5 -11.5q108 0 182 52v-96z" horiz-adv-x="482"/>
<glyph glyph-name="uni0434.loclBGR" d="M447 299q-19 42 -59.5 71t-93.5 29q-65 0 -107 -44.5t-42 -114.5t42 -114.5t107 -44.5q53 0 93.5 27t59.5 67v124zM37 240q0 106 66 179.5t172 73.5q113 0 184 -88v75h96v-474q0 -121 -77.5 -180t-191.5 -59q-110 0 -198 45v98q84 -49 184 -49q176 0 176 142v61 q-65 -77 -173 -77q-106 0 -172 73.5t-66 179.5z" horiz-adv-x="622"/>
<glyph glyph-name="uni0436.loclBGR" d="M123 0h-117l179 240l-161 240h117l129 -194h62v414h107v-414h63l129 194h116l-160 -240l179 -240h-117l-146 195h-64v-195h-107v195h-63z" horiz-adv-x="771"/>
<glyph glyph-name="uni0438.loclBGR" d="M415 480h107v-480h-95v66q-66 -79 -167 -79q-93 0 -145.5 54t-52.5 142v297h107v-283q0 -115 112 -115q79 0 134 80v318z" horiz-adv-x="589"/>
<glyph glyph-name="uni0439.loclBGR" d="M415 480h107v-480h-95v66q-66 -79 -167 -79q-93 0 -145.5 54t-52.5 142v297h107v-283q0 -115 112 -115q79 0 134 80v318zM440 588q-60 -41 -146 -41t-146 41v87q67 -42 146 -42t146 42v-87z" horiz-adv-x="589"/>
<glyph glyph-name="uni043A.loclBGR" d="M532 0h-123l-158 199h-77v-199h-107v700h107v-410h79l138 190h122l-174 -238z" horiz-adv-x="535"/>
<glyph glyph-name="uni043B.loclBGR" d="M536 0h-117l-145 364l-146 -364h-116l205 480h113z" horiz-adv-x="548"/>
<glyph glyph-name="uni043F.loclBGR" d="M162 414q66 79 167 79q90 0 144 -54.5t54 -141.5v-297h-107v283q0 56 -31 85.5t-81 29.5q-79 0 -134 -80v-318h-107v480h95v-66z" horiz-adv-x="588"/>
<glyph glyph-name="uni0442.loclBGR" d="M174 0h-107v480h95v-60q65 73 160 73q104 0 150 -77q77 77 168 77q90 0 136 -56t46 -137v-300h-107v297q0 46 -25.5 73.5t-69.5 27.5q-65 0 -119 -65q2 -22 2 -33v-300h-107v297q0 46 -25.5 73.5t-69.5 27.5q-69 0 -127 -74v-324z" horiz-adv-x="884"/>
<glyph glyph-name="uni0446.loclBGR" d="M522 111q0 -34 35 -34h36v-206h-98v125q-58 7 -73 64q-66 -73 -162 -73q-93 0 -145.5 54t-52.5 142v297h107v-283q0 -115 112 -115q79 0 134 80v318h107v-369z" horiz-adv-x="623"/>
<glyph glyph-name="uni0448.loclBGR" d="M710 480h107v-480h-95v60q-65 -73 -160 -73q-104 0 -150 77q-77 -77 -168 -77q-90 0 -136 56t-46 137v300h107v-297q0 -46 25.5 -73.5t69.5 -27.5q65 0 119 65q-2 22 -2 33v300h107v-297q0 -46 25.5 -73.5t69.5 -27.5q69 0 127 74v324z" horiz-adv-x="884"/>
<glyph glyph-name="uni0449.loclBGR" d="M817 111q0 -34 35 -34h35v-206h-98v125q-56 7 -71 60q-67 -69 -156 -69q-103 0 -150 77q-77 -77 -169 -77q-89 0 -135 56t-46 137v300h107v-296q0 -47 25.5 -74.5t69.5 -27.5q64 0 119 64q-2 22 -2 34v300h107v-296q0 -47 25.5 -74.5t69.5 -27.5q69 0 127 74v324h107 v-369z" horiz-adv-x="917"/>
<glyph glyph-name="uni044E.loclBGR" d="M380 240q0 -71 42 -114.5t110 -43.5t109.5 43.5t41.5 114.5t-41.5 114.5t-109.5 43.5t-110 -43.5t-42 -114.5zM792 240q0 -119 -76 -186t-184 -67q-94 0 -167 55t-87 153h-104v-195h-107v700h107v-415h104q14 98 87 153t167 55q108 0 184 -67t76 -186z" horiz-adv-x="829"/>
<glyph glyph-name="uni0430.ss01" d="M145 240q0 -70 42 -114.5t107 -44.5q53 0 93.5 29t59.5 72v117q-19 42 -59.5 71t-93.5 29q-65 0 -107 -44.5t-42 -114.5zM459 76q-70 -89 -184 -89q-106 0 -172 73.5t-66 179.5t66 179.5t172 73.5q113 0 184 -88v75h96v-480h-96v76z" horiz-adv-x="622"/>
<glyph glyph-name="uni0437.ss01" d="M396 322q0 -96 -91 -145q64 -17 102 -67.5t38 -119.5q0 -105 -74 -164t-182 -59q-97 0 -172 45v96q69 -49 156 -49q71 0 118 33.5t47 98.5q0 53 -32 88.5t-86 35.5q-20 0 -37 -4l-65 -15v91l73 16q100 25 100 109q0 46 -32 68t-80 22q-80 0 -154 -46v94q78 44 170 44 q83 0 142 -45t59 -127z" horiz-adv-x="470"/>
<glyph glyph-name="uni0443.ss01" d="M522 0q-2 -118 -76 -175.5t-183 -57.5q-108 0 -181 42v95q62 -43 167 -43q73 0 120 32.5t46 109.5v51q-63 -67 -155 -67q-93 0 -145.5 54t-52.5 142v297h107v-283q0 -115 112 -115q79 0 134 80v318h107v-480z" horiz-adv-x="589"/>
<glyph glyph-name="zero.osf" d="M157 260q0 -70 46 -119.5t127 -49.5t126.5 49.5t45.5 119.5t-45.5 119.5t-126.5 49.5t-127 -49.5t-46 -119.5zM617 260q0 -109 -76 -191t-211 -82q-70 0 -126 24t-90.5 63.5t-53 87t-18.5 98.5t18.5 98.5t53 87t90.5 63.5t126 24q135 0 211 -82t76 -191z" horiz-adv-x="659"/>
<glyph glyph-name="one.osf" d="M219 520h84v-417h121v-103h-370v103h136v300l-136 -51v105z" horiz-adv-x="449"/>
<glyph glyph-name="two.osf" d="M495 0h-453v56q0 29 10 54t21 40t38 32t39.5 23.5t49.5 22.5t46 20q5 2 21.5 9t21.5 10t19 9.5t19.5 10.5t15.5 10.5t14 12t9.5 13.5t7.5 16t2 17q0 34 -31.5 54t-80.5 20q-95 0 -199 -62v110q101 55 212 55q90 0 151.5 -46t61.5 -126q0 -29 -11 -54t-25 -41.5t-40 -34 t-42.5 -25.5t-46.5 -22q-14 -6 -38.5 -17t-37.5 -17.5t-28.5 -15t-24 -16.5t-11.5 -16l310 1v-103z" horiz-adv-x="543"/>
<glyph glyph-name="three.osf" d="M480 347q0 -53 -27.5 -93t-73.5 -55q55 -17 92 -60t37 -114q0 -96 -74.5 -147t-175.5 -51q-116 0 -216 44v108q91 -49 207 -49q62 1 106 27.5t44 79.5t-36.5 77.5t-90.5 24.5h-98v103l85 -1h3q49 0 79 25.5t30 66.5q0 45 -35.5 71t-95.5 26q-93 0 -186 -50v106 q88 47 202 47q97 0 160.5 -50.5t63.5 -135.5z" horiz-adv-x="548"/>
<glyph glyph-name="four.osf" d="M358 78v289l-216 -289h216zM351 520h117v-442h110v-99h-110v-139h-110v139h-339v97z" horiz-adv-x="604"/>
<glyph glyph-name="five.osf" d="M85 520h389v-102h-284l-10 -164q47 12 93 12q44 0 83.5 -12t74 -36t55 -68t20.5 -101q0 -105 -77.5 -163.5t-184.5 -58.5q-108 0 -201 45v105q86 -47 188 -47q68 0 114 31t46 89q0 63 -46 92.5t-119 29.5q-76 0 -163 -30z" horiz-adv-x="540"/>
<glyph glyph-name="six.osf" d="M164 276q9 -97 50 -144t105 -47q57 0 95.5 31t38.5 94q0 64 -41 93t-99 29q-83 0 -149 -56zM165 381q82 51 178 51q88 0 156.5 -58.5t68.5 -159.5q0 -107 -70.5 -167t-172.5 -60q-137 0 -207 90.5t-70 253.5q0 91 26 162.5t70 114t97.5 64t113.5 21.5q87 0 162 -40v-101 q-71 40 -152 40q-73 0 -130.5 -50.5t-69.5 -160.5z" horiz-adv-x="605"/>
<glyph glyph-name="seven.osf" d="M19 520h472v-90l-269 -590h-123l263 578h-343v102z" horiz-adv-x="505"/>
<glyph glyph-name="eight.osf" d="M441 490q0 45 -37.5 75.5t-96.5 30.5q-56 0 -91 -25t-35 -61q0 -41 29.5 -66.5t100.5 -50.5q11 -4 34 -11.5t30 -9.5q66 50 66 118zM316 298q-41 14 -76 28q-40 -24 -60.5 -57.5t-20.5 -67.5q1 -54 42.5 -85t114.5 -31q65 0 106 25.5t41 65.5q0 47 -29 68t-118 54z M70 511q0 73 62.5 127.5t177.5 54.5q108 0 175.5 -57t67.5 -135q0 -99 -90 -162q114 -57 114 -161q0 -80 -66 -135.5t-197 -55.5q-126 0 -197 58t-71 143q0 50 29.5 98.5t82.5 79.5q-88 55 -88 145z" horiz-adv-x="623"/>
<glyph glyph-name="nine.osf" d="M280 435q-57 0 -95.5 -31t-38.5 -94q0 -64 41 -93t99 -29q80 0 148 55q-9 97 -49.5 144.5t-104.5 47.5zM31 306q0 107 70.5 167t172.5 60q137 0 207 -90.5t70 -253.5q0 -91 -26 -162.5t-70 -114t-97.5 -64t-113.5 -21.5q-86 0 -163 40v101q71 -40 152 -40 q73 0 130.5 50.5t69.5 160.5q-80 -50 -177 -50q-88 0 -156.5 58t-68.5 159z" horiz-adv-x="593"/>
<glyph glyph-name="zero.sinf" d="M114 104q0 -137 103 -137q102 0 102 137t-102 137q-103 0 -103 -137zM402 104q0 -94 -46.5 -153t-138.5 -59t-138.5 59t-46.5 153t46.5 153t138.5 59t138.5 -59t46.5 -153z" horiz-adv-x="434"/>
<glyph glyph-name="one.sinf" d="M142 308h60v-334h72v-74h-240v74h87v250l-84 -30v76z" horiz-adv-x="292"/>
<glyph glyph-name="two.sinf" d="M43 274q57 42 139 42q66 0 106.5 -30.5t40.5 -87.5q0 -78 -112 -144q-6 -4 -16.5 -10t-16 -9.5t-14.5 -8.5t-13.5 -9t-11.5 -8.5t-10.5 -8.5t-7 -8.5t-5.5 -9t-2 -9.5l210 1v-74h-301v37q0 33 10 59.5t31.5 47.5t37 31.5t45.5 28.5q7 4 10 6t13 7.5t13 7.5t11.5 7 t11.5 7.5t9.5 7.5t8.5 8.5t6 8.5t5.5 10t3 11t1.5 12q0 45 -71 45q-69 0 -132 -47v79z" horiz-adv-x="364"/>
<glyph glyph-name="three.sinf" d="M319 203q0 -30 -15 -53.5t-38 -33.5q69 -29 69 -103q0 -60 -46 -90.5t-114 -30.5q-79 0 -142 28v78q57 -32 135 -32q89 0 89 55q0 52 -76 52h-67v74h57q70 0 70 47q0 48 -80 48q-63 0 -121 -35v78q57 31 132 31q66 0 106.5 -29.5t40.5 -83.5z" horiz-adv-x="366"/>
<glyph glyph-name="four.sinf" d="M235 51v152l-124 -152h124zM229 308h85v-257h65v-72h-65v-79h-79v79h-216v71z" horiz-adv-x="401"/>
<glyph glyph-name="five.sinf" d="M59 308h256v-74h-180l-5 -76q24 6 50 6q66 0 110.5 -32.5t44.5 -102.5q0 -66 -49 -101.5t-122 -35.5q-75 0 -131 28v77q49 -31 121 -31q98 0 98 64q0 65 -105 65q-50 0 -102 -18z" horiz-adv-x="362"/>
<glyph glyph-name="six.sinf" d="M115 65q11 -102 93 -102q78 0 78 64q0 63 -84 63q-48 0 -87 -25zM115 137q50 25 111 25q57 0 100 -35t43 -96q0 -66 -44.5 -102.5t-110.5 -36.5q-182 0 -182 211q0 104 54.5 158.5t137.5 54.5q56 0 110 -24v-76q-48 27 -103 27q-43 0 -75.5 -25t-40.5 -81z" horiz-adv-x="393"/>
<glyph glyph-name="seven.sinf" d="M161 -100h-89l155 334h-209v74h300v-67z" horiz-adv-x="334"/>
<glyph glyph-name="eight.sinf" d="M278 189q0 25 -21.5 41t-58.5 16q-32 0 -52 -11.5t-20 -29.5q0 -7 1 -12.5t4.5 -10.5t6 -8.5t9 -7.5t9.5 -6t12 -5.5t11.5 -4.5t13.5 -4.5t13 -4.5q20 -5 42 -12q32 30 30 60zM211 69q-5 2 -25 8t-32 11q-41 -26 -41 -64q2 -62 95 -62q35 0 59 11.5t24 32.5q0 37 -72 60 q-5 2 -8 3zM45 204q0 45 39.5 78.5t115.5 33.5q71 0 115 -35t44 -85q0 -53 -48 -91q62 -35 62 -96q0 -49 -42 -83t-127 -34q-84 0 -128.5 35.5t-44.5 86.5q0 63 61 103q-47 36 -47 87z" horiz-adv-x="404"/>
<glyph glyph-name="nine.sinf" d="M185 245q-79 0 -79 -64q0 -63 84 -63q51 0 88 25q-11 102 -93 102zM24 177q0 66 44.5 102.5t110.5 36.5q182 0 182 -211q0 -104 -54.5 -158.5t-137.5 -54.5q-57 0 -111 24v76q48 -27 104 -27q43 0 75.5 25t40.5 81q-50 -25 -111 -25q-57 0 -100 35t-43 96z" horiz-adv-x="393"/>
<glyph glyph-name="zero.sups" d="M114 581q0 -137 103 -137q102 0 102 137t-102 137q-103 0 -103 -137zM402 581q0 -94 -46.5 -153t-138.5 -59t-138.5 59t-46.5 153t46.5 153t138.5 59t138.5 -59t46.5 -153z" horiz-adv-x="434"/>
<glyph glyph-name="one.sups" d="M142 780h60v-334h72v-74h-240v74h87v250l-84 -30v76z" horiz-adv-x="292"/>
<glyph glyph-name="two.sups" d="M43 751q57 42 139 42q66 0 106.5 -30.5t40.5 -87.5q0 -78 -112 -144q-6 -4 -16.5 -10t-16 -9.5t-14.5 -8.5t-13.5 -9t-11.5 -8.5t-10.5 -8.5t-7 -8.5t-5.5 -9t-2 -9.5l210 1v-74h-301v37q0 33 10 59.5t31.5 47.5t37 31.5t45.5 28.5q7 4 10 6t13 7.5t13 7.5t11.5 7 t11.5 7.5t9.5 7.5t8.5 8.5t6 8.5t5.5 10t3 11t1.5 12q0 45 -71 45q-69 0 -132 -47v79z" horiz-adv-x="364"/>
<glyph glyph-name="three.sups" d="M319 680q0 -30 -15 -53.5t-38 -33.5q69 -29 69 -103q0 -60 -46 -90.5t-114 -30.5q-79 0 -142 28v78q57 -32 135 -32q89 0 89 55q0 52 -76 52h-67v74h57q70 0 70 47q0 48 -80 48q-63 0 -121 -35v78q57 31 132 31q66 0 106.5 -29.5t40.5 -83.5z" horiz-adv-x="366"/>
<glyph glyph-name="four.sups" d="M235 523v152l-124 -152h124zM229 780h85v-257h65v-72h-65v-79h-79v79h-216v71z" horiz-adv-x="401"/>
<glyph glyph-name="five.sups" d="M59 780h256v-74h-180l-5 -76q24 6 50 6q66 0 110.5 -32.5t44.5 -102.5q0 -66 -49 -101.5t-122 -35.5q-75 0 -131 28v77q49 -31 121 -31q98 0 98 64q0 65 -105 65q-50 0 -102 -18z" horiz-adv-x="362"/>
<glyph glyph-name="six.sups" d="M115 542q11 -102 93 -102q78 0 78 64q0 63 -84 63q-48 0 -87 -25zM115 614q50 25 111 25q57 0 100 -35t43 -96q0 -66 -44.5 -102.5t-110.5 -36.5q-182 0 -182 211q0 104 54.5 158.5t137.5 54.5q56 0 110 -24v-76q-48 27 -103 27q-43 0 -75.5 -25t-40.5 -81z" horiz-adv-x="393"/>
<glyph glyph-name="seven.sups" d="M161 372h-89l155 334h-209v74h300v-67z" horiz-adv-x="334"/>
<glyph glyph-name="eight.sups" d="M278 666q0 25 -21.5 41t-58.5 16q-32 0 -52 -11.5t-20 -29.5q0 -7 1 -12.5t4.5 -10.5t6 -8.5t9 -7.5t9.5 -6t12 -5.5t11.5 -4.5t13.5 -4.5t13 -4.5q20 -4 42 -12q32 30 30 60zM211 546q-5 2 -25 8t-32 11q-41 -26 -41 -64q2 -62 95 -62q35 0 59 11.5t24 32.5q0 37 -72 60 q-5 2 -8 3zM45 681q0 45 39.5 78.5t115.5 33.5q71 0 115 -35t44 -85q0 -53 -48 -91q62 -35 62 -96q0 -49 -42 -83t-127 -34q-84 0 -128.5 35.5t-44.5 86.5q0 63 61 103q-47 36 -47 87z" horiz-adv-x="404"/>
<glyph glyph-name="nine.sups" d="M185 722q-79 0 -79 -64q0 -63 84 -63q51 0 88 25q-11 102 -93 102zM24 654q0 66 44.5 102.5t110.5 36.5q182 0 182 -211q0 -104 -54.5 -158.5t-137.5 -54.5q-57 0 -111 24v76q48 -27 104 -27q43 0 75.5 25t40.5 81q-50 -25 -111 -25q-57 0 -100 35t-43 96z" horiz-adv-x="393"/>
<glyph glyph-name="zero.tf" d="M149 340q0 -119 43.5 -184t125.5 -65t125.5 65t43.5 184t-43.5 184t-125.5 65t-125.5 -65t-43.5 -184zM602 340q0 -156 -73.5 -254.5t-210.5 -98.5t-210.5 98.5t-73.5 254.5t73.5 254.5t210.5 98.5t210.5 -98.5t73.5 -254.5z"/>
<glyph glyph-name="one.tf" d="M309 680h84v-577h202v-103h-532v103h217v460l-184 -69v105z"/>
<glyph glyph-name="two.tf" d="M78 624q108 69 235 69q112 0 179.5 -49t67.5 -142q0 -79 -50 -134t-139 -104q-105 -58 -135 -83q-45 -38 -46 -79l385 1v-103h-513v52q0 35 8.5 66t19 53.5t33 46.5t37.5 38t46 33t45 27t47 26q40 22 60 34.5t44 32t34 41.5t10 50q0 90 -143 90q-112 0 -225 -76v110z"/>
<glyph glyph-name="three.tf" d="M550 507q0 -53 -27.5 -93t-73.5 -55q55 -17 92 -60t37 -114q0 -98 -75.5 -148t-194.5 -50q-135 0 -246 48v109q101 -54 229 -54h8q170 2 170 107q0 102 -151 102h-115v103l102 -1h4q65 0 98.5 24.5t33.5 67.5q0 46 -39 71.5t-115 25.5q-110 0 -213 -59v109q100 53 228 53 q113 0 180.5 -50t67.5 -136z"/>
<glyph glyph-name="four.tf" d="M389 238v297l-241 -297h241zM383 680h117v-442h110v-99h-110v-139h-110v139h-369v97z"/>
<glyph glyph-name="five.tf" d="M108 680h439v-102h-334l-10 -165q52 13 116 13q114 0 187 -52.5t73 -164.5q0 -106 -80 -164t-205 -58q-133 0 -228 46v107q86 -50 215 -50q85 0 134 30.5t49 89.5q0 122 -195 122q-96 0 -183 -30z"/>
<glyph glyph-name="six.tf" d="M167 275q18 -190 172 -190q64 0 104.5 30.5t40.5 94.5q0 65 -42.5 93.5t-109.5 28.5q-93 0 -165 -57zM166 376q93 56 198 56q95 0 165 -57.5t70 -159.5q0 -108 -72 -168t-179 -60q-151 0 -224 89.5t-73 254.5q0 181 88 271.5t227 90.5q94 0 176 -40v-104q-77 43 -165 43 q-86 0 -143.5 -51t-67.5 -165z"/>
<glyph glyph-name="seven.tf" d="M53 680h535v-90l-292 -590h-123l286 578h-406v102z"/>
<glyph glyph-name="eight.tf" d="M464 490q0 46 -40 76t-111 30q-64 0 -101.5 -24t-37.5 -60q0 -34 23.5 -58t45.5 -33t70 -24q8 -3 12 -4q50 -14 73 -21q66 51 66 118zM330 294q-49 15 -98 32q-39 -24 -59.5 -57.5t-20.5 -67.5q1 -54 45.5 -85.5t129.5 -31.5q69 0 113.5 25t44.5 65q0 21 -8 37.5 t-20.5 27.5t-32.5 21t-39 16.5t-45 14.5q-7 2 -10 3zM62 511q0 74 65 128t190 54q118 0 188 -56.5t70 -135.5q0 -98 -90 -162q114 -57 114 -161q0 -80 -70 -135.5t-208 -55.5q-137 0 -210 58.5t-73 142.5q0 50 29 98t82 79q-87 56 -87 146z"/>
<glyph glyph-name="nine.tf" d="M298 595q-64 0 -104.5 -30.5t-40.5 -94.5q0 -65 43 -93.5t110 -28.5q92 0 164 57q-18 190 -172 190zM38 465q0 108 72 168t180 60q151 0 223.5 -90t72.5 -257q0 -178 -88 -268.5t-227 -90.5q-93 0 -176 40v104q77 -43 165 -43q86 0 143.5 51t67.5 165q-92 -55 -198 -55 q-95 0 -165 57t-70 159z"/>
<glyph glyph-name="zero.tosf" d="M145 260q0 -70 46 -119.5t127 -49.5t126.5 49.5t45.5 119.5t-45.5 119.5t-126.5 49.5t-127 -49.5t-46 -119.5zM605 260q0 -109 -76 -191t-211 -82q-70 0 -126 24t-90.5 63.5t-53 87t-18.5 98.5t18.5 98.5t53 87t90.5 63.5t126 24q135 0 211 -82t76 -191z"/>
<glyph glyph-name="one.tosf" d="M307 520h84v-417h202v-103h-532v103h217v300l-184 -69v105z"/>
<glyph glyph-name="two.tosf" d="M568 0h-506v56q0 27 8.5 50t20.5 40t33.5 32.5t39 25t46 20t45 15.5t44.5 13q80 22 115 43t35 59q0 36 -37.5 56t-104.5 20q-115 0 -222 -74v110q102 67 232 67q112 0 179 -46.5t67 -131.5q0 -67 -46 -105.5t-134 -66.5q-12 -4 -41.5 -13.5t-45 -15.5t-36 -14.5 t-33.5 -18t-19 -19.5l360 1v-103z"/>
<glyph glyph-name="three.tosf" d="M546 347q0 -53 -27.5 -93t-73.5 -55q55 -17 92 -60t37 -114q0 -98 -75 -148t-191 -50q-138 0 -243 45v110q93 -52 224 -52h10q166 2 166 107q0 102 -148 102h-111v103l99 -1h3q62 0 95.5 25t33.5 67q0 46 -38.5 71.5t-112.5 25.5q-112 0 -209 -56v109q95 50 225 50 q111 0 177.5 -50t66.5 -136z"/>
<glyph glyph-name="four.tosf" d="M385 78v297l-241 -297h241zM379 520h117v-442h117v-99h-117v-139h-110v139h-369v97z"/>
<glyph glyph-name="five.tosf" d="M112 520h432v-102h-327l-10 -165q52 13 116 13q109 0 181 -52.5t72 -164.5q0 -106 -78.5 -164t-199.5 -58q-133 0 -228 46v107q86 -50 215 -50q81 0 128.5 30.5t47.5 89.5q0 122 -188 122q-96 0 -183 -30z"/>
<glyph glyph-name="six.tosf" d="M167 275q18 -190 172 -190q64 0 104.5 30.5t40.5 94.5q0 65 -42.5 93.5t-109.5 28.5q-93 0 -165 -57zM166 376q93 56 198 56q95 0 165 -57.5t70 -159.5q0 -108 -72 -168t-179 -60q-152 0 -224.5 90t-72.5 257q0 179 88 269t227 90q94 0 176 -40v-104q-77 43 -165 43 q-86 0 -143.5 -51t-67.5 -165z"/>
<glyph glyph-name="seven.tosf" d="M53 520h535v-90l-292 -590h-123l286 578h-406v102z"/>
<glyph glyph-name="eight.tosf" d="M463 490q0 46 -40 76t-111 30q-64 0 -101.5 -24t-37.5 -60q0 -34 23.5 -58t45.5 -33t70 -24q8 -3 12 -4q42 -11 73 -21q66 51 66 118zM329 294q-49 15 -98 32q-39 -24 -59.5 -57.5t-20.5 -67.5q1 -54 45.5 -85.5t129.5 -31.5q69 0 113.5 25t44.5 65q0 21 -8 37.5 t-20.5 27.5t-32.5 21t-39 16.5t-45 14.5q-7 2 -10 3zM62 511q0 74 65 128t190 54q118 0 188 -56.5t70 -135.5q0 -98 -90 -162q114 -57 114 -161q0 -80 -70 -135.5t-208 -55.5q-137 0 -210 58.5t-73 142.5q0 50 29 98t82 79q-87 56 -87 146z"/>
<glyph glyph-name="nine.tosf" d="M297 435q-64 0 -104.5 -30.5t-40.5 -94.5q0 -65 43 -93.5t110 -28.5q92 0 164 57q-18 190 -172 190zM37 305q0 108 72 168t180 60q151 0 223.5 -90t72.5 -257q0 -179 -88 -269t-227 -90q-93 0 -176 40v104q77 -43 165 -43q86 0 143.5 51t67.5 165q-92 -55 -198 -55 q-95 0 -165 57t-70 159z"/>
<glyph glyph-name="zero.dnom" d="M114 204q0 -137 103 -137q102 0 102 137t-102 137q-103 0 -103 -137zM402 204q0 -94 -46.5 -153t-138.5 -59t-138.5 59t-46.5 153t46.5 153t138.5 59t138.5 -59t46.5 -153z" horiz-adv-x="434"/>
<glyph glyph-name="one.dnom" d="M142 408h60v-334h72v-74h-240v74h87v250l-84 -30v76z" horiz-adv-x="292"/>
<glyph glyph-name="two.dnom" d="M43 374q57 42 139 42q66 0 106.5 -30.5t40.5 -87.5q0 -78 -112 -144q-6 -4 -16.5 -10t-16 -9.5t-14.5 -8.5t-13.5 -9t-11.5 -8.5t-10.5 -8.5t-7 -8.5t-5.5 -9t-2 -9.5l210 1v-74h-301v37q0 33 10 59.5t31.5 47.5t37 31.5t45.5 28.5q7 4 10 6t13 7.5t13 7.5t11.5 7 t11.5 7.5t9.5 7.5t8.5 8.5t6 8.5t5.5 10t3 11t1.5 12q0 45 -71 45q-69 0 -132 -47v79z" horiz-adv-x="364"/>
<glyph glyph-name="three.dnom" d="M319 303q0 -30 -15 -53.5t-38 -33.5q69 -29 69 -103q0 -60 -46 -90.5t-114 -30.5q-79 0 -142 28v78q57 -32 135 -32q89 0 89 55q0 52 -76 52h-67v74h57q70 0 70 47q0 48 -80 48q-63 0 -121 -35v78q57 31 132 31q66 0 106.5 -29.5t40.5 -83.5z" horiz-adv-x="366"/>
<glyph glyph-name="four.dnom" d="M235 151v152l-124 -152h124zM229 408h85v-257h65v-72h-65v-79h-79v79h-216v71z" horiz-adv-x="401"/>
<glyph glyph-name="five.dnom" d="M59 408h256v-74h-180l-5 -76q24 6 50 6q66 0 110.5 -32.5t44.5 -102.5q0 -66 -49 -101.5t-122 -35.5q-75 0 -131 28v77q49 -31 121 -31q98 0 98 64q0 65 -105 65q-50 0 -102 -18z" horiz-adv-x="362"/>
<glyph glyph-name="six.dnom" d="M115 165q11 -102 93 -102q78 0 78 64q0 63 -84 63q-48 0 -87 -25zM115 237q50 25 111 25q57 0 100 -35t43 -96q0 -66 -44.5 -102.5t-110.5 -36.5q-182 0 -182 211q0 104 54.5 158.5t137.5 54.5q56 0 110 -24v-76q-48 27 -103 27q-43 0 -75.5 -25t-40.5 -81z" horiz-adv-x="393"/>
<glyph glyph-name="seven.dnom" d="M161 0h-89l155 334h-209v74h300v-67z" horiz-adv-x="334"/>
<glyph glyph-name="eight.dnom" d="M278 289q0 25 -21.5 41t-58.5 16q-32 0 -52 -11.5t-20 -29.5q0 -7 1 -12.5t4.5 -10.5t6 -8.5t9 -7.5t9.5 -6t12 -5.5t11.5 -4.5t13.5 -4.5t13 -4.5q20 -5 42 -12q32 30 30 60zM211 169q-5 2 -25 8t-32 11q-41 -26 -41 -64q2 -62 95 -62q35 0 59 11.5t24 32.5q0 37 -72 60 q-5 2 -8 3zM45 304q0 45 39.5 78.5t115.5 33.5q71 0 115 -35t44 -85q0 -53 -48 -91q62 -35 62 -96q0 -49 -42 -83t-127 -34q-84 0 -128.5 35.5t-44.5 86.5q0 63 61 103q-47 36 -47 87z" horiz-adv-x="404"/>
<glyph glyph-name="nine.dnom" d="M185 345q-79 0 -79 -64q0 -63 84 -63q51 0 88 25q-11 102 -93 102zM24 277q0 66 44.5 102.5t110.5 36.5q182 0 182 -211q0 -104 -54.5 -158.5t-137.5 -54.5q-57 0 -111 24v76q48 -27 104 -27q43 0 75.5 25t40.5 81q-50 -25 -111 -25q-57 0 -100 35t-43 96z" horiz-adv-x="393"/>
<glyph glyph-name="zero.numr" d="M114 481q0 -137 103 -137q102 0 102 137t-102 137q-103 0 -103 -137zM402 481q0 -94 -46.5 -153t-138.5 -59t-138.5 59t-46.5 153t46.5 153t138.5 59t138.5 -59t46.5 -153z" horiz-adv-x="434"/>
<glyph glyph-name="one.numr" d="M142 680h60v-334h72v-74h-240v74h87v250l-84 -30v76z" horiz-adv-x="292"/>
<glyph glyph-name="two.numr" d="M43 651q57 42 139 42q66 0 106.5 -30.5t40.5 -87.5q0 -78 -112 -144q-6 -4 -16.5 -10t-16 -9.5t-14.5 -8.5t-13.5 -9t-11.5 -8.5t-10.5 -8.5t-7 -8.5t-5.5 -9t-2 -9.5l210 1v-74h-301v37q0 33 10 59.5t31.5 47.5t37 31.5t45.5 28.5q7 4 10 6t13 7.5t13 7.5t11.5 7 t11.5 7.5t9.5 7.5t8.5 8.5t6 8.5t5.5 10t3 11t1.5 12q0 45 -71 45q-69 0 -132 -47v79z" horiz-adv-x="364"/>
<glyph glyph-name="three.numr" d="M319 580q0 -30 -15 -53.5t-38 -33.5q69 -29 69 -103q0 -60 -46 -90.5t-114 -30.5q-79 0 -142 28v78q57 -32 135 -32q89 0 89 55q0 52 -76 52h-67v74h57q70 0 70 47q0 48 -80 48q-63 0 -121 -35v78q57 31 132 31q66 0 106.5 -29.5t40.5 -83.5z" horiz-adv-x="366"/>
<glyph glyph-name="four.numr" d="M235 423v152l-124 -152h124zM229 680h85v-257h65v-72h-65v-79h-79v79h-216v71z" horiz-adv-x="401"/>
<glyph glyph-name="five.numr" d="M59 680h256v-74h-180l-5 -76q24 6 50 6q66 0 110.5 -32.5t44.5 -102.5q0 -66 -49 -101.5t-122 -35.5q-75 0 -131 28v77q49 -31 121 -31q98 0 98 64q0 65 -105 65q-50 0 -102 -18z" horiz-adv-x="362"/>
<glyph glyph-name="six.numr" d="M115 442q11 -102 93 -102q78 0 78 64q0 63 -84 63q-48 0 -87 -25zM115 514q50 25 111 25q57 0 100 -35t43 -96q0 -66 -44.5 -102.5t-110.5 -36.5q-182 0 -182 211q0 104 54.5 158.5t137.5 54.5q56 0 110 -24v-76q-48 27 -103 27q-43 0 -75.5 -25t-40.5 -81z" horiz-adv-x="393"/>
<glyph glyph-name="seven.numr" d="M161 272h-89l155 334h-209v74h300v-67z" horiz-adv-x="334"/>
<glyph glyph-name="eight.numr" d="M278 566q0 25 -21.5 41t-58.5 16q-32 0 -52 -11.5t-20 -29.5q0 -7 1 -12.5t4.5 -10.5t6 -8.5t9 -7.5t9.5 -6t12 -5.5t11.5 -4.5t13.5 -4.5t13 -4.5q20 -4 42 -12q32 30 30 60zM211 446q-5 2 -25 8t-32 11q-41 -26 -41 -64q2 -62 95 -62q35 0 59 11.5t24 32.5q0 37 -72 60 q-5 2 -8 3zM45 581q0 45 39.5 78.5t115.5 33.5q71 0 115 -35t44 -85q0 -53 -48 -91q62 -35 62 -96q0 -49 -42 -83t-127 -34q-84 0 -128.5 35.5t-44.5 86.5q0 63 61 103q-47 36 -47 87z" horiz-adv-x="404"/>
<glyph glyph-name="nine.numr" d="M185 622q-79 0 -79 -64q0 -63 84 -63q51 0 88 25q-11 102 -93 102zM24 554q0 66 44.5 102.5t110.5 36.5q182 0 182 -211q0 -104 -54.5 -158.5t-137.5 -54.5q-57 0 -111 24v76q48 -27 104 -27q43 0 75.5 25t40.5 81q-50 -25 -111 -25q-57 0 -100 35t-43 96z" horiz-adv-x="393"/>
<glyph glyph-name="emdash.case" d="M711 302h-648v96h648v-96z" horiz-adv-x="774"/>
<glyph glyph-name="endash.case" d="M519 302h-456v96h456v-96z" horiz-adv-x="582"/>
<glyph glyph-name="hyphen.case" d="M63 398h364v-96h-364v96z" horiz-adv-x="490"/>
<glyph glyph-name="guillemotleft.case" d="M282 163h-111l-126 177v20l126 177h111l-133 -187zM488 163h-111l-126 177v20l126 177h111l-132 -187z" horiz-adv-x="541"/>
<glyph glyph-name="guillemotright.case" d="M164 163h-111l132 187l-132 187h111l126 -177v-20zM370 163h-111l132 187l-132 187h111l126 -177v-20z" horiz-adv-x="541"/>
<glyph glyph-name="guilsinglleft.case" d="M282 163h-111l-126 177v20l126 177h111l-133 -187z" horiz-adv-x="335"/>
<glyph glyph-name="guilsinglright.case" d="M164 163h-111l132 187l-132 187h111l126 -177v-20z" horiz-adv-x="335"/>
<glyph glyph-name="cent.tf" d="M330 391q-52 -13 -84 -51t-32 -100q0 -61 32.5 -99.5t83.5 -51.5v302zM412 84q61 6 111 35v-99q-48 -23 -111 -31v-109h-82v109q-95 11 -160 74t-65 173q0 113 65 177.5t160 76.5v110h82v-110q58 -6 106 -34v-98q-46 31 -106 39v-313z"/>
<glyph glyph-name="currency.tf" d="M212 350q0 -47 28.5 -75t77.5 -28q48 0 76.5 28t28.5 75t-28.5 75.5t-76.5 28.5q-49 0 -77.5 -28.5t-28.5 -75.5zM212 182l-83 -83l-62 62l80 79q-33 46 -33 110t33 110l-80 80l62 62l83 -84q47 26 106 26q58 0 105 -26l84 84l61 -62l-79 -80q32 -44 32 -110t-32 -110 l79 -79l-62 -62l-83 83q-47 -26 -105 -26q-59 0 -106 26z"/>
<glyph glyph-name="dollar.tf" d="M356 -130h-82v119q-116 11 -203 59v112q107 -69 247 -69q73 0 111.5 18.5t38.5 65.5q0 44 -42 71.5t-101.5 44t-119 37t-101.5 65t-42 112.5q0 84 59 131.5t153 55.5v118h82v-119q101 -9 172 -51v-109q-88 58 -205 58h-5q-139 0 -139 -81q0 -35 30 -59.5t75 -37t98 -30.5 t98 -38t75 -61.5t30 -100.5q0 -96 -63 -142t-166 -51v-118z"/>
<glyph glyph-name="Euro.tf" d="M239 233q31 -68 100 -104.5t149 -36.5q58 0 113 19v-104q-66 -20 -133 -20q-121 0 -221 64.5t-134 181.5h-90v79h76v28v28h-76v79h90q34 116 133 181t215 65q69 0 135 -20v-103q-52 18 -112 18q-78 0 -145.5 -36.5t-99.5 -104.5h263v-79h-286q-1 -9 -1 -28t1 -28h286v-79 h-263z"/>
<glyph glyph-name="sterling.tf" d="M592 0h-550v100h32q31 0 50 23.5t19 59.5v105h-76v94h76v74q0 120 69.5 178.5t183.5 58.5q86 0 155 -37v-100q-64 43 -139 43q-74 0 -117 -35.5t-43 -109.5v-72h209v-94h-209v-105q0 -62 -31 -83h371v-100z"/>
<glyph glyph-name="yen.tf" d="M492 680h125l-201 -344h124v-82h-166v-54h166v-82h-166v-118h-114v118h-164v82h164v54h-164v82h123l-201 344h125l174 -319z"/>
</font>
</defs>
</svg>
