<?xml version="1.0" encoding="UTF-8" standalone="no"?>
<!-- Created with Inkscape (http://www.inkscape.org/) -->

<svg
   xmlns:dc="http://purl.org/dc/elements/1.1/"
   xmlns:cc="http://creativecommons.org/ns#"
   xmlns:rdf="http://www.w3.org/1999/02/22-rdf-syntax-ns#"
   xmlns:svg="http://www.w3.org/2000/svg"
   xmlns="http://www.w3.org/2000/svg"
   xmlns:sodipodi="http://sodipodi.sourceforge.net/DTD/sodipodi-0.dtd"
   xmlns:inkscape="http://www.inkscape.org/namespaces/inkscape"
   version="1.1"
   id="svg3804"
   xml:space="preserve"
   width="495.30933"
   height="133.94269"
   viewBox="0 0 495.30933 133.94269"
   sodipodi:docname="total_2.ai.svg"
   inkscape:version="0.92.0 15301"><metadata
     id="metadata3810"><rdf:RDF><cc:Work
         rdf:about=""><dc:format>image/svg+xml</dc:format><dc:type
           rdf:resource="http://purl.org/dc/dcmitype/StillImage" /><dc:title></dc:title></cc:Work></rdf:RDF></metadata><defs
     id="defs3808"><clipPath
       clipPathUnits="userSpaceOnUse"
       id="clipPath3820"><path
         d="M 0,542.957 H 479.482 V 0 H 0 Z"
         id="path3818"
         inkscape:connector-curvature="0" /></clipPath></defs><sodipodi:namedview
     pagecolor="#ffffff"
     bordercolor="#666666"
     borderopacity="1"
     objecttolerance="10"
     gridtolerance="10"
     guidetolerance="10"
     inkscape:pageopacity="0"
     inkscape:pageshadow="2"
     inkscape:window-width="1610"
     inkscape:window-height="586"
     id="namedview3806"
     showgrid="false"
     showguides="true"
     inkscape:guide-bbox="true"
     inkscape:zoom="1.2445737"
     inkscape:cx="319.65466"
     inkscape:cy="104.85518"
     inkscape:window-x="262"
     inkscape:window-y="63"
     inkscape:window-maximized="0"
     inkscape:current-layer="g3816"><sodipodi:guide
       position="166.32202,591.36717"
       orientation="0,1"
       id="guide3888"
       inkscape:locked="false" /></sodipodi:namedview><g
     id="g3812"
     inkscape:groupmode="layer"
     inkscape:label="td_logo_aA"
     transform="matrix(1.3333333,0,0,-1.3333333,0,133.94267)"><g
       id="g3814"><g
         id="g3816"
         clip-path="url(#clipPath3820)"><g
           id="g3822"
           transform="translate(160.55917,87.601739)"><path
             d="m 0,0 c 0.926,3.104 1.616,5.281 2.072,6.533 0.455,1.25 1.186,2.446 2.193,3.583 0.617,0.747 1.414,1.333 2.39,1.756 0.974,0.421 1.981,0.634 3.022,0.634 1.658,0 3.12,-0.537 4.388,-1.61 C 15.43,9.824 16.112,8.329 16.112,6.412 16.112,4.656 15.56,3.129 14.454,1.828 13.349,0.495 11.749,-0.821 9.653,-2.12 7.556,-3.421 5.549,-4.703 3.632,-5.971 1.714,-7.24 -0.545,-8.963 -3.145,-11.139 l -1.072,0.877 C -2.332,-6.525 -0.926,-3.104 0,0"
             style="fill:#d72127;fill-opacity:1;fill-rule:nonzero;stroke:none"
             id="path3824"
             inkscape:connector-curvature="0" /></g><g
           id="g3830"
           transform="translate(154.60167,14.948139)"><path
             d="m 0,0 c -0.228,0.473 -0.537,1.143 -0.588,1.675 -0.26,2.714 -0.162,5.523 -0.06,8.342 0.087,2.39 0.153,4.903 1.736,6.852 2.747,3.397 6.825,5.437 10.607,7.448 0.592,0.314 1.47,0.634 2.208,1.06 0,-1.58 0,-3.16 0,-4.74 0,-4.616 0.252,-9.282 -1.814,-13.608 C 11.165,5.094 10.043,3.64 8.515,2.137 7.717,1.352 7.07,0.783 5.918,0.114 4.969,-0.437 4.143,-0.775 3.075,-0.991 2.162,-1.176 1.246,-1.301 0.564,-0.667 0.385,-0.5 0.104,-0.216 0,0 m 43.271,-4.229 c -1.496,-0.508 -3.253,-0.144 -4.425,0.914 -1.549,1.398 -1.434,3.235 -1.434,5.131 v 33.386 1.282 c 0,3.673 -1.158,5.926 -2.371,8.054 -1.437,2.521 -3.456,4.704 -5.805,6.4 -4.78,3.45 -10.57,4.836 -16.345,5.428 -5.842,0.599 -11.803,0.627 -17.558,-0.664 -0.694,-0.155 -1.383,-0.329 -2.067,-0.523 -7.622,-2.158 -14.19,-8.271 -13.486,-16.778 0.504,-6.093 6.759,-9.976 12.521,-9.432 6.187,0.585 12.016,6.198 9.564,12.671 -0.506,1.337 -0.976,2.413 -2.453,3.866 -0.951,0.935 -1.785,1.562 -2.696,2.34 -0.903,0.77 2.373,2.397 3.081,2.61 6.438,1.936 14.106,-0.379 14.106,-7.154 V 35.4 c 0,-1.667 -0.558,-3.017 -1.776,-4.202 -3.677,-3.577 -9.032,-4.123 -13.785,-5.21 -7.994,-1.827 -16.864,-4.359 -20.677,-12.392 -2.584,-5.441 -2.124,-12.413 1.718,-17.152 2.988,-3.684 7.553,-5.465 12.165,-5.97 4.637,-0.507 9.487,-0.295 13.768,1.711 1.928,0.904 3.75,2.137 5.312,3.612 1.652,1.56 2.811,3.375 4.034,5.266 -0.009,-0.015 0.5,-0.841 0.54,-0.923 0.257,-0.524 0.492,-1.052 0.784,-1.559 2.261,-3.935 6.198,-6.478 10.504,-7.685 4.106,-1.151 8.351,-1.191 12.403,0.259 2.045,0.731 3.971,2.331 4.378,4.616"
             style="fill:#d81f26;fill-opacity:1;fill-rule:evenodd;stroke:none"
             id="path3832"
             inkscape:connector-curvature="0" /></g><g
           id="g3884"
           transform="translate(110.3923,126.8245)" /></g></g></g></svg>